{"glyphs":{"0":{"ha":889,"x_min":56,"x_max":833,"o":"m 719 133 q 661 56 719 133 q 443 -21 604 -21 q 169 133 282 -21 q 56 508 56 288 q 169 884 56 731 q 443 1038 282 1038 q 719 883 606 1038 q 833 508 833 729 q 719 133 833 288 m 223 146 q 260 76 223 146 q 443 6 297 6 q 665 147 589 6 q 740 508 740 288 q 665 870 740 729 q 443 1011 589 1011 q 223 871 297 1011 q 149 508 149 731 q 223 146 149 286 z "},"1":{"ha":426,"x_min":69,"x_max":338,"o":"m 122 0 l 122 3 q 178 82 164 49 q 192 174 192 115 l 192 868 l 69 868 l 69 871 q 263 1038 176 935 l 268 1038 l 268 174 q 282 82 268 115 q 338 3 296 49 l 338 0 l 122 0 z "},"2":{"ha":710,"x_min":14,"x_max":668,"o":"m 14 0 l 14 14 q 441 428 321 261 q 561 750 561 594 q 501 943 561 875 q 331 1011 440 1011 q 176 959 232 1011 q 69 801 121 907 l 61 804 l 97 993 q 335 1038 204 1038 q 571 962 494 1038 q 647 761 647 886 q 521 443 647 601 q 121 72 394 285 l 483 72 q 582 97 549 72 q 657 189 615 121 l 668 185 l 611 0 l 14 0 z "},"3":{"ha":735,"x_min":56,"x_max":679,"o":"m 336 -21 q 199 -3 269 -21 q 85 40 128 14 l 56 215 l 64 218 q 146 97 117 133 q 224 33 175 60 q 338 6 272 6 q 530 90 468 6 q 592 313 592 175 q 336 606 592 606 q 158 544 239 606 l 146 558 l 561 944 l 113 944 l 143 1017 l 663 1017 l 663 1003 l 244 614 q 361 633 299 633 q 589 551 499 633 q 679 318 679 468 q 585 72 679 165 q 336 -21 490 -21 z "},"4":{"ha":760,"x_min":14,"x_max":711,"o":"m 456 3 q 500 82 489 49 q 511 174 511 115 l 511 264 l 14 264 l 14 278 l 497 1017 l 593 1017 l 49 294 l 511 294 l 511 681 l 586 681 l 586 294 l 711 294 l 700 264 l 586 264 l 586 174 q 597 82 586 115 q 642 3 608 49 l 642 0 l 456 0 l 456 3 z "},"5":{"ha":731,"x_min":49,"x_max":675,"o":"m 326 -21 q 81 40 179 -21 l 49 229 l 57 232 q 182 60 122 114 q 338 6 242 6 q 524 92 461 6 q 588 318 588 179 q 521 540 588 458 q 321 621 454 621 q 125 556 207 621 l 111 567 l 185 1017 l 656 1017 l 642 944 l 201 944 l 143 592 q 338 650 218 650 q 582 563 489 650 q 675 326 675 476 q 581 75 675 171 q 326 -21 488 -21 z "},"6":{"ha":786,"x_min":63,"x_max":731,"o":"m 396 -21 q 157 94 251 -21 q 63 372 63 208 q 91 549 63 458 q 178 734 119 640 q 342 909 236 828 q 586 1038 447 990 l 592 1021 q 328 828 429 954 q 182 550 226 701 q 428 675 264 675 q 645 583 560 675 q 731 346 731 492 q 633 85 731 190 q 396 -21 535 -21 m 397 6 q 574 96 506 6 q 643 331 643 186 q 579 549 643 469 q 399 628 515 628 q 261 594 324 628 q 169 496 199 560 q 154 356 154 429 q 177 190 154 267 q 257 60 200 114 q 397 6 314 6 z "},"7":{"ha":649,"x_min":49,"x_max":656,"o":"m 106 0 q 594 944 232 465 l 49 944 l 65 1017 l 656 1017 l 656 1003 q 204 0 299 494 l 106 0 z "},"8":{"ha":736,"x_min":49,"x_max":688,"o":"m 367 -21 q 137 51 225 -21 q 49 244 49 122 q 108 419 49 342 q 289 522 168 496 q 99 788 99 617 q 174 967 99 897 q 368 1038 249 1038 q 556 974 482 1038 q 631 806 631 910 q 583 662 631 728 q 422 563 535 596 q 688 258 688 453 q 597 51 688 122 q 367 -21 506 -21 m 367 6 q 560 65 489 6 q 631 229 631 125 q 565 373 631 317 q 319 508 499 429 l 311 513 q 108 246 108 439 q 176 69 108 132 q 367 6 243 6 m 213 956 q 183 928 213 956 q 154 815 154 900 q 214 676 154 731 q 401 571 274 622 q 571 807 571 650 q 519 957 571 903 q 369 1011 467 1011 q 213 956 271 1011 z "},"9":{"ha":786,"x_min":56,"x_max":724,"o":"m 194 -4 q 460 190 357 64 q 604 467 563 315 q 358 342 522 342 q 141 433 226 342 q 56 671 56 525 q 153 932 56 826 q 390 1038 251 1038 q 629 923 535 1038 q 724 644 724 808 q 695 467 724 558 q 608 283 667 376 q 444 108 550 189 q 200 -21 339 26 l 194 -4 m 386 389 q 524 423 461 389 q 617 521 588 457 q 632 661 632 588 q 609 826 632 750 q 529 957 586 903 q 389 1011 472 1011 q 212 921 281 1011 q 143 686 143 831 q 207 468 143 547 q 386 389 271 389 z "},"\u0000":{"ha":0,"x_min":0,"x_max":0,"o":""},"\r":{"ha":208,"x_min":0,"x_max":0,"o":""}," ":{"ha":208,"x_min":0,"x_max":0,"o":""},"!":{"ha":297,"x_min":83,"x_max":214,"o":"m 189 1014 l 158 269 l 139 269 l 110 1014 l 110 1017 l 189 1017 l 189 1014 m 149 -4 q 103 15 122 -4 q 83 61 83 33 q 103 108 83 89 q 149 126 122 126 q 195 108 176 126 q 214 61 214 89 q 195 15 214 33 q 149 -4 176 -4 z "},"\"":{"ha":417,"x_min":72,"x_max":344,"o":"m 72 1017 l 164 1017 l 125 753 l 111 753 l 72 1017 m 253 1017 l 344 1017 l 306 753 l 292 753 l 253 1017 z "},"#":{"ha":800,"x_min":21,"x_max":779,"o":"m 564 671 l 297 671 l 236 346 l 503 346 l 564 671 m 499 321 l 232 321 l 172 0 l 140 0 l 200 321 l 21 321 l 21 346 l 204 346 l 265 671 l 86 671 l 86 696 l 269 696 l 329 1017 l 361 1017 l 301 696 l 568 696 l 628 1017 l 660 1017 l 600 696 l 779 696 l 779 671 l 596 671 l 535 346 l 714 346 l 714 321 l 531 321 l 471 0 l 439 0 l 499 321 z "},"$":{"ha":726,"x_min":49,"x_max":692,"o":"m 622 803 l 611 799 q 428 1000 556 968 q 369 1008 399 1006 l 369 583 q 385 577 374 582 q 404 569 397 572 q 491 531 460 546 q 566 486 522 515 q 633 427 610 457 q 674 353 657 397 q 692 254 692 308 q 633 83 692 149 q 474 -6 574 17 q 369 -21 421 -19 l 369 -158 l 338 -158 l 338 -21 q 201 -6 258 -18 q 76 32 133 8 l 49 229 l 60 233 q 179 61 108 114 q 338 7 239 14 l 338 511 q 249 551 307 524 q 71 799 71 639 q 153 976 71 915 q 338 1036 225 1029 l 338 1142 l 369 1142 l 369 1038 q 594 996 489 1038 l 622 803 m 371 7 q 556 65 493 7 q 618 226 618 124 q 451 460 618 385 l 369 497 l 369 7 l 371 7 m 247 993 q 159 925 189 971 q 129 824 129 879 q 175 699 129 749 q 301 613 221 649 q 338 597 308 610 l 338 1010 q 247 993 285 1007 z "},"%":{"ha":1069,"x_min":42,"x_max":1028,"o":"m 257 481 q 104 561 167 481 q 42 760 42 642 q 104 957 42 876 q 257 1038 167 1038 q 412 957 349 1038 q 475 760 475 876 q 412 561 475 642 q 257 481 349 481 m 257 501 q 396 760 396 501 q 257 1017 396 1017 q 121 760 121 1017 q 257 501 121 501 m 810 -11 q 657 69 719 -11 q 594 268 594 150 q 657 465 594 385 q 810 546 719 546 q 965 465 901 546 q 1028 268 1028 385 q 965 69 1028 150 q 810 -11 901 -11 m 810 10 q 949 268 949 10 q 810 525 949 525 q 674 268 674 525 q 810 10 674 10 m 172 19 l 896 1032 l 919 1017 l 194 1 l 172 19 z "},"&":{"ha":1038,"x_min":56,"x_max":1031,"o":"m 832 -21 q 619 97 719 -21 q 350 -21 508 -21 q 132 58 208 -21 q 56 256 56 136 q 117 442 56 364 q 288 563 179 519 q 189 811 189 706 q 249 974 189 911 q 401 1038 310 1038 q 540 982 488 1038 q 592 842 592 926 q 532 683 592 753 q 364 574 472 613 q 460 449 378 554 q 564 303 500 396 q 657 172 628 210 q 756 369 721 261 q 792 539 792 478 q 774 590 792 574 q 707 614 757 607 l 707 619 l 960 619 l 960 614 q 869 565 900 600 q 815 461 842 531 q 802 424 814 457 q 786 380 790 390 q 770 340 782 369 q 750 293 758 310 q 728 250 742 276 q 701 201 715 224 q 669 157 686 179 q 763 69 719 99 q 861 40 807 40 q 1025 161 978 40 l 1031 158 q 832 -21 983 -21 m 244 842 q 270 725 244 782 q 356 586 296 668 q 494 685 444 621 q 543 835 543 749 q 506 961 543 910 q 397 1013 469 1013 q 288 967 331 1013 q 244 842 244 922 m 378 15 q 606 113 508 15 q 508 257 575 153 q 400 413 440 361 q 299 547 304 539 q 125 278 125 467 q 190 88 125 161 q 378 15 256 15 z "},"'":{"ha":236,"x_min":72,"x_max":164,"o":"m 72 1017 l 164 1017 l 125 753 l 111 753 l 72 1017 z "},"(":{"ha":378,"x_min":97,"x_max":357,"o":"m 346 -181 q 162 81 226 -75 q 97 433 97 238 q 162 786 97 629 q 346 1049 226 943 l 357 1035 q 164 433 164 806 q 357 -167 164 63 l 346 -181 z "},")":{"ha":378,"x_min":21,"x_max":281,"o":"m 21 -167 q 214 433 214 63 q 21 1035 214 806 l 32 1049 q 216 786 151 943 q 281 433 281 629 q 216 81 281 238 q 32 -181 151 -75 l 21 -167 z "},"*":{"ha":503,"x_min":63,"x_max":440,"o":"m 251 810 l 172 658 l 111 701 l 231 824 l 63 853 l 86 924 l 239 847 l 214 1017 l 289 1017 l 264 847 l 417 924 l 440 853 l 271 824 l 390 701 l 331 658 l 251 810 z "},"+":{"ha":739,"x_min":63,"x_max":676,"o":"m 385 414 l 385 122 l 354 122 l 354 414 l 63 414 l 63 442 l 354 442 l 354 733 l 385 733 l 385 442 l 676 442 l 676 414 l 385 414 z "},",":{"ha":283,"x_min":56,"x_max":215,"o":"m 56 -192 q 115 -114 92 -158 q 139 -32 139 -69 q 88 67 139 15 l 88 69 l 165 128 q 215 33 215 90 q 67 -206 215 -93 l 56 -192 z "},"-":{"ha":390,"x_min":42,"x_max":349,"o":"m 42 365 l 42 421 l 349 421 l 349 365 l 42 365 z "},".":{"ha":275,"x_min":72,"x_max":203,"o":"m 138 -4 q 92 15 111 -4 q 72 61 72 33 q 92 108 72 89 q 138 126 111 126 q 184 108 165 126 q 203 61 203 89 q 184 15 203 33 q 138 -4 165 -4 z "},"/":{"ha":560,"x_min":-28,"x_max":539,"o":"m 507 1085 l 539 1085 l 4 -181 l -28 -181 l 507 1085 z "},":":{"ha":275,"x_min":72,"x_max":203,"o":"m 138 443 q 92 462 111 443 q 72 508 72 481 q 92 555 72 536 q 138 574 111 574 q 184 555 165 574 q 203 508 203 536 q 184 462 203 481 q 138 443 165 443 m 138 -4 q 92 15 111 -4 q 72 61 72 33 q 92 108 72 89 q 138 126 111 126 q 184 108 165 126 q 203 61 203 89 q 184 15 203 33 q 138 -4 165 -4 z "},";":{"ha":275,"x_min":40,"x_max":203,"o":"m 40 -192 q 100 -114 76 -158 q 124 -32 124 -69 q 72 67 124 15 l 72 69 l 150 128 q 200 33 200 90 q 51 -206 200 -93 l 40 -192 m 138 443 q 92 462 111 443 q 72 508 72 481 q 92 555 72 536 q 138 574 111 574 q 184 555 165 574 q 203 508 203 536 q 184 462 203 481 q 138 443 165 443 z "},"<":{"ha":736,"x_min":63,"x_max":660,"o":"m 63 407 l 63 443 l 660 732 l 660 697 l 92 425 l 660 153 l 660 118 l 63 407 z "},"=":{"ha":739,"x_min":63,"x_max":676,"o":"m 63 526 l 63 554 l 676 554 l 676 526 l 63 526 m 63 329 l 63 357 l 676 357 l 676 329 l 63 329 z "},">":{"ha":736,"x_min":76,"x_max":674,"o":"m 76 118 l 76 153 l 644 425 l 76 697 l 76 732 l 674 443 l 674 407 l 76 118 z "},"?":{"ha":601,"x_min":63,"x_max":546,"o":"m 189 269 q 230 392 199 336 q 300 489 261 449 q 376 572 339 529 q 438 674 413 614 q 463 807 463 733 q 292 1013 463 1013 q 161 967 211 1013 q 72 818 111 921 l 63 821 l 89 993 q 299 1038 206 1038 q 481 978 417 1038 q 546 808 546 919 q 517 679 546 738 q 444 578 488 621 q 353 493 400 535 q 267 394 307 451 q 211 269 226 336 l 189 269 m 208 -4 q 163 15 182 -4 q 143 61 143 33 q 163 108 143 89 q 208 126 182 126 q 255 108 236 126 q 274 61 274 89 q 255 15 274 33 q 208 -4 236 -4 z "},"@":{"ha":1179,"x_min":56,"x_max":1124,"o":"m 574 -224 q 201 -87 346 -224 q 56 276 56 49 q 228 706 56 528 q 668 883 400 883 q 1001 770 878 883 q 1124 456 1124 657 q 1039 165 1124 286 q 819 44 954 44 q 688 115 718 44 q 685 285 657 186 l 694 321 q 575 115 644 197 q 436 32 506 32 q 358 69 386 32 q 329 181 329 107 q 442 488 329 349 q 696 628 554 628 q 794 604 758 628 l 833 628 l 839 628 l 749 289 q 734 134 718 197 q 828 71 750 71 q 1007 181 939 71 q 1075 450 1075 292 q 963 749 1075 643 q 664 856 851 856 q 269 687 421 856 q 118 276 118 518 q 244 -69 118 58 q 579 -196 371 -196 q 876 -112 757 -196 l 888 -135 q 574 -224 764 -224 m 467 86 q 536 115 501 86 q 603 197 571 143 q 658 294 636 250 q 707 399 681 338 l 747 556 q 663 601 718 601 q 478 469 558 601 q 399 199 399 338 q 467 86 399 86 z "},"A":{"ha":868,"x_min":7,"x_max":861,"o":"m 414 936 l 226 411 l 600 411 l 414 936 m 163 0 l 7 0 l 7 3 q 49 50 33 26 q 72 93 64 74 q 101 168 81 113 l 415 1029 l 453 1029 l 771 156 q 813 53 799 78 q 861 3 828 28 l 861 0 l 688 0 l 688 3 q 690 158 726 54 l 610 383 l 215 383 l 136 161 q 163 3 99 58 l 163 0 z "},"B":{"ha":801,"x_min":72,"x_max":769,"o":"m 72 0 l 72 3 q 117 81 106 49 q 128 172 128 114 l 128 844 q 117 935 128 903 q 72 1014 106 968 l 72 1017 q 285 1019 204 1017 q 393 1022 365 1022 q 724 788 724 1022 q 676 628 724 696 q 540 536 629 561 q 713 453 657 524 q 769 282 769 382 q 676 76 769 151 q 397 0 583 0 l 72 0 m 439 543 q 597 612 547 543 q 647 778 647 681 q 389 994 647 994 q 203 988 293 994 l 203 543 l 439 543 m 393 28 q 614 94 542 28 q 686 276 686 160 q 626 451 686 386 q 453 515 567 515 l 203 515 l 203 38 q 393 28 300 28 z "},"C":{"ha":1031,"x_min":56,"x_max":961,"o":"m 933 88 q 780 15 885 50 q 558 -21 675 -21 q 192 130 328 -21 q 56 510 56 281 q 203 888 56 738 q 594 1038 350 1038 q 928 968 774 1038 l 956 772 l 944 769 q 791 953 875 897 q 589 1010 707 1010 q 260 872 372 1010 q 147 510 147 733 q 253 146 147 285 q 564 7 360 7 q 803 81 714 7 q 950 303 892 154 l 961 300 l 933 88 z "},"D":{"ha":996,"x_min":72,"x_max":940,"o":"m 72 3 q 117 95 106 57 q 128 203 128 133 l 128 814 q 117 922 128 883 q 72 1014 106 960 l 72 1017 q 266 1019 164 1017 q 463 1022 368 1022 q 814 890 688 1022 q 940 513 940 757 q 810 132 940 264 q 435 0 679 0 l 72 0 l 72 3 m 203 996 l 203 26 l 421 28 q 747 144 646 28 q 849 493 849 260 q 749 871 849 749 q 449 994 650 993 l 203 996 z "},"E":{"ha":813,"x_min":72,"x_max":792,"o":"m 729 0 l 72 0 l 72 3 q 126 160 126 85 l 126 857 q 72 1014 126 932 l 72 1017 l 660 1017 l 714 815 l 703 811 q 581 967 613 940 q 544 985 560 983 l 203 993 l 203 525 l 426 525 q 459 542 443 525 q 498 598 475 558 q 525 643 521 638 l 536 643 l 536 386 l 525 386 q 508 413 519 394 q 489 442 497 431 q 469 469 481 454 q 447 490 458 483 q 426 497 436 497 l 203 497 l 203 24 l 554 33 q 665 83 615 36 q 781 229 715 131 l 792 225 l 729 0 z "},"F":{"ha":736,"x_min":72,"x_max":715,"o":"m 260 0 l 72 0 l 72 3 q 117 77 106 44 q 128 164 128 110 l 128 853 q 117 940 128 907 q 72 1014 106 972 l 72 1017 l 672 1017 l 715 815 l 704 811 q 668 861 692 828 q 632 910 644 894 q 602 947 619 926 q 572 976 585 968 q 546 985 558 985 l 204 993 l 204 539 l 428 539 q 460 556 444 539 q 499 612 476 572 q 526 657 522 651 l 538 657 l 538 400 l 526 400 q 510 426 521 408 q 490 456 499 444 q 471 483 482 468 q 449 504 460 497 q 428 511 438 511 l 204 511 l 204 164 q 215 76 204 107 q 260 3 225 46 l 260 0 z "},"G":{"ha":1114,"x_min":56,"x_max":1067,"o":"m 1011 126 q 987 110 1010 126 q 956 89 964 93 q 922 69 947 85 q 880 46 896 53 q 835 26 864 39 q 782 6 807 13 q 725 -8 757 0 q 658 -18 693 -15 q 588 -21 624 -21 q 201 130 346 -21 q 56 508 56 281 q 208 887 56 736 q 613 1038 360 1038 q 968 971 800 1038 l 997 772 l 986 768 q 840 952 931 894 q 600 1010 750 1010 q 263 869 378 1010 q 147 507 147 729 q 255 144 147 281 q 588 7 363 7 q 844 64 747 7 q 942 228 942 121 q 928 380 942 333 q 878 458 915 426 l 878 461 l 1067 461 l 1067 458 q 1022 386 1033 425 q 1011 265 1011 347 l 1011 126 z "},"H":{"ha":989,"x_min":72,"x_max":917,"o":"m 72 3 q 117 81 106 49 q 128 172 128 114 l 128 844 q 117 935 128 903 q 72 1014 106 968 l 72 1017 l 258 1017 l 258 1014 q 214 935 225 968 q 203 844 203 903 l 203 539 l 786 539 l 786 844 q 775 935 786 903 q 731 1014 764 968 l 731 1017 l 917 1017 l 917 1014 q 872 935 883 968 q 861 844 861 903 l 861 172 q 872 81 861 114 q 917 3 883 49 l 917 0 l 731 0 l 731 3 q 775 81 764 49 q 786 172 786 114 l 786 511 l 203 511 l 203 172 q 214 81 203 114 q 258 3 225 49 l 258 0 l 72 0 l 72 3 z "},"I":{"ha":331,"x_min":72,"x_max":260,"o":"m 74 3 q 117 79 107 47 q 128 172 128 111 l 128 844 q 117 935 128 903 q 72 1014 106 968 l 72 1017 l 258 1017 l 258 1014 q 214 935 225 968 q 203 844 203 903 l 203 172 q 214 81 203 114 q 260 3 225 49 l 258 0 l 72 0 l 74 3 z "},"J":{"ha":493,"x_min":40,"x_max":435,"o":"m 379 164 q 333 27 379 75 q 201 -21 288 -21 q 65 10 131 -21 l 40 183 l 51 188 q 225 7 139 7 q 304 142 304 7 l 304 844 q 293 935 304 903 q 249 1014 282 968 l 249 1017 l 435 1017 l 435 1014 q 390 935 401 968 q 379 844 379 903 l 379 164 z "},"K":{"ha":839,"x_min":72,"x_max":825,"o":"m 74 3 q 117 79 107 47 q 128 172 128 111 l 128 844 q 117 935 128 903 q 72 1014 106 968 l 72 1017 l 258 1017 l 258 1014 q 214 935 225 968 q 203 844 203 903 l 203 172 q 214 81 203 114 q 260 3 225 49 l 258 0 l 72 0 l 74 3 m 686 0 l 253 529 l 568 863 q 571 1014 644 943 l 571 1017 l 800 1017 l 800 1014 q 715 964 753 992 q 662 921 676 936 q 610 865 647 906 l 322 561 l 647 164 q 746 54 714 83 q 824 3 778 25 l 825 0 l 686 0 z "},"L":{"ha":751,"x_min":72,"x_max":731,"o":"m 72 0 l 72 3 q 117 81 106 49 q 128 172 128 114 l 128 844 q 117 935 128 903 q 72 1014 106 968 l 72 1017 l 258 1017 l 258 1014 q 214 935 225 968 q 203 844 203 903 l 203 24 l 492 33 q 610 82 558 36 q 719 229 661 128 l 731 225 l 667 0 l 72 0 z "},"M":{"ha":1171,"x_min":43,"x_max":1128,"o":"m 54 0 l 54 3 q 113 91 99 54 q 128 194 128 128 l 128 881 q 106 953 124 926 q 43 1014 89 981 l 43 1017 l 196 1017 l 590 135 l 988 1017 l 1128 1017 l 1128 1014 q 1060 944 1076 976 q 1043 843 1043 913 l 1043 176 q 1053 82 1043 115 q 1099 3 1064 49 l 1099 0 l 914 0 l 914 3 q 959 83 947 49 q 971 176 971 118 l 971 908 l 575 31 l 554 31 l 156 913 l 160 194 q 179 90 160 128 q 260 3 199 53 l 260 0 l 54 0 z "},"N":{"ha":994,"x_min":17,"x_max":939,"o":"m 154 878 l 160 192 q 178 89 160 126 q 257 3 197 51 l 257 0 l 58 0 l 58 3 q 115 88 101 50 q 128 192 128 126 l 128 908 q 17 1014 75 983 l 17 1017 l 140 1017 l 842 136 l 838 825 q 822 928 838 890 q 754 1014 806 967 l 754 1017 l 939 1017 l 939 1014 q 883 928 896 965 q 869 825 869 892 l 869 0 l 857 -4 l 154 878 z "},"O":{"ha":1126,"x_min":56,"x_max":1071,"o":"m 925 131 q 852 55 925 131 q 563 -21 779 -21 q 201 131 346 -21 q 56 507 56 282 q 201 885 56 732 q 563 1038 346 1038 q 925 885 779 1038 q 1071 507 1071 732 q 925 131 1071 282 m 260 148 q 317 77 260 148 q 563 7 374 7 q 865 147 751 7 q 979 507 979 288 q 865 867 979 725 q 563 1010 751 1010 q 260 868 374 1010 q 147 507 147 726 q 260 148 147 289 z "},"P":{"ha":760,"x_min":72,"x_max":732,"o":"m 72 3 q 117 81 106 49 q 128 172 128 114 l 128 844 q 117 935 128 903 q 72 1014 106 968 l 72 1017 l 410 1017 q 658 940 583 1017 q 732 742 732 864 q 642 515 732 600 q 390 431 553 431 l 203 431 l 203 172 q 214 81 203 114 q 258 3 225 49 l 258 0 l 72 0 l 72 3 m 390 989 q 203 985 299 989 l 203 458 l 389 458 q 589 534 524 458 q 654 742 654 610 q 633 866 654 815 q 574 942 613 917 q 492 978 535 968 q 390 989 449 989 z "},"Q":{"ha":1126,"x_min":56,"x_max":1128,"o":"m 722 -124 q 1128 -131 943 -219 l 1093 -204 q 943 -236 1044 -236 q 783 -211 857 -236 q 658 -147 708 -186 q 581 -78 608 -107 q 535 -19 554 -49 q 361 19 440 -15 q 139 210 222 79 q 56 507 56 340 q 201 885 56 732 q 563 1038 346 1038 q 925 885 779 1038 q 1071 507 1071 732 q 988 210 1071 340 q 764 19 904 79 q 567 -21 675 -18 q 722 -124 643 -87 m 260 148 q 317 77 260 148 q 563 7 374 7 q 865 147 751 7 q 979 507 979 288 q 865 867 979 725 q 563 1010 751 1010 q 260 868 374 1010 q 147 507 147 726 q 260 148 147 289 z "},"R":{"ha":858,"x_min":72,"x_max":844,"o":"m 72 0 l 72 3 q 117 81 106 49 q 128 172 128 114 l 128 844 q 117 935 128 903 q 72 1014 106 968 l 72 1017 l 429 1017 q 644 953 575 1017 q 714 778 714 890 q 666 596 714 674 q 522 492 618 518 l 693 171 q 764 60 731 97 q 844 3 797 22 l 844 0 l 699 0 l 444 479 l 203 479 l 203 172 q 214 81 203 114 q 258 3 225 49 l 258 0 l 72 0 m 415 989 l 335 989 q 203 988 254 989 l 203 507 l 417 507 q 582 583 529 507 q 635 776 635 658 q 585 934 635 879 q 415 989 536 989 z "},"S":{"ha":740,"x_min":49,"x_max":692,"o":"m 622 803 l 611 799 q 347 1010 540 1010 q 183 956 238 1010 q 129 824 129 901 q 147 736 129 774 q 210 667 164 699 q 284 622 257 636 q 382 579 311 608 q 404 569 397 572 q 491 531 460 546 q 566 486 522 515 q 633 427 610 457 q 674 353 657 397 q 692 254 692 308 q 593 47 692 114 q 343 -21 494 -21 q 76 32 203 -21 l 49 229 l 60 233 q 180 60 107 114 q 371 7 253 7 q 556 65 493 7 q 618 226 618 124 q 602 315 618 275 q 567 378 586 354 q 503 430 547 403 q 435 469 460 457 q 353 506 410 481 q 282 537 304 526 q 219 569 260 547 q 158 610 178 590 q 114 658 138 629 q 81 721 90 686 q 71 799 71 756 q 151 976 71 914 q 369 1038 232 1038 q 594 996 489 1038 l 622 803 z "},"T":{"ha":881,"x_min":21,"x_max":860,"o":"m 533 0 l 347 0 l 347 3 q 392 79 382 46 q 403 172 403 113 l 403 992 l 190 986 q 32 775 150 986 l 21 779 l 75 1017 l 806 1017 l 860 779 l 849 775 q 817 828 839 792 q 782 886 796 864 q 751 935 768 908 q 718 974 733 961 q 690 986 703 986 l 478 992 l 478 172 q 489 81 478 114 q 533 3 500 49 l 533 0 z "},"U":{"ha":950,"x_min":56,"x_max":925,"o":"m 490 -21 q 217 66 324 -21 q 111 331 111 153 l 111 840 q 101 935 111 901 q 56 1014 90 968 l 56 1017 l 242 1017 l 242 1014 q 186 840 186 940 l 186 335 q 274 88 186 167 q 503 10 361 10 q 739 103 668 10 q 810 347 810 197 l 810 822 q 790 926 810 889 q 710 1014 771 964 l 710 1017 l 925 1017 l 925 1014 q 856 926 872 964 q 839 822 839 889 l 839 349 q 821 207 839 271 q 764 90 803 143 q 655 8 725 38 q 490 -21 585 -21 z "},"V":{"ha":867,"x_min":0,"x_max":867,"o":"m 414 -11 l 100 858 q 55 957 75 925 q 0 1014 35 989 l 0 1017 l 204 1017 l 204 1014 q 173 951 181 990 q 182 854 165 911 l 454 88 l 711 806 q 682 1014 757 928 l 682 1017 l 867 1017 l 867 1014 q 801 942 822 979 q 747 813 781 904 l 451 -11 l 414 -11 z "},"W":{"ha":1318,"x_min":14,"x_max":1304,"o":"m 357 -12 l 96 861 q 59 964 72 939 q 14 1014 46 989 l 14 1017 l 207 1017 l 207 1014 q 197 1001 206 1013 q 185 983 189 989 q 174 963 181 978 q 167 934 168 947 q 167 901 165 921 q 176 858 169 881 l 399 111 l 635 772 l 604 861 q 562 962 578 935 q 513 1014 546 989 l 513 1017 l 717 1017 l 717 1014 l 696 993 q 683 858 653 950 l 942 104 l 1151 813 q 1119 1014 1183 932 l 1119 1017 l 1304 1017 l 1304 1014 q 1234 940 1257 979 q 1185 813 1211 900 l 939 -12 l 901 -12 l 651 724 l 394 -12 l 357 -12 z "},"X":{"ha":850,"x_min":7,"x_max":843,"o":"m 196 0 l 7 0 l 7 3 q 94 74 60 36 q 179 190 128 113 l 390 528 l 169 881 q 108 966 133 938 q 49 1014 83 994 l 49 1017 l 258 1017 l 258 1014 q 251 888 192 982 l 443 582 l 606 826 q 667 951 667 917 q 613 1014 668 986 l 613 1017 l 801 1017 l 801 1014 q 764 988 781 1001 q 731 955 747 975 q 707 923 715 935 q 677 878 699 911 q 643 826 656 844 l 460 554 l 722 136 q 783 51 758 79 q 843 3 808 22 l 843 0 l 633 0 l 633 3 q 640 129 700 35 l 408 499 l 217 190 q 169 113 182 136 q 150 66 156 90 q 156 29 144 42 q 196 3 168 17 l 196 0 z "},"Y":{"ha":792,"x_min":0,"x_max":792,"o":"m 299 3 q 343 68 332 38 q 354 147 354 99 l 354 475 l 119 879 q 0 1014 60 981 l 0 1017 l 215 1017 l 215 1014 q 203 888 149 983 l 419 513 l 607 826 q 644 914 638 876 q 639 972 650 951 q 603 1014 628 993 l 603 1017 l 792 1017 l 792 1014 q 764 996 776 1004 q 739 974 751 988 q 720 953 726 960 q 700 926 714 947 q 683 900 686 906 q 661 865 679 894 q 639 826 643 835 l 429 478 l 429 147 q 440 69 429 97 q 485 3 450 40 l 485 0 l 299 0 l 299 3 z "},"Z":{"ha":844,"x_min":42,"x_max":803,"o":"m 42 0 l 42 15 l 688 994 l 322 983 q 197 929 251 981 q 85 774 142 878 l 74 778 l 139 1017 l 783 1017 l 783 1001 l 139 21 l 554 33 q 792 251 685 39 l 803 247 l 735 0 l 42 0 z "},"[":{"ha":415,"x_min":139,"x_max":394,"o":"m 139 1049 l 394 1049 l 394 1024 l 206 1024 l 206 -156 l 394 -156 l 394 -181 l 139 -181 l 139 1049 z "},"\\":{"ha":560,"x_min":21,"x_max":588,"o":"m 556 -181 l 21 1085 l 53 1085 l 588 -181 l 556 -181 z "},"]":{"ha":415,"x_min":21,"x_max":276,"o":"m 276 -181 l 21 -181 l 21 -156 l 210 -156 l 210 1024 l 21 1024 l 21 1049 l 276 1049 l 276 -181 z "},"^":{"ha":572,"x_min":42,"x_max":531,"o":"m 286 918 l 54 672 l 42 683 l 282 1035 l 290 1035 l 531 683 l 518 672 l 286 918 z "},"_":{"ha":681,"x_min":42,"x_max":639,"o":"m 42 -139 l 42 -114 l 639 -114 l 639 -139 l 42 -139 z "},"`":{"ha":436,"x_min":81,"x_max":329,"o":"m 319 740 l 81 988 l 149 1040 l 329 749 l 319 740 z "},"a":{"ha":644,"x_min":54,"x_max":631,"o":"m 250 29 q 436 101 364 29 l 436 347 q 288 315 354 338 q 173 246 221 292 q 125 140 125 200 q 156 59 125 89 q 250 29 188 29 m 525 -17 q 460 9 482 -17 q 436 78 438 35 q 217 -21 343 -21 q 98 17 142 -21 q 54 121 54 54 q 91 226 54 179 q 187 301 128 272 q 308 347 246 329 q 436 369 371 364 l 436 497 q 279 639 436 639 q 85 578 174 639 l 78 588 q 319 681 171 681 q 465 635 425 681 q 506 511 506 589 l 506 92 q 560 32 506 32 q 626 65 593 32 l 631 63 q 525 -17 600 -17 z "},"b":{"ha":736,"x_min":25,"x_max":681,"o":"m 343 -21 q 133 61 207 -21 l 100 0 l 86 0 l 86 935 q 25 1021 86 989 l 25 1024 l 156 1082 l 156 563 l 160 563 q 388 681 232 681 q 599 590 517 681 q 681 349 681 499 q 592 88 681 196 q 343 -21 504 -21 m 360 4 q 532 94 464 4 q 600 335 600 185 q 530 554 600 475 q 350 633 460 633 q 236 603 290 632 q 156 533 182 574 l 156 235 q 214 63 156 121 q 360 4 272 4 z "},"c":{"ha":664,"x_min":56,"x_max":615,"o":"m 615 154 q 519 26 589 74 q 356 -21 450 -21 q 139 70 222 -21 q 56 311 56 161 q 158 580 56 479 q 404 681 260 681 q 590 635 490 681 l 600 504 l 592 501 q 497 620 543 585 q 381 656 451 656 q 199 574 267 656 q 132 349 132 493 q 196 127 132 211 q 379 43 260 43 q 510 72 447 43 q 608 157 574 101 l 615 154 z "},"d":{"ha":754,"x_min":56,"x_max":711,"o":"m 375 26 q 581 147 504 26 l 581 461 q 528 611 581 567 q 400 656 475 656 q 210 564 285 656 q 136 331 136 472 q 203 109 136 192 q 375 26 269 26 m 582 119 q 335 -21 504 -21 q 132 67 208 -21 q 56 306 56 156 q 158 569 56 458 q 419 681 260 681 q 581 643 513 681 l 581 935 q 519 1021 581 989 l 519 1024 l 650 1082 l 650 149 q 662 65 650 86 q 711 28 674 43 l 711 25 l 588 -17 l 588 119 l 582 119 z "},"e":{"ha":664,"x_min":56,"x_max":619,"o":"m 361 656 q 215 598 274 656 q 139 435 157 540 l 524 443 l 524 451 q 361 656 524 656 m 615 154 q 519 26 589 74 q 354 -21 450 -21 q 138 73 219 -21 q 56 319 56 167 q 146 580 56 479 q 365 681 236 681 q 550 601 481 681 q 611 414 619 521 l 136 414 q 132 350 132 385 q 196 127 132 211 q 379 43 260 43 q 511 72 449 43 q 608 157 574 100 l 615 154 z "},"f":{"ha":404,"x_min":51,"x_max":439,"o":"m 106 3 q 139 193 139 56 l 139 635 l 51 635 l 51 660 l 139 660 l 139 797 q 192 1007 139 932 q 340 1082 244 1082 q 422 1063 397 1082 l 439 951 l 431 949 q 364 1032 388 1010 q 308 1054 340 1054 q 236 1003 264 1054 q 208 858 208 953 l 208 660 l 372 660 l 372 635 l 208 635 l 208 193 q 240 3 208 60 l 240 0 l 106 0 l 106 3 z "},"g":{"ha":663,"x_min":21,"x_max":642,"o":"m 188 303 q 210 273 188 303 q 311 243 232 243 q 434 303 390 243 q 478 449 478 363 q 435 596 478 536 q 310 656 392 656 q 186 595 228 656 q 144 449 144 535 q 188 303 144 364 m 136 6 q 103 -52 117 -12 q 90 -128 90 -92 q 156 -247 90 -206 q 336 -287 222 -287 q 515 -247 450 -287 q 579 -133 579 -207 q 375 -1 579 -8 l 221 1 q 151 8 183 1 q 51 107 51 31 q 96 196 51 163 q 204 243 140 229 q 104 326 142 271 q 67 449 67 382 q 138 611 67 542 q 310 681 210 681 q 474 621 406 681 l 639 696 l 642 694 l 642 606 l 636 606 l 488 608 q 556 449 556 540 q 483 286 556 354 q 311 218 411 218 q 222 235 264 218 q 117 133 117 201 q 238 67 117 72 l 397 61 q 580 10 521 56 q 639 -108 639 -36 q 550 -256 639 -200 q 313 -312 461 -312 q 100 -267 179 -312 q 21 -146 21 -222 q 56 -59 21 -101 q 136 6 92 -17 m 160 1 q 160 1 151 -3 z "},"h":{"ha":718,"x_min":44,"x_max":650,"o":"m 75 0 l 75 3 q 106 165 106 60 l 106 917 q 44 1021 106 981 l 44 1024 l 175 1082 l 175 560 q 425 681 278 681 q 570 627 521 681 q 619 478 619 574 l 619 167 q 624 68 619 101 q 650 3 629 35 l 650 0 l 519 0 l 519 3 q 550 165 550 60 l 550 463 q 394 626 550 626 q 175 535 265 626 l 175 165 q 180 69 175 103 q 206 3 185 36 l 206 0 l 75 0 z "},"i":{"ha":274,"x_min":44,"x_max":206,"o":"m 176 956 q 185 947 176 956 q 193 915 193 939 q 176 875 193 892 q 136 858 160 858 q 96 875 113 858 q 79 915 79 892 q 96 956 79 939 q 136 972 113 972 q 176 956 160 972 m 75 3 q 106 165 106 60 l 106 510 q 44 613 106 572 l 44 615 l 175 688 l 175 167 q 180 69 175 103 q 206 3 185 36 l 206 0 l 75 0 l 75 3 z "},"j":{"ha":264,"x_min":15,"x_max":193,"o":"m 176 956 q 185 947 176 956 q 193 915 193 939 q 176 875 193 892 q 136 858 160 858 q 96 875 113 858 q 79 915 79 892 q 96 956 79 939 q 136 972 113 972 q 176 956 160 972 m 15 -292 q 85 -225 64 -265 q 106 -97 106 -185 l 106 510 q 44 613 106 572 l 44 615 l 175 688 l 172 -78 q 135 -238 172 -187 q 18 -299 99 -289 l 15 -292 z "},"k":{"ha":607,"x_min":44,"x_max":593,"o":"m 75 3 q 106 165 106 60 l 106 935 q 44 1021 106 989 l 44 1024 l 175 1082 l 175 167 q 181 70 175 104 q 206 3 186 36 l 206 0 l 75 0 l 75 3 m 468 0 l 210 346 l 407 569 q 394 657 453 625 l 394 660 l 556 660 l 556 657 q 488 619 508 636 q 431 558 467 601 l 274 381 l 463 128 q 531 49 504 75 q 593 3 558 22 l 593 0 l 468 0 z "},"l":{"ha":274,"x_min":44,"x_max":206,"o":"m 75 3 q 106 165 106 60 l 106 935 q 44 1021 106 989 l 44 1024 l 175 1082 l 175 167 q 181 70 175 104 q 206 3 186 36 l 206 0 l 75 0 l 75 3 z "},"m":{"ha":1039,"x_min":44,"x_max":971,"o":"m 207 0 l 75 0 l 75 3 q 107 163 107 58 l 107 506 q 44 614 107 572 l 44 617 l 171 690 l 171 561 l 176 560 q 400 681 260 681 q 554 558 528 681 l 558 557 q 783 681 646 681 q 904 633 868 681 q 940 492 940 585 l 940 164 q 946 68 940 101 q 971 3 951 35 l 971 0 l 840 0 l 840 3 q 871 163 871 56 l 871 478 q 844 588 871 549 q 747 626 818 626 q 558 532 644 626 l 558 164 q 564 68 558 101 q 590 3 569 35 l 590 0 l 458 0 l 458 3 q 489 163 489 56 l 489 478 q 463 588 489 549 q 364 626 436 626 q 176 535 260 626 l 176 164 q 207 3 176 53 l 207 0 z "},"n":{"ha":718,"x_min":44,"x_max":650,"o":"m 206 0 l 75 0 l 75 3 q 106 165 106 60 l 106 508 q 44 613 106 572 l 44 615 l 169 688 l 169 561 l 175 560 q 425 681 278 681 q 570 627 521 681 q 619 478 619 574 l 619 167 q 624 68 619 101 q 650 3 629 35 l 650 0 l 519 0 l 519 3 q 550 165 550 60 l 550 463 q 394 626 550 626 q 175 535 258 626 l 175 167 q 180 69 175 103 q 206 3 185 36 l 206 0 z "},"o":{"ha":781,"x_min":49,"x_max":732,"o":"m 631 81 q 581 30 631 81 q 390 -21 531 -21 q 149 81 250 -21 q 49 329 49 183 q 149 578 49 475 q 390 681 250 681 q 631 578 531 681 q 732 329 732 475 q 631 81 732 183 m 201 96 q 234 50 201 96 q 390 4 267 4 q 580 96 514 4 q 646 329 646 188 q 578 563 646 471 q 390 656 511 656 q 202 563 269 656 q 135 329 135 471 q 201 96 135 188 z "},"p":{"ha":756,"x_min":44,"x_max":700,"o":"m 363 4 q 549 94 478 4 q 619 333 619 183 q 550 553 619 474 q 376 633 481 633 q 258 603 313 633 q 175 533 203 574 l 175 96 q 363 4 243 4 m 75 -312 l 75 -310 q 106 -147 106 -253 l 106 508 q 44 613 106 572 l 44 615 l 169 688 l 169 564 l 179 563 q 407 681 251 681 q 618 590 536 681 q 700 349 700 499 q 664 169 700 251 q 548 33 628 88 q 356 -21 468 -21 q 175 33 249 -21 l 175 -146 q 180 -243 175 -210 q 206 -310 185 -276 l 206 -312 l 75 -312 z "},"q":{"ha":740,"x_min":56,"x_max":681,"o":"m 549 -310 q 581 -147 581 -251 l 581 117 q 335 -21 504 -21 q 132 67 208 -21 q 56 306 56 156 q 158 569 56 458 q 419 681 260 681 q 596 633 526 681 l 647 676 l 650 676 l 650 -146 q 655 -243 650 -210 q 681 -310 660 -276 l 681 -312 l 549 -312 l 549 -310 m 375 26 q 581 147 504 26 l 581 461 q 528 611 581 567 q 400 656 476 656 q 210 564 285 656 q 136 331 136 472 q 203 109 136 192 q 375 26 269 26 z "},"r":{"ha":429,"x_min":44,"x_max":401,"o":"m 75 3 q 106 165 106 60 l 106 508 q 44 613 106 572 l 44 615 l 169 688 l 169 519 l 176 518 q 224 569 189 531 q 278 626 258 608 q 332 663 297 644 q 401 681 367 681 l 401 569 l 399 569 q 297 590 364 590 q 175 486 265 590 l 175 167 q 180 69 175 103 q 206 3 185 36 l 206 0 l 75 0 l 75 3 z "},"s":{"ha":521,"x_min":44,"x_max":486,"o":"m 449 532 l 438 529 q 359 628 401 600 q 261 656 317 656 q 153 622 194 656 q 113 533 113 589 q 124 478 113 501 q 167 437 136 456 q 217 409 197 418 q 289 381 238 400 q 361 349 333 363 q 422 310 389 335 q 470 250 454 285 q 486 169 486 215 q 424 30 486 81 q 242 -21 361 -21 q 58 19 142 -21 l 44 161 l 56 164 q 139 42 90 81 q 261 4 188 4 q 385 44 342 4 q 429 146 429 85 q 384 243 429 208 q 254 308 339 278 q 183 338 211 324 q 122 374 154 351 q 72 431 89 397 q 56 507 56 464 q 122 639 56 597 q 285 681 189 681 q 435 656 374 681 l 449 532 z "},"t":{"ha":443,"x_min":43,"x_max":408,"o":"m 257 -21 q 158 15 199 -21 q 118 132 118 50 l 118 635 l 43 635 l 43 638 l 185 761 l 188 761 l 188 660 l 393 660 l 393 635 l 188 635 l 188 129 q 289 22 188 22 q 406 51 351 22 l 408 46 q 257 -21 342 -21 z "},"u":{"ha":681,"x_min":28,"x_max":628,"o":"m 503 103 q 271 -21 406 -21 q 134 31 182 -21 q 86 174 86 82 l 86 568 q 28 657 86 626 l 28 660 l 156 660 l 156 196 q 300 33 156 33 q 496 121 411 33 l 496 568 q 435 657 496 629 l 435 660 l 565 660 l 565 154 q 578 69 565 92 q 628 31 592 46 l 628 28 l 503 -17 l 503 103 z "},"v":{"ha":572,"x_min":0,"x_max":579,"o":"m 82 515 q 0 657 42 625 l 0 660 l 163 660 l 163 657 q 156 513 115 614 l 310 106 l 458 501 q 442 657 503 619 l 442 660 l 579 660 l 579 657 q 529 604 547 632 q 490 513 511 576 l 292 -7 l 283 -7 l 82 515 z "},"w":{"ha":883,"x_min":14,"x_max":876,"o":"m 256 -8 l 90 517 q 14 657 56 624 l 14 660 l 169 660 l 169 657 q 154 610 157 643 q 164 524 151 576 l 282 115 l 429 515 l 429 517 q 354 657 389 635 l 354 660 l 503 660 l 503 657 q 508 507 472 619 l 636 117 l 758 500 q 739 657 797 621 l 739 660 l 876 660 l 876 657 q 828 606 844 633 q 792 513 811 578 l 621 -8 l 613 -8 l 443 478 l 264 -8 l 256 -8 z "},"x":{"ha":588,"x_min":7,"x_max":574,"o":"m 154 0 l 7 0 l 7 3 q 55 36 42 26 q 86 66 68 46 q 125 117 104 86 l 258 328 l 140 518 q 21 657 75 621 l 21 660 l 183 660 l 183 657 q 171 632 174 644 q 174 603 168 619 q 189 570 181 586 q 217 525 197 554 l 307 378 l 407 538 q 413 657 456 614 l 413 660 l 560 660 l 560 657 q 512 624 525 633 q 481 594 499 614 q 442 543 463 574 l 322 354 l 454 142 q 574 3 519 39 l 574 0 l 411 0 l 411 3 q 424 28 421 15 q 420 57 426 40 q 406 90 414 74 q 378 135 397 106 l 274 303 l 160 122 q 154 3 110 47 l 154 0 z "},"y":{"ha":572,"x_min":0,"x_max":579,"o":"m 28 -236 q 93 -223 57 -236 q 173 -171 129 -210 q 239 -74 217 -132 l 274 17 l 82 515 q 0 657 42 625 l 0 660 l 163 660 l 163 657 q 156 513 118 617 l 308 107 l 458 501 q 442 657 503 619 l 442 660 l 579 660 l 579 657 q 532 608 547 633 q 490 513 517 582 l 250 -112 q 158 -258 211 -212 q 31 -312 106 -304 l 28 -236 z "},"z":{"ha":572,"x_min":28,"x_max":531,"o":"m 28 0 l 28 10 l 442 636 l 231 631 q 113 563 171 631 l 75 517 l 68 519 l 114 660 l 529 660 l 529 649 l 117 24 l 350 28 q 440 56 407 28 q 524 156 472 83 l 531 153 l 482 0 l 28 0 z "},"{":{"ha":393,"x_min":42,"x_max":372,"o":"m 324 -181 q 176 -137 228 -181 q 125 -14 125 -93 q 163 139 125 35 q 201 304 201 243 q 58 421 201 421 l 42 421 l 42 447 l 58 447 q 201 564 201 447 q 163 729 201 625 q 125 882 125 833 q 176 1005 125 961 q 324 1049 228 1049 l 372 1049 l 372 1024 l 324 1024 q 231 994 265 1024 q 197 883 197 965 q 222 740 197 849 q 247 572 247 631 q 114 436 247 450 l 114 432 q 247 296 247 418 q 222 128 247 238 q 197 -15 197 19 q 231 -126 197 -97 q 324 -156 265 -156 l 372 -156 l 372 -181 l 324 -181 z "},"|":{"ha":285,"x_min":126,"x_max":158,"o":"m 126 -181 l 126 1085 l 158 1085 l 158 -181 l 126 -181 z "},"}":{"ha":393,"x_min":21,"x_max":351,"o":"m 21 -181 l 21 -156 l 69 -156 q 162 -126 128 -156 q 196 -15 196 -97 q 171 128 196 19 q 146 296 146 238 q 279 432 146 418 l 279 436 q 146 572 146 450 q 171 740 146 631 q 196 883 196 849 q 162 994 196 965 q 69 1024 128 1024 l 21 1024 l 21 1049 l 69 1049 q 217 1005 165 1049 q 268 882 268 961 q 230 729 268 833 q 192 564 192 625 q 335 447 192 447 l 351 447 l 351 421 l 335 421 q 192 304 192 421 q 230 139 192 243 q 268 -14 268 35 q 217 -137 268 -93 q 69 -181 165 -181 l 21 -181 z "},"~":{"ha":628,"x_min":51,"x_max":576,"o":"m 186 456 q 319 415 219 456 q 471 375 419 375 q 532 395 511 375 q 565 460 553 415 l 576 457 q 569 412 575 433 q 549 365 563 390 q 509 326 536 340 q 446 311 482 311 q 299 351 403 311 q 160 392 194 392 q 64 304 83 392 l 51 307 q 88 408 56 361 q 186 456 119 456 z "}," ":{"ha":208,"x_min":0,"x_max":0,"o":""},"¡":{"ha":297,"x_min":83,"x_max":214,"o":"m 189 -340 l 110 -340 l 110 -337 l 139 407 l 158 407 l 189 -337 l 189 -340 m 149 681 q 195 662 176 681 q 214 615 214 643 q 195 569 214 588 q 149 550 176 550 q 103 569 122 550 q 83 615 83 588 q 103 662 83 643 q 149 681 122 681 z "},"¢":{"ha":664,"x_min":56,"x_max":615,"o":"m 615 154 q 519 26 588 74 q 368 -21 456 -17 l 368 -158 l 336 -158 l 336 -21 q 235 3 285 -17 q 103 118 151 38 q 56 311 56 199 q 115 528 56 438 q 271 656 175 618 q 336 674 299 667 l 336 774 l 368 774 l 368 679 q 404 681 381 681 q 590 635 490 681 l 600 504 l 592 501 q 497 620 543 585 q 381 656 451 656 l 368 656 l 368 43 l 379 43 q 510 72 447 43 q 608 157 574 101 l 615 154 m 200 575 q 132 349 132 497 q 271 65 132 136 q 336 46 296 53 l 336 651 q 200 575 253 639 z "},"£":{"ha":740,"x_min":21,"x_max":733,"o":"m 649 0 l 21 0 l 21 11 q 96 72 72 50 q 145 132 119 93 q 182 224 171 171 q 200 363 193 278 l 211 497 l 96 497 l 101 522 l 214 522 l 225 656 q 310 943 242 849 q 485 1038 379 1038 q 629 996 565 1038 l 657 803 l 646 799 q 453 1010 572 1010 q 368 942 400 1010 q 310 681 336 875 l 289 522 l 486 522 l 481 497 l 285 497 l 271 394 q 204 163 251 242 q 107 63 157 85 l 481 63 q 617 95 571 63 q 722 229 663 128 l 733 225 l 649 0 z "},"¥":{"ha":750,"x_min":0,"x_max":750,"o":"m 278 3 q 322 68 311 38 q 333 147 333 99 l 333 265 l 83 265 l 83 290 l 333 290 l 333 449 l 83 449 l 83 474 l 325 474 l 119 879 q 66 963 93 933 q 0 1014 39 992 l 0 1017 l 215 1017 l 215 1014 q 203 888 156 986 l 397 499 l 565 826 q 601 948 604 913 q 561 1014 597 983 l 561 1017 l 750 1017 l 750 1014 q 667 945 697 983 q 597 826 638 907 l 415 474 l 658 474 l 658 449 l 408 449 l 408 290 l 658 290 l 658 265 l 408 265 l 408 147 q 419 69 408 97 q 464 3 429 40 l 464 0 l 278 0 l 278 3 z "},"¦":{"ha":285,"x_min":126,"x_max":158,"o":"m 126 507 l 126 1085 l 158 1085 l 158 507 l 126 507 m 126 -181 l 126 396 l 158 396 l 158 -181 l 126 -181 z "},"§":{"ha":674,"x_min":76,"x_max":597,"o":"m 279 -228 q 115 -193 174 -228 l 104 -56 l 114 -53 q 193 -167 147 -133 q 304 -201 239 -201 q 423 -156 376 -201 q 469 -37 469 -111 q 455 35 469 3 q 415 90 440 67 q 359 131 389 113 q 293 169 329 150 q 274 179 281 175 q 128 282 181 226 q 76 429 76 338 q 127 572 76 514 q 257 642 178 631 q 160 824 160 717 q 232 985 160 932 q 406 1038 304 1038 q 538 1018 472 1038 l 549 896 l 539 893 q 467 985 501 960 q 376 1011 433 1011 q 262 967 306 1011 q 218 851 218 922 q 231 782 218 813 q 273 724 243 751 q 324 683 303 697 q 392 643 346 669 q 408 633 403 636 q 479 589 456 606 q 535 542 503 572 q 583 473 568 511 q 597 388 597 435 q 549 247 597 304 q 424 176 500 189 q 528 -12 528 101 q 456 -177 528 -126 q 279 -228 383 -228 m 331 231 q 366 211 340 225 q 406 189 392 197 q 502 246 464 199 q 540 363 540 293 q 526 438 540 404 q 479 499 511 472 q 422 542 447 526 q 350 583 397 558 l 311 606 q 274 629 299 613 q 174 574 214 622 q 133 454 133 526 q 148 376 133 410 q 197 313 163 342 q 255 271 232 285 q 331 231 278 257 z "},"¨":{"ha":625,"x_min":117,"x_max":508,"o":"m 492 956 q 500 947 492 956 q 508 915 508 939 q 492 875 508 892 q 451 858 475 858 q 411 875 428 858 q 394 915 394 892 q 411 956 394 939 q 451 972 428 972 q 492 956 475 972 m 214 956 q 222 947 214 956 q 231 915 231 939 q 214 875 231 892 q 174 858 197 858 q 133 875 150 858 q 117 915 117 892 q 133 956 117 939 q 174 972 150 972 q 214 956 197 972 z "},"©":{"ha":1171,"x_min":56,"x_max":1115,"o":"m 210 135 q 133 212 210 135 q 56 510 56 289 q 210 884 56 731 q 585 1038 364 1038 q 960 884 806 1038 q 1115 510 1115 731 q 960 135 1115 289 q 585 -19 806 -19 q 210 135 364 -19 m 235 864 q 163 791 235 864 q 90 510 90 718 q 235 155 90 301 q 585 8 379 8 q 935 155 790 8 q 1079 510 1079 301 q 935 864 1079 718 q 585 1010 790 1010 q 235 864 379 1010 m 783 276 q 585 218 701 218 q 386 301 460 218 q 313 511 313 385 q 391 717 313 635 q 599 800 469 800 q 781 763 689 800 l 796 636 l 789 633 q 589 776 711 776 q 435 703 489 776 q 382 511 382 629 q 433 315 382 389 q 585 242 485 242 q 790 415 724 242 l 799 413 l 783 276 z "},"ª":{"ha":508,"x_min":49,"x_max":489,"o":"m 210 533 q 338 588 293 533 l 338 769 q 118 617 118 733 q 210 533 118 533 m 408 492 q 340 565 343 492 q 172 488 268 488 q 81 517 114 488 q 49 597 49 546 q 97 699 49 656 q 207 764 146 743 q 338 793 268 785 l 338 885 q 313 966 338 939 q 224 993 288 993 q 72 946 129 993 l 64 957 q 260 1038 135 1038 q 408 900 408 1038 l 408 578 q 442 531 408 531 q 485 557 461 531 l 489 554 q 408 492 463 492 z "},"«":{"ha":557,"x_min":69,"x_max":481,"o":"m 469 72 l 278 315 l 278 343 l 469 586 l 481 578 l 354 329 l 481 81 l 469 72 m 261 72 l 69 315 l 69 343 l 261 586 l 272 578 l 146 329 l 272 81 l 261 72 z "},"®":{"ha":653,"x_min":35,"x_max":618,"o":"m 35 751 q 121 954 35 871 q 329 1038 207 1038 q 534 955 450 1038 q 618 751 618 872 q 532 549 618 632 q 325 467 446 467 q 119 549 203 467 q 35 751 35 631 m 67 751 q 142 568 67 643 q 326 493 218 493 q 510 568 435 493 q 586 751 586 643 q 510 936 586 861 q 326 1011 435 1011 q 142 936 217 1011 q 67 751 67 861 m 224 603 q 240 651 240 621 l 240 854 q 224 904 240 885 l 224 907 l 336 907 q 435 828 435 907 q 374 750 435 769 l 428 651 q 450 617 442 626 q 472 603 458 607 l 472 600 l 411 600 l 336 738 l 282 738 l 282 651 q 299 603 282 621 l 299 600 l 224 600 l 224 603 m 282 882 l 282 765 l 328 765 q 392 828 392 765 q 377 868 392 854 q 325 882 363 882 l 282 882 z "},"¯":{"ha":625,"x_min":114,"x_max":510,"o":"m 114 896 l 510 896 l 510 847 l 114 847 l 114 896 z "},"°":{"ha":410,"x_min":21,"x_max":389,"o":"m 21 854 q 76 983 21 929 q 208 1038 131 1038 q 338 984 286 1038 q 389 854 389 931 q 334 724 389 778 q 203 669 279 669 q 73 723 125 669 q 21 854 21 776 m 97 965 q 75 943 97 965 q 54 854 54 921 q 97 742 54 788 q 206 697 139 697 q 313 742 271 697 q 356 854 356 788 q 314 965 356 921 q 206 1010 272 1010 q 97 965 139 1010 z "},"´":{"ha":624,"x_min":207,"x_max":456,"o":"m 388 1040 l 456 988 l 217 740 l 207 749 l 388 1040 z "},"¶":{"ha":636,"x_min":28,"x_max":525,"o":"m 444 0 l 444 1 q 465 129 465 57 l 465 888 q 444 1015 465 964 l 444 1017 l 525 1017 l 525 1015 q 504 888 504 960 l 504 129 q 525 1 504 53 l 525 0 l 444 0 m 319 0 l 319 1 q 340 129 340 57 l 340 549 l 263 549 q 97 618 165 549 q 28 785 28 688 q 97 949 28 881 q 263 1017 165 1017 l 400 1017 l 400 1015 q 379 888 379 960 l 379 129 q 400 1 379 53 l 400 0 l 319 0 z "},"·":{"ha":256,"x_min":63,"x_max":193,"o":"m 128 315 q 82 334 101 315 q 63 381 63 353 q 82 427 63 408 q 128 446 101 446 q 174 427 156 446 q 193 381 193 408 q 174 334 193 353 q 128 315 156 315 z "},"¸":{"ha":624,"x_min":208,"x_max":414,"o":"m 208 -343 q 319 -288 283 -315 q 354 -217 354 -261 q 235 -126 354 -140 l 233 -124 q 250 -94 239 -112 q 264 -72 261 -76 q 311 3 289 -31 l 350 3 l 299 -79 q 414 -199 414 -106 q 211 -354 414 -315 l 208 -343 z "},"º":{"ha":611,"x_min":35,"x_max":576,"o":"m 497 568 q 457 528 497 568 q 306 488 417 488 q 115 568 194 488 q 35 763 35 649 q 115 957 35 876 q 306 1038 194 1038 q 497 957 417 1038 q 576 763 576 876 q 497 568 576 649 m 306 510 q 446 582 396 510 q 496 763 496 654 q 446 943 496 871 q 306 1015 396 1015 q 164 943 214 1015 q 114 763 114 871 q 164 582 114 654 q 306 510 214 510 z "},"»":{"ha":557,"x_min":76,"x_max":488,"o":"m 285 81 l 411 329 l 285 578 l 296 586 l 488 343 l 488 315 l 296 72 l 285 81 m 76 81 l 203 329 l 76 578 l 88 586 l 279 343 l 279 315 l 88 72 l 76 81 z "},"¼":{"ha":826,"x_min":38,"x_max":815,"o":"m 65 492 l 65 493 q 97 542 89 521 q 104 601 104 564 l 104 919 l 38 919 l 38 925 q 165 1033 107 965 l 172 1033 l 172 601 q 180 542 172 563 q 213 493 188 521 l 213 492 l 65 492 m 60 19 l 783 1032 l 807 1017 l 82 1 l 60 19 m 649 1 q 681 110 681 47 l 681 139 l 440 139 l 440 149 l 690 535 l 769 535 l 472 161 l 681 161 l 681 336 l 747 336 l 747 161 l 815 161 l 810 139 l 747 139 l 747 110 q 753 51 747 72 q 781 1 760 31 l 781 0 l 649 0 l 649 1 z "},"½":{"ha":910,"x_min":38,"x_max":899,"o":"m 46 19 l 769 1032 l 793 1017 l 68 1 l 46 19 m 531 0 l 531 10 q 746 227 686 140 q 806 399 806 314 q 778 492 806 458 q 699 525 750 525 q 626 494 654 525 q 564 397 597 464 l 557 400 l 574 522 q 700 546 638 546 q 831 507 789 546 q 874 401 874 468 q 811 244 874 324 q 614 58 749 165 l 760 58 q 834 82 806 58 q 892 157 863 106 l 899 154 l 854 0 l 531 0 m 65 492 l 65 493 q 97 542 89 521 q 104 601 104 564 l 104 919 l 38 919 l 38 925 q 165 1033 107 965 l 172 1033 l 172 601 q 180 542 172 563 q 213 493 188 521 l 213 492 l 65 492 z "},"¾":{"ha":897,"x_min":38,"x_max":886,"o":"m 193 481 q 56 513 107 481 l 38 628 l 44 629 q 117 532 85 563 q 200 501 150 501 q 290 546 260 501 q 319 658 319 590 q 193 801 319 801 q 97 771 142 801 l 88 783 l 292 965 l 67 965 l 86 1025 l 382 1025 l 382 1018 l 157 818 q 210 825 185 825 q 336 781 285 825 q 388 658 388 738 q 334 529 388 578 q 193 481 281 481 m 131 19 l 854 1032 l 878 1017 l 153 1 l 131 19 m 719 1 q 751 110 751 47 l 751 139 l 511 139 l 511 149 l 761 535 l 840 535 l 543 161 l 751 161 l 751 336 l 818 336 l 818 161 l 886 161 l 881 139 l 818 139 l 818 110 q 824 51 818 72 q 851 1 831 31 l 851 0 l 719 0 l 719 1 z "},"¿":{"ha":601,"x_min":56,"x_max":539,"o":"m 413 407 q 372 284 403 340 q 301 188 340 228 q 226 105 263 147 q 164 3 189 63 q 139 -131 139 -57 q 310 -336 139 -336 q 440 -290 390 -336 q 529 -142 490 -244 l 539 -144 l 513 -317 q 303 -361 396 -361 q 120 -302 185 -361 q 56 -132 56 -243 q 85 -3 56 -61 q 158 99 114 56 q 248 183 201 142 q 335 283 294 225 q 390 407 375 340 l 413 407 m 393 681 q 439 662 419 681 q 458 615 458 643 q 439 569 458 588 q 393 550 419 550 q 347 569 365 550 q 328 615 328 588 q 347 662 328 643 q 393 681 365 681 z "},"À":{"ha":868,"x_min":7,"x_max":861,"o":"m 414 936 l 226 411 l 600 411 l 414 936 m 163 0 l 7 0 l 7 3 q 49 50 33 26 q 72 93 64 74 q 101 168 81 113 l 415 1029 l 453 1029 l 771 156 q 813 53 799 78 q 861 3 828 28 l 861 0 l 688 0 l 688 3 q 690 158 726 54 l 610 383 l 215 383 l 136 161 q 163 3 99 58 l 163 0 m 543 1086 l 222 1257 l 274 1332 l 549 1096 l 543 1086 z "},"Á":{"ha":868,"x_min":7,"x_max":861,"o":"m 414 936 l 226 411 l 600 411 l 414 936 m 163 0 l 7 0 l 7 3 q 49 50 33 26 q 72 93 64 74 q 101 168 81 113 l 415 1029 l 453 1029 l 771 156 q 813 53 799 78 q 861 3 828 28 l 861 0 l 688 0 l 688 3 q 690 158 726 54 l 610 383 l 215 383 l 136 161 q 163 3 99 58 l 163 0 m 575 1332 l 621 1257 l 306 1086 l 300 1096 l 575 1332 z "},"Â":{"ha":868,"x_min":7,"x_max":861,"o":"m 414 936 l 226 411 l 600 411 l 414 936 m 163 0 l 7 0 l 7 3 q 49 50 33 26 q 72 93 64 74 q 101 168 81 113 l 415 1029 l 453 1029 l 771 156 q 813 53 799 78 q 861 3 828 28 l 861 0 l 688 0 l 688 3 q 690 158 726 54 l 610 383 l 215 383 l 136 161 q 163 3 99 58 l 163 0 m 433 1224 l 229 1086 l 221 1096 l 431 1313 l 436 1313 l 646 1096 l 638 1086 l 433 1224 z "},"Ã":{"ha":868,"x_min":7,"x_max":861,"o":"m 414 936 l 226 411 l 600 411 l 414 936 m 163 0 l 7 0 l 7 3 q 49 50 33 26 q 72 93 64 74 q 101 168 81 113 l 415 1029 l 453 1029 l 771 156 q 813 53 799 78 q 861 3 828 28 l 861 0 l 688 0 l 688 3 q 690 158 726 54 l 610 383 l 215 383 l 136 161 q 163 3 99 58 l 163 0 m 328 1253 q 451 1215 374 1253 q 568 1176 529 1176 q 624 1197 606 1176 q 656 1267 643 1218 l 667 1265 q 547 1106 654 1106 q 424 1144 501 1106 q 307 1182 346 1182 q 251 1161 269 1182 q 219 1092 232 1140 l 208 1093 q 328 1253 221 1253 z "},"Ä":{"ha":868,"x_min":7,"x_max":861,"o":"m 414 936 l 226 411 l 600 411 l 414 936 m 163 0 l 7 0 l 7 3 q 49 50 33 26 q 72 93 64 74 q 101 168 81 113 l 415 1029 l 453 1029 l 771 156 q 813 53 799 78 q 861 3 828 28 l 861 0 l 688 0 l 688 3 q 690 158 726 54 l 610 383 l 215 383 l 136 161 q 163 3 99 58 l 163 0 m 647 1246 q 656 1238 647 1246 q 664 1206 664 1229 q 647 1165 664 1182 q 607 1149 631 1149 q 567 1165 583 1149 q 550 1206 550 1182 q 567 1246 550 1229 q 607 1263 583 1263 q 647 1246 631 1263 m 286 1246 q 294 1238 286 1246 q 303 1206 303 1229 q 286 1165 303 1182 q 246 1149 269 1149 q 206 1165 222 1149 q 189 1206 189 1182 q 206 1246 189 1229 q 246 1263 222 1263 q 286 1246 269 1263 z "},"Å":{"ha":868,"x_min":7,"x_max":861,"o":"m 414 936 l 226 411 l 600 411 l 414 936 m 163 0 l 7 0 l 7 3 q 49 50 33 26 q 72 93 64 74 q 101 168 81 113 l 415 1029 l 453 1029 l 771 156 q 813 53 799 78 q 861 3 828 28 l 861 0 l 688 0 l 688 3 q 690 158 726 54 l 610 383 l 215 383 l 136 161 q 163 3 99 58 l 163 0 m 342 1118 q 326 1134 342 1118 q 310 1201 310 1150 q 342 1286 310 1253 q 426 1319 375 1319 q 510 1286 478 1319 q 543 1201 543 1253 q 510 1118 543 1150 q 426 1086 478 1086 q 342 1118 375 1086 m 349 1201 q 369 1134 349 1158 q 426 1110 389 1110 q 484 1134 464 1110 q 504 1201 504 1158 q 426 1296 504 1296 q 349 1201 349 1296 z "},"Æ":{"ha":1317,"x_min":7,"x_max":1296,"o":"m 631 857 q 614 944 631 907 l 315 411 l 631 411 l 631 857 m 171 0 l 7 0 l 7 3 q 79 72 54 42 q 144 172 104 101 l 597 972 q 549 1014 578 997 l 549 1017 l 1164 1017 l 1218 815 l 1207 811 q 1085 967 1117 940 q 1049 985 1064 983 l 707 993 l 707 525 l 931 525 q 963 542 947 525 q 1002 598 979 558 q 1029 643 1025 638 l 1040 643 l 1040 386 l 1029 386 q 1013 413 1024 394 q 993 442 1001 431 q 974 469 985 454 q 951 490 963 483 q 931 497 940 497 l 707 497 l 707 24 l 1058 33 q 1169 83 1119 36 q 1285 229 1219 131 l 1296 225 l 1233 0 l 576 0 l 576 3 q 631 160 631 85 l 631 383 l 300 383 l 176 163 q 171 3 117 56 l 171 0 z "},"Ç":{"ha":1031,"x_min":56,"x_max":961,"o":"m 422 -343 q 533 -288 497 -315 q 568 -217 568 -261 q 449 -126 568 -140 l 447 -124 q 464 -94 453 -112 q 478 -72 475 -76 l 503 -31 l 510 -19 q 346 19 422 -14 q 132 212 208 82 q 56 510 56 342 q 203 888 56 738 q 594 1038 350 1038 q 928 968 774 1038 l 956 772 l 944 769 q 791 953 875 897 q 589 1010 707 1010 q 260 872 372 1010 q 147 510 147 733 q 253 146 147 285 q 564 7 360 7 q 803 81 714 7 q 950 303 892 154 l 961 300 l 933 88 q 780 15 885 50 q 558 -21 675 -21 l 549 -21 l 513 -79 q 628 -199 628 -106 q 425 -354 628 -315 l 422 -343 z "},"È":{"ha":813,"x_min":72,"x_max":792,"o":"m 729 0 l 72 0 l 72 3 q 126 160 126 85 l 126 857 q 72 1014 126 932 l 72 1017 l 660 1017 l 714 815 l 703 811 q 581 967 613 940 q 544 985 560 983 l 203 993 l 203 525 l 426 525 q 459 542 443 525 q 498 598 475 558 q 525 643 521 638 l 536 643 l 536 386 l 525 386 q 508 413 519 394 q 489 442 497 431 q 469 469 481 454 q 447 490 458 483 q 426 497 436 497 l 203 497 l 203 24 l 554 33 q 665 83 615 36 q 781 229 715 131 l 792 225 l 729 0 m 500 1086 l 179 1257 l 231 1332 l 506 1096 l 500 1086 z "},"É":{"ha":813,"x_min":72,"x_max":792,"o":"m 729 0 l 72 0 l 72 3 q 126 160 126 85 l 126 857 q 72 1014 126 932 l 72 1017 l 660 1017 l 714 815 l 703 811 q 581 967 613 940 q 544 985 560 983 l 203 993 l 203 525 l 426 525 q 459 542 443 525 q 498 598 475 558 q 525 643 521 638 l 536 643 l 536 386 l 525 386 q 508 413 519 394 q 489 442 497 431 q 469 469 481 454 q 447 490 458 483 q 426 497 436 497 l 203 497 l 203 24 l 554 33 q 665 83 615 36 q 781 229 715 131 l 792 225 l 729 0 m 532 1332 l 578 1257 l 263 1086 l 257 1096 l 532 1332 z "},"Ê":{"ha":813,"x_min":72,"x_max":792,"o":"m 729 0 l 72 0 l 72 3 q 126 160 126 85 l 126 857 q 72 1014 126 932 l 72 1017 l 660 1017 l 714 815 l 703 811 q 581 967 613 940 q 544 985 560 983 l 203 993 l 203 525 l 426 525 q 459 542 443 525 q 498 598 475 558 q 525 643 521 638 l 536 643 l 536 386 l 525 386 q 508 413 519 394 q 489 442 497 431 q 469 469 481 454 q 447 490 458 483 q 426 497 436 497 l 203 497 l 203 24 l 554 33 q 665 83 615 36 q 781 229 715 131 l 792 225 l 729 0 m 411 1224 l 207 1086 l 199 1096 l 408 1313 l 414 1313 l 624 1096 l 615 1086 l 411 1224 z "},"Ë":{"ha":813,"x_min":72,"x_max":792,"o":"m 729 0 l 72 0 l 72 3 q 126 160 126 85 l 126 857 q 72 1014 126 932 l 72 1017 l 660 1017 l 714 815 l 703 811 q 581 967 613 940 q 544 985 560 983 l 203 993 l 203 525 l 426 525 q 459 542 443 525 q 498 598 475 558 q 525 643 521 638 l 536 643 l 536 386 l 525 386 q 508 413 519 394 q 489 442 497 431 q 469 469 481 454 q 447 490 458 483 q 426 497 436 497 l 203 497 l 203 24 l 554 33 q 665 83 615 36 q 781 229 715 131 l 792 225 l 729 0 m 604 1246 q 613 1238 604 1246 q 621 1206 621 1229 q 604 1165 621 1182 q 564 1149 588 1149 q 524 1165 540 1149 q 507 1206 507 1182 q 524 1246 507 1229 q 564 1263 540 1263 q 604 1246 588 1263 m 243 1246 q 251 1238 243 1246 q 260 1206 260 1229 q 243 1165 260 1182 q 203 1149 226 1149 q 163 1165 179 1149 q 146 1206 146 1182 q 163 1246 146 1229 q 203 1263 179 1263 q 243 1246 226 1263 z "},"Ì":{"ha":331,"x_min":-39,"x_max":288,"o":"m 74 3 q 117 79 107 47 q 128 172 128 111 l 128 844 q 117 935 128 903 q 72 1014 106 968 l 72 1017 l 258 1017 l 258 1014 q 214 935 225 968 q 203 844 203 903 l 203 172 q 214 81 203 114 q 260 3 225 49 l 258 0 l 72 0 l 74 3 m 282 1086 l -39 1257 l 13 1332 l 288 1096 l 282 1086 z "},"Í":{"ha":331,"x_min":39,"x_max":360,"o":"m 74 3 q 117 79 107 47 q 128 172 128 111 l 128 844 q 117 935 128 903 q 72 1014 106 968 l 72 1017 l 258 1017 l 258 1014 q 214 935 225 968 q 203 844 203 903 l 203 172 q 214 81 203 114 q 260 3 225 49 l 258 0 l 72 0 l 74 3 m 314 1332 l 360 1257 l 44 1086 l 39 1096 l 314 1332 z "},"Î":{"ha":331,"x_min":-47,"x_max":378,"o":"m 74 3 q 117 79 107 47 q 128 172 128 111 l 128 844 q 117 935 128 903 q 72 1014 106 968 l 72 1017 l 258 1017 l 258 1014 q 214 935 225 968 q 203 844 203 903 l 203 172 q 214 81 203 114 q 260 3 225 49 l 258 0 l 72 0 l 74 3 m 165 1224 l -39 1086 l -47 1096 l 163 1313 l 168 1313 l 378 1096 l 369 1086 l 165 1224 z "},"Ï":{"ha":331,"x_min":-31,"x_max":361,"o":"m 344 1246 q 353 1238 344 1246 q 361 1206 361 1229 q 344 1165 361 1182 q 304 1149 328 1149 q 264 1165 281 1149 q 247 1206 247 1182 q 264 1246 247 1229 q 304 1263 281 1263 q 344 1246 328 1263 m 67 1246 q 75 1238 67 1246 q 83 1206 83 1229 q 67 1165 83 1182 q 26 1149 50 1149 q -14 1165 3 1149 q -31 1206 -31 1182 q -14 1246 -31 1229 q 26 1263 3 1263 q 67 1246 50 1263 m 74 3 q 117 79 107 47 q 128 172 128 111 l 128 844 q 117 935 128 903 q 72 1014 106 968 l 72 1017 l 258 1017 l 258 1014 q 214 935 225 968 q 203 844 203 903 l 203 172 q 214 81 203 114 q 260 3 225 49 l 258 0 l 72 0 l 74 3 z "},"Ð":{"ha":1010,"x_min":3,"x_max":954,"o":"m 3 522 l 142 522 l 142 814 q 131 922 142 883 q 86 1014 119 960 l 86 1017 q 280 1019 178 1017 q 476 1022 382 1022 q 828 890 701 1022 q 954 513 954 757 q 824 132 954 264 q 449 0 693 0 l 86 0 l 86 3 q 131 95 119 57 q 142 203 142 133 l 142 497 l 3 497 l 3 522 m 217 996 l 217 522 l 528 522 l 528 497 l 217 497 l 217 26 l 435 28 q 761 144 660 28 q 863 493 863 260 q 763 871 863 749 q 463 994 664 993 l 217 996 z "},"Ñ":{"ha":994,"x_min":17,"x_max":939,"o":"m 154 878 l 160 192 q 178 89 160 126 q 257 3 197 51 l 257 0 l 58 0 l 58 3 q 115 88 101 50 q 128 192 128 126 l 128 908 q 17 1014 75 983 l 17 1017 l 140 1017 l 842 136 l 838 825 q 822 928 838 890 q 754 1014 806 967 l 754 1017 l 939 1017 l 939 1014 q 883 928 896 965 q 869 825 869 892 l 869 0 l 857 -4 l 154 878 m 397 1253 q 521 1215 443 1253 q 638 1176 599 1176 q 694 1197 675 1176 q 725 1267 713 1218 l 736 1265 q 617 1106 724 1106 q 493 1144 571 1106 q 376 1182 415 1182 q 320 1161 339 1182 q 289 1092 301 1140 l 278 1093 q 397 1253 290 1253 z "},"Ò":{"ha":1126,"x_min":56,"x_max":1071,"o":"m 925 131 q 852 55 925 131 q 563 -21 779 -21 q 201 131 346 -21 q 56 507 56 282 q 201 885 56 732 q 563 1038 346 1038 q 925 885 779 1038 q 1071 507 1071 732 q 925 131 1071 282 m 260 148 q 317 77 260 148 q 563 7 374 7 q 865 147 751 7 q 979 507 979 288 q 865 867 979 725 q 563 1010 751 1010 q 260 868 374 1010 q 147 507 147 726 q 260 148 147 289 m 679 1086 l 358 1257 l 410 1332 l 685 1096 l 679 1086 z "},"Ó":{"ha":1126,"x_min":56,"x_max":1071,"o":"m 925 131 q 852 55 925 131 q 563 -21 779 -21 q 201 131 346 -21 q 56 507 56 282 q 201 885 56 732 q 563 1038 346 1038 q 925 885 779 1038 q 1071 507 1071 732 q 925 131 1071 282 m 260 148 q 317 77 260 148 q 563 7 374 7 q 865 147 751 7 q 979 507 979 288 q 865 867 979 725 q 563 1010 751 1010 q 260 868 374 1010 q 147 507 147 726 q 260 148 147 289 m 711 1332 l 757 1257 l 442 1086 l 436 1096 l 711 1332 z "},"Ô":{"ha":1126,"x_min":56,"x_max":1071,"o":"m 925 131 q 852 55 925 131 q 563 -21 779 -21 q 201 131 346 -21 q 56 507 56 282 q 201 885 56 732 q 563 1038 346 1038 q 925 885 779 1038 q 1071 507 1071 732 q 925 131 1071 282 m 260 148 q 317 77 260 148 q 563 7 374 7 q 865 147 751 7 q 979 507 979 288 q 865 867 979 725 q 563 1010 751 1010 q 260 868 374 1010 q 147 507 147 726 q 260 148 147 289 m 563 1224 l 358 1086 l 350 1096 l 560 1313 l 565 1313 l 775 1096 l 767 1086 l 563 1224 z "},"Õ":{"ha":1126,"x_min":56,"x_max":1071,"o":"m 925 131 q 852 55 925 131 q 563 -21 779 -21 q 201 131 346 -21 q 56 507 56 282 q 201 885 56 732 q 563 1038 346 1038 q 925 885 779 1038 q 1071 507 1071 732 q 925 131 1071 282 m 260 148 q 317 77 260 148 q 563 7 374 7 q 865 147 751 7 q 979 507 979 288 q 865 867 979 725 q 563 1010 751 1010 q 260 868 374 1010 q 147 507 147 726 q 260 148 147 289 m 453 1253 q 576 1215 499 1253 q 693 1176 654 1176 q 749 1197 731 1176 q 781 1267 768 1218 l 792 1265 q 672 1106 779 1106 q 549 1144 626 1106 q 432 1182 471 1182 q 376 1161 394 1182 q 344 1092 357 1140 l 333 1093 q 453 1253 346 1253 z "},"Ö":{"ha":1126,"x_min":56,"x_max":1071,"o":"m 925 131 q 852 55 925 131 q 563 -21 779 -21 q 201 131 346 -21 q 56 507 56 282 q 201 885 56 732 q 563 1038 346 1038 q 925 885 779 1038 q 1071 507 1071 732 q 925 131 1071 282 m 260 148 q 317 77 260 148 q 563 7 374 7 q 865 147 751 7 q 979 507 979 288 q 865 867 979 725 q 563 1010 751 1010 q 260 868 374 1010 q 147 507 147 726 q 260 148 147 289 m 783 1246 q 792 1238 783 1246 q 800 1206 800 1229 q 783 1165 800 1182 q 743 1149 767 1149 q 703 1165 719 1149 q 686 1206 686 1182 q 703 1246 686 1229 q 743 1263 719 1263 q 783 1246 767 1263 m 422 1246 q 431 1238 422 1246 q 439 1206 439 1229 q 422 1165 439 1182 q 382 1149 406 1149 q 342 1165 358 1149 q 325 1206 325 1182 q 342 1246 325 1229 q 382 1263 358 1263 q 422 1246 406 1263 z "},"×":{"ha":656,"x_min":71,"x_max":585,"o":"m 328 406 l 92 169 l 71 190 l 307 426 l 71 663 l 92 683 l 328 447 l 564 683 l 585 663 l 349 426 l 585 190 l 564 169 l 328 406 z "},"Ø":{"ha":1126,"x_min":56,"x_max":1071,"o":"m 147 507 q 286 118 147 260 l 815 919 q 563 1010 710 1010 q 260 868 374 1010 q 147 507 147 726 m 563 7 q 865 147 751 7 q 979 507 979 288 q 838 899 979 757 l 308 97 q 563 7 417 7 m 563 -21 q 285 61 404 -21 l 218 -40 l 182 -40 l 260 78 q 110 261 164 150 q 56 507 56 372 q 201 885 56 732 q 563 1038 346 1038 q 839 956 721 1038 l 907 1058 l 943 1058 l 864 939 q 1016 753 961 865 q 1071 507 1071 642 q 925 131 1071 282 q 563 -21 779 -21 z "},"Ù":{"ha":950,"x_min":56,"x_max":925,"o":"m 490 -21 q 217 66 324 -21 q 111 331 111 153 l 111 840 q 101 935 111 901 q 56 1014 90 968 l 56 1017 l 242 1017 l 242 1014 q 186 840 186 940 l 186 335 q 274 88 186 167 q 503 10 361 10 q 739 103 668 10 q 810 347 810 197 l 810 822 q 790 926 810 889 q 710 1014 771 964 l 710 1017 l 925 1017 l 925 1014 q 856 926 872 964 q 839 822 839 889 l 839 349 q 821 207 839 271 q 764 90 803 143 q 655 8 725 38 q 490 -21 585 -21 m 617 1086 l 296 1257 l 347 1332 l 622 1096 l 617 1086 z "},"Ú":{"ha":950,"x_min":56,"x_max":925,"o":"m 490 -21 q 217 66 324 -21 q 111 331 111 153 l 111 840 q 101 935 111 901 q 56 1014 90 968 l 56 1017 l 242 1017 l 242 1014 q 186 840 186 940 l 186 335 q 274 88 186 167 q 503 10 361 10 q 739 103 668 10 q 810 347 810 197 l 810 822 q 790 926 810 889 q 710 1014 771 964 l 710 1017 l 925 1017 l 925 1014 q 856 926 872 964 q 839 822 839 889 l 839 349 q 821 207 839 271 q 764 90 803 143 q 655 8 725 38 q 490 -21 585 -21 m 649 1332 l 694 1257 l 379 1086 l 374 1096 l 649 1332 z "},"Û":{"ha":950,"x_min":56,"x_max":925,"o":"m 490 -21 q 217 66 324 -21 q 111 331 111 153 l 111 840 q 101 935 111 901 q 56 1014 90 968 l 56 1017 l 242 1017 l 242 1014 q 186 840 186 940 l 186 335 q 274 88 186 167 q 503 10 361 10 q 739 103 668 10 q 810 347 810 197 l 810 822 q 790 926 810 889 q 710 1014 771 964 l 710 1017 l 925 1017 l 925 1014 q 856 926 872 964 q 839 822 839 889 l 839 349 q 821 207 839 271 q 764 90 803 143 q 655 8 725 38 q 490 -21 585 -21 m 500 1224 l 296 1086 l 288 1096 l 497 1313 l 503 1313 l 713 1096 l 704 1086 l 500 1224 z "},"Ü":{"ha":950,"x_min":56,"x_max":925,"o":"m 490 -21 q 217 66 324 -21 q 111 331 111 153 l 111 840 q 101 935 111 901 q 56 1014 90 968 l 56 1017 l 242 1017 l 242 1014 q 186 840 186 940 l 186 335 q 274 88 186 167 q 503 10 361 10 q 739 103 668 10 q 810 347 810 197 l 810 822 q 790 926 810 889 q 710 1014 771 964 l 710 1017 l 925 1017 l 925 1014 q 856 926 872 964 q 839 822 839 889 l 839 349 q 821 207 839 271 q 764 90 803 143 q 655 8 725 38 q 490 -21 585 -21 m 721 1246 q 729 1238 721 1246 q 738 1206 738 1229 q 721 1165 738 1182 q 681 1149 704 1149 q 640 1165 657 1149 q 624 1206 624 1182 q 640 1246 624 1229 q 681 1263 657 1263 q 721 1246 704 1263 m 360 1246 q 368 1238 360 1246 q 376 1206 376 1229 q 360 1165 376 1182 q 319 1149 343 1149 q 279 1165 296 1149 q 263 1206 263 1182 q 279 1246 263 1229 q 319 1263 296 1263 q 360 1246 343 1263 z "},"Ý":{"ha":792,"x_min":0,"x_max":792,"o":"m 299 3 q 343 68 332 38 q 354 147 354 99 l 354 475 l 119 879 q 0 1014 60 981 l 0 1017 l 215 1017 l 215 1014 q 203 888 149 983 l 419 513 l 607 826 q 644 914 638 876 q 639 972 650 951 q 603 1014 628 993 l 603 1017 l 792 1017 l 792 1014 q 764 996 776 1004 q 739 974 751 988 q 720 953 726 960 q 700 926 714 947 q 683 900 686 906 q 661 865 679 894 q 639 826 643 835 l 429 478 l 429 147 q 440 69 429 97 q 485 3 450 40 l 485 0 l 299 0 l 299 3 m 561 1332 l 607 1257 l 292 1086 l 286 1096 l 561 1332 z "},"Þ":{"ha":746,"x_min":72,"x_max":718,"o":"m 378 753 q 203 749 296 753 l 203 292 l 389 292 q 578 357 517 292 q 640 532 640 422 q 378 753 640 753 m 258 0 l 72 0 l 74 3 q 117 79 107 47 q 128 172 128 111 l 128 844 q 117 935 128 903 q 72 1014 106 968 l 72 1017 l 258 1017 l 258 1014 q 214 935 225 968 q 203 844 203 903 l 203 781 l 397 781 q 642 713 565 781 q 718 532 718 644 q 633 335 718 407 q 390 264 547 264 l 203 264 l 203 172 q 214 81 203 114 q 260 3 225 49 l 258 0 z "},"ß":{"ha":763,"x_min":51,"x_max":742,"o":"m 515 -21 q 342 25 422 -21 l 328 167 l 339 169 q 413 44 369 83 q 528 4 457 4 q 643 44 601 4 q 685 147 685 83 q 652 235 685 200 q 572 290 619 271 q 478 331 525 310 q 399 390 432 351 q 367 486 367 428 q 399 589 367 542 q 468 667 431 636 q 538 750 506 697 q 569 869 569 803 q 527 1001 569 947 q 401 1054 485 1054 q 259 992 310 1054 q 208 817 208 929 l 208 0 l 106 0 l 106 3 q 139 193 139 56 l 139 635 l 51 635 l 51 660 l 139 660 l 139 758 q 210 994 139 906 q 401 1082 281 1082 q 564 1027 496 1082 q 632 875 632 972 q 609 778 632 822 q 553 703 586 733 q 488 644 521 672 q 433 584 456 617 q 410 515 410 551 q 444 442 410 471 q 526 394 478 413 q 624 353 575 375 q 708 286 674 332 q 742 172 742 240 q 683 29 742 79 q 515 -21 624 -21 z "},"à":{"ha":644,"x_min":54,"x_max":631,"o":"m 250 29 q 436 101 364 29 l 436 347 q 288 315 354 338 q 173 246 221 292 q 125 140 125 200 q 156 59 125 89 q 250 29 188 29 m 525 -17 q 460 9 482 -17 q 436 78 438 35 q 217 -21 343 -21 q 98 17 142 -21 q 54 121 54 54 q 91 226 54 179 q 187 301 128 272 q 308 347 246 329 q 436 369 371 364 l 436 497 q 279 639 436 639 q 85 578 174 639 l 78 588 q 319 681 171 681 q 465 635 425 681 q 506 511 506 589 l 506 92 q 560 32 506 32 q 626 65 593 32 l 631 63 q 525 -17 600 -17 m 394 740 l 156 988 l 224 1040 l 404 749 l 394 740 z "},"á":{"ha":644,"x_min":54,"x_max":631,"o":"m 250 29 q 436 101 364 29 l 436 347 q 288 315 354 338 q 173 246 221 292 q 125 140 125 200 q 156 59 125 89 q 250 29 188 29 m 525 -17 q 460 9 482 -17 q 436 78 438 35 q 217 -21 343 -21 q 98 17 142 -21 q 54 121 54 54 q 91 226 54 179 q 187 301 128 272 q 308 347 246 329 q 436 369 371 364 l 436 497 q 279 639 436 639 q 85 578 174 639 l 78 588 q 319 681 171 681 q 465 635 425 681 q 506 511 506 589 l 506 92 q 560 32 506 32 q 626 65 593 32 l 631 63 q 525 -17 600 -17 m 411 1040 l 479 988 l 240 740 l 231 749 l 411 1040 z "},"â":{"ha":644,"x_min":54,"x_max":631,"o":"m 250 29 q 436 101 364 29 l 436 347 q 288 315 354 338 q 173 246 221 292 q 125 140 125 200 q 156 59 125 89 q 250 29 188 29 m 525 -17 q 460 9 482 -17 q 436 78 438 35 q 217 -21 343 -21 q 98 17 142 -21 q 54 121 54 54 q 91 226 54 179 q 187 301 128 272 q 308 347 246 329 q 436 369 371 364 l 436 497 q 279 639 436 639 q 85 578 174 639 l 78 588 q 319 681 171 681 q 465 635 425 681 q 506 511 506 589 l 506 92 q 560 32 506 32 q 626 65 593 32 l 631 63 q 525 -17 600 -17 m 313 904 l 133 750 l 124 758 l 310 999 l 315 999 l 507 758 l 497 750 l 313 904 z "},"ã":{"ha":644,"x_min":54,"x_max":631,"o":"m 250 29 q 436 101 364 29 l 436 347 q 288 315 354 338 q 173 246 221 292 q 125 140 125 200 q 156 59 125 89 q 250 29 188 29 m 525 -17 q 460 9 482 -17 q 436 78 438 35 q 217 -21 343 -21 q 98 17 142 -21 q 54 121 54 54 q 91 226 54 179 q 187 301 128 272 q 308 347 246 329 q 436 369 371 364 l 436 497 q 279 639 436 639 q 85 578 174 639 l 78 588 q 319 681 171 681 q 465 635 425 681 q 506 511 506 589 l 506 92 q 560 32 506 32 q 626 65 593 32 l 631 63 q 525 -17 600 -17 m 211 947 q 307 917 247 947 q 407 886 367 886 q 492 961 472 886 l 503 960 q 392 822 492 822 q 296 853 356 822 q 196 883 236 883 q 111 808 131 883 l 100 810 q 211 947 111 947 z "},"ä":{"ha":644,"x_min":54,"x_max":631,"o":"m 250 29 q 436 101 364 29 l 436 347 q 288 315 354 338 q 173 246 221 292 q 125 140 125 200 q 156 59 125 89 q 250 29 188 29 m 525 -17 q 460 9 482 -17 q 436 78 438 35 q 217 -21 343 -21 q 98 17 142 -21 q 54 121 54 54 q 91 226 54 179 q 187 301 128 272 q 308 347 246 329 q 436 369 371 364 l 436 497 q 279 639 436 639 q 85 578 174 639 l 78 588 q 319 681 171 681 q 465 635 425 681 q 506 511 506 589 l 506 92 q 560 32 506 32 q 626 65 593 32 l 631 63 q 525 -17 600 -17 m 481 956 q 489 947 481 956 q 497 915 497 939 q 481 875 497 892 q 440 858 464 858 q 400 875 417 858 q 383 915 383 892 q 400 956 383 939 q 440 972 417 972 q 481 956 464 972 m 203 956 q 211 947 203 956 q 219 915 219 939 q 203 875 219 892 q 163 858 186 858 q 122 875 139 858 q 106 915 106 892 q 122 956 106 939 q 163 972 139 972 q 203 956 186 972 z "},"å":{"ha":644,"x_min":54,"x_max":631,"o":"m 250 29 q 436 101 364 29 l 436 347 q 288 315 354 338 q 173 246 221 292 q 125 140 125 200 q 156 59 125 89 q 250 29 188 29 m 525 -17 q 460 9 482 -17 q 436 78 438 35 q 217 -21 343 -21 q 98 17 142 -21 q 54 121 54 54 q 91 226 54 179 q 187 301 128 272 q 308 347 246 329 q 436 369 371 364 l 436 497 q 279 639 436 639 q 85 578 174 639 l 78 588 q 319 681 171 681 q 465 635 425 681 q 506 511 506 589 l 506 92 q 560 32 506 32 q 626 65 593 32 l 631 63 q 525 -17 600 -17 m 231 825 q 215 841 231 825 q 199 908 199 857 q 231 993 199 960 q 315 1026 264 1026 q 399 993 367 1026 q 432 908 432 960 q 399 825 432 857 q 315 793 367 793 q 231 825 264 793 m 238 908 q 258 841 238 865 q 315 817 278 817 q 373 841 353 817 q 393 908 393 865 q 315 1003 393 1003 q 238 908 238 1003 z "},"æ":{"ha":1019,"x_min":43,"x_max":971,"o":"m 714 -21 q 460 140 538 -21 q 207 -21 368 -21 q 88 17 132 -21 q 43 121 43 54 q 80 226 43 179 q 176 301 117 272 q 297 347 235 329 q 425 369 360 364 l 425 497 q 268 639 425 639 q 74 578 163 639 l 67 588 q 308 681 160 681 q 439 644 399 681 q 489 547 479 608 q 721 681 567 681 q 902 603 835 681 q 961 414 969 525 l 506 414 q 501 350 501 385 q 562 127 501 211 q 739 43 622 43 q 869 72 806 43 q 964 157 932 101 l 971 154 q 877 26 946 74 q 714 -21 808 -21 m 719 656 q 581 598 636 656 q 508 435 525 540 l 874 443 l 874 451 q 719 656 874 656 m 240 32 q 450 167 372 32 q 425 317 425 231 l 425 347 q 209 281 297 332 q 121 140 121 229 q 151 61 121 90 q 240 32 181 32 z "},"ç":{"ha":664,"x_min":56,"x_max":615,"o":"m 211 -343 q 322 -288 286 -315 q 357 -217 357 -261 q 238 -126 357 -140 l 236 -124 q 253 -94 242 -112 q 267 -72 264 -76 l 292 -31 q 300 -17 299 -22 q 235 3 268 -11 q 103 118 151 38 q 56 311 56 199 q 158 580 56 479 q 404 681 260 681 q 590 635 490 681 l 600 504 l 592 501 q 497 620 543 585 q 381 656 451 656 q 199 574 267 656 q 132 349 132 493 q 196 127 132 211 q 379 43 260 43 q 510 72 447 43 q 608 157 574 101 l 615 154 q 519 26 589 74 q 356 -21 450 -21 l 338 -21 l 301 -79 q 417 -199 417 -106 q 214 -354 417 -315 l 211 -343 z "},"è":{"ha":664,"x_min":56,"x_max":619,"o":"m 361 656 q 215 598 274 656 q 139 435 157 540 l 524 443 l 524 451 q 361 656 524 656 m 615 154 q 519 26 589 74 q 354 -21 450 -21 q 138 73 219 -21 q 56 319 56 167 q 146 580 56 479 q 365 681 236 681 q 550 601 481 681 q 611 414 619 521 l 136 414 q 132 350 132 385 q 196 127 132 211 q 379 43 260 43 q 511 72 449 43 q 608 157 574 100 l 615 154 m 418 740 l 179 988 l 247 1040 l 428 749 l 418 740 z "},"é":{"ha":664,"x_min":56,"x_max":619,"o":"m 361 656 q 215 598 274 656 q 139 435 157 540 l 524 443 l 524 451 q 361 656 524 656 m 615 154 q 519 26 589 74 q 354 -21 450 -21 q 138 73 219 -21 q 56 319 56 167 q 146 580 56 479 q 365 681 236 681 q 550 601 481 681 q 611 414 619 521 l 136 414 q 132 350 132 385 q 196 127 132 211 q 379 43 260 43 q 511 72 449 43 q 608 157 574 100 l 615 154 m 435 1040 l 503 988 l 264 740 l 254 749 l 435 1040 z "},"ê":{"ha":664,"x_min":56,"x_max":619,"o":"m 361 656 q 215 598 274 656 q 139 435 157 540 l 524 443 l 524 451 q 361 656 524 656 m 615 154 q 519 26 589 74 q 354 -21 450 -21 q 138 73 219 -21 q 56 319 56 167 q 146 580 56 479 q 365 681 236 681 q 550 601 481 681 q 611 414 619 521 l 136 414 q 132 350 132 385 q 196 127 132 211 q 379 43 260 43 q 511 72 449 43 q 608 157 574 100 l 615 154 m 336 904 l 157 750 l 147 758 l 333 999 l 339 999 l 531 758 l 521 750 l 336 904 z "},"ë":{"ha":664,"x_min":56,"x_max":619,"o":"m 361 656 q 215 598 274 656 q 139 435 157 540 l 524 443 l 524 451 q 361 656 524 656 m 615 154 q 519 26 589 74 q 354 -21 450 -21 q 138 73 219 -21 q 56 319 56 167 q 146 580 56 479 q 365 681 236 681 q 550 601 481 681 q 611 414 619 521 l 136 414 q 132 350 132 385 q 196 127 132 211 q 379 43 260 43 q 511 72 449 43 q 608 157 574 100 l 615 154 m 518 956 q 526 947 518 956 q 535 915 535 939 q 518 875 535 892 q 478 858 501 858 q 438 875 454 858 q 421 915 421 892 q 438 956 421 939 q 478 972 454 972 q 518 956 501 972 m 240 956 q 249 947 240 956 q 257 915 257 939 q 240 875 257 892 q 200 858 224 858 q 160 875 176 858 q 143 915 143 892 q 160 956 143 939 q 200 972 176 972 q 240 956 224 972 z "},"ì":{"ha":274,"x_min":-33,"x_max":215,"o":"m 75 3 q 106 165 106 60 l 106 510 q 44 613 106 572 l 44 615 l 175 688 l 175 167 q 180 69 175 103 q 206 3 185 36 l 206 0 l 75 0 l 75 3 m 206 740 l -33 988 l 35 1040 l 215 749 l 206 740 z "},"í":{"ha":274,"x_min":44,"x_max":319,"o":"m 75 3 q 106 165 106 60 l 106 510 q 44 613 106 572 l 44 615 l 175 688 l 175 167 q 180 69 175 103 q 206 3 185 36 l 206 0 l 75 0 l 75 3 m 251 1040 l 319 988 l 81 740 l 71 749 l 251 1040 z "},"î":{"ha":274,"x_min":-50,"x_max":333,"o":"m 75 3 q 106 165 106 60 l 106 510 q 44 613 106 572 l 44 615 l 175 688 l 175 167 q 180 69 175 103 q 206 3 185 36 l 206 0 l 75 0 l 75 3 m 139 904 l -40 750 l -50 758 l 136 999 l 142 999 l 333 758 l 324 750 l 139 904 z "},"ï":{"ha":274,"x_min":-26,"x_max":296,"o":"m 279 956 q 288 947 279 956 q 296 915 296 939 q 279 875 296 892 q 239 858 263 858 q 199 875 215 858 q 182 915 182 892 q 199 956 182 939 q 239 972 215 972 q 279 956 263 972 m 71 956 q 79 947 71 956 q 88 915 88 939 q 71 875 88 892 q 31 858 54 858 q -10 875 7 858 q -26 915 -26 892 q -10 956 -26 939 q 31 972 7 972 q 71 956 54 972 m 75 3 q 106 165 106 60 l 106 510 q 44 613 106 572 l 44 615 l 175 688 l 175 167 q 180 69 175 103 q 206 3 185 36 l 206 0 l 75 0 l 75 3 z "},"ð":{"ha":781,"x_min":49,"x_max":732,"o":"m 390 -21 q 149 81 250 -21 q 49 329 49 183 q 141 573 49 476 q 378 669 233 669 q 629 532 549 669 q 436 899 579 751 l 274 788 l 258 810 l 417 918 q 189 1067 318 1015 l 194 1081 q 453 942 339 1028 l 611 1049 l 626 1026 l 475 924 q 669 669 607 813 q 732 385 732 526 q 633 90 732 200 q 390 -21 535 -21 m 390 4 q 582 97 515 4 q 649 353 649 190 q 642 461 649 399 q 531 595 599 551 q 382 639 463 639 q 198 553 264 639 q 132 329 132 468 q 200 96 132 188 q 390 4 268 4 z "},"ñ":{"ha":718,"x_min":44,"x_max":650,"o":"m 206 0 l 75 0 l 75 3 q 106 165 106 60 l 106 508 q 44 613 106 572 l 44 615 l 169 688 l 169 561 l 175 560 q 425 681 278 681 q 570 627 521 681 q 619 478 619 574 l 619 167 q 624 68 619 101 q 650 3 629 35 l 650 0 l 519 0 l 519 3 q 550 165 550 60 l 550 463 q 394 626 550 626 q 175 535 258 626 l 175 167 q 180 69 175 103 q 206 3 185 36 l 206 0 m 279 947 q 375 917 315 947 q 475 886 435 886 q 560 961 542 886 l 571 960 q 460 822 560 822 q 364 853 424 822 q 264 883 304 883 q 179 808 197 883 l 168 810 q 279 947 179 947 z "},"ò":{"ha":781,"x_min":49,"x_max":732,"o":"m 631 81 q 581 30 631 81 q 390 -21 531 -21 q 149 81 250 -21 q 49 329 49 183 q 149 578 49 475 q 390 681 250 681 q 631 578 531 681 q 732 329 732 475 q 631 81 732 183 m 201 96 q 234 50 201 96 q 390 4 267 4 q 580 96 514 4 q 646 329 646 188 q 578 563 646 471 q 390 656 511 656 q 202 563 269 656 q 135 329 135 471 q 201 96 135 188 m 442 740 l 203 988 l 271 1040 l 451 749 l 442 740 z "},"ó":{"ha":781,"x_min":49,"x_max":732,"o":"m 631 81 q 581 30 631 81 q 390 -21 531 -21 q 149 81 250 -21 q 49 329 49 183 q 149 578 49 475 q 390 681 250 681 q 631 578 531 681 q 732 329 732 475 q 631 81 732 183 m 201 96 q 234 50 201 96 q 390 4 267 4 q 580 96 514 4 q 646 329 646 188 q 578 563 646 471 q 390 656 511 656 q 202 563 269 656 q 135 329 135 471 q 201 96 135 188 m 514 1040 l 582 988 l 343 740 l 333 749 l 514 1040 z "},"ô":{"ha":781,"x_min":49,"x_max":732,"o":"m 631 81 q 581 30 631 81 q 390 -21 531 -21 q 149 81 250 -21 q 49 329 49 183 q 149 578 49 475 q 390 681 250 681 q 631 578 531 681 q 732 329 732 475 q 631 81 732 183 m 201 96 q 234 50 201 96 q 390 4 267 4 q 580 96 514 4 q 646 329 646 188 q 578 563 646 471 q 390 656 511 656 q 202 563 269 656 q 135 329 135 471 q 201 96 135 188 m 388 904 l 208 750 l 199 758 l 385 999 l 390 999 l 582 758 l 572 750 l 388 904 z "},"õ":{"ha":781,"x_min":49,"x_max":732,"o":"m 631 81 q 581 30 631 81 q 390 -21 531 -21 q 149 81 250 -21 q 49 329 49 183 q 149 578 49 475 q 390 681 250 681 q 631 578 531 681 q 732 329 732 475 q 631 81 732 183 m 201 96 q 234 50 201 96 q 390 4 267 4 q 580 96 514 4 q 646 329 646 188 q 578 563 646 471 q 390 656 511 656 q 202 563 269 656 q 135 329 135 471 q 201 96 135 188 m 300 947 q 396 917 336 947 q 496 886 456 886 q 581 961 561 886 l 592 960 q 481 822 581 822 q 385 853 444 822 q 285 883 325 883 q 200 808 219 883 l 189 810 q 300 947 200 947 z "},"ö":{"ha":781,"x_min":49,"x_max":732,"o":"m 631 81 q 581 30 631 81 q 390 -21 531 -21 q 149 81 250 -21 q 49 329 49 183 q 149 578 49 475 q 390 681 250 681 q 631 578 531 681 q 732 329 732 475 q 631 81 732 183 m 201 96 q 234 50 201 96 q 390 4 267 4 q 580 96 514 4 q 646 329 646 188 q 578 563 646 471 q 390 656 511 656 q 202 563 269 656 q 135 329 135 471 q 201 96 135 188 m 569 956 q 578 947 569 956 q 586 915 586 939 q 569 875 586 892 q 529 858 553 858 q 489 875 506 858 q 472 915 472 892 q 489 956 472 939 q 529 972 506 972 q 569 956 553 972 m 292 956 q 300 947 292 956 q 308 915 308 939 q 292 875 308 892 q 251 858 275 858 q 211 875 228 858 q 194 915 194 892 q 211 956 194 939 q 251 972 228 972 q 292 956 275 972 z "},"÷":{"ha":758,"x_min":72,"x_max":686,"o":"m 72 414 l 72 442 l 686 442 l 686 414 l 72 414 m 379 131 q 333 149 353 131 q 314 196 314 168 q 333 242 314 224 q 379 261 353 261 q 426 242 407 261 q 444 196 444 224 q 426 149 444 168 q 379 131 407 131 m 379 594 q 333 613 353 594 q 314 660 314 632 q 333 706 314 688 q 379 725 353 725 q 426 706 407 725 q 444 660 444 688 q 426 613 444 632 q 379 594 407 594 z "},"ø":{"ha":781,"x_min":49,"x_max":732,"o":"m 390 -21 q 203 36 285 -21 l 114 -93 l 79 -93 l 181 53 q 49 329 49 158 q 149 578 49 475 q 390 681 250 681 q 575 624 493 681 l 667 756 l 701 756 l 599 607 q 732 329 732 501 q 631 81 732 183 q 390 -21 531 -21 m 390 4 q 580 96 514 4 q 646 329 646 188 q 572 569 646 479 l 225 68 q 390 4 293 4 m 135 329 q 206 90 135 178 l 553 592 q 390 656 489 656 q 202 563 269 656 q 135 329 135 471 z "},"ù":{"ha":681,"x_min":28,"x_max":628,"o":"m 503 103 q 271 -21 406 -21 q 134 31 182 -21 q 86 174 86 82 l 86 568 q 28 657 86 626 l 28 660 l 156 660 l 156 196 q 300 33 156 33 q 496 121 411 33 l 496 568 q 435 657 496 629 l 435 660 l 565 660 l 565 154 q 578 69 565 92 q 628 31 592 46 l 628 28 l 503 -17 l 503 103 m 382 740 l 143 988 l 211 1040 l 392 749 l 382 740 z "},"ú":{"ha":681,"x_min":28,"x_max":628,"o":"m 503 103 q 271 -21 406 -21 q 134 31 182 -21 q 86 174 86 82 l 86 568 q 28 657 86 626 l 28 660 l 156 660 l 156 196 q 300 33 156 33 q 496 121 411 33 l 496 568 q 435 657 496 629 l 435 660 l 565 660 l 565 154 q 578 69 565 92 q 628 31 592 46 l 628 28 l 503 -17 l 503 103 m 454 1040 l 522 988 l 283 740 l 274 749 l 454 1040 z "},"û":{"ha":681,"x_min":28,"x_max":628,"o":"m 503 103 q 271 -21 406 -21 q 134 31 182 -21 q 86 174 86 82 l 86 568 q 28 657 86 626 l 28 660 l 156 660 l 156 196 q 300 33 156 33 q 496 121 411 33 l 496 568 q 435 657 496 629 l 435 660 l 565 660 l 565 154 q 578 69 565 92 q 628 31 592 46 l 628 28 l 503 -17 l 503 103 m 319 904 l 140 750 l 131 758 l 317 999 l 322 999 l 514 758 l 504 750 l 319 904 z "},"ü":{"ha":681,"x_min":28,"x_max":628,"o":"m 503 103 q 271 -21 406 -21 q 134 31 182 -21 q 86 174 86 82 l 86 568 q 28 657 86 626 l 28 660 l 156 660 l 156 196 q 300 33 156 33 q 496 121 411 33 l 496 568 q 435 657 496 629 l 435 660 l 565 660 l 565 154 q 578 69 565 92 q 628 31 592 46 l 628 28 l 503 -17 l 503 103 m 496 956 q 504 947 496 956 q 513 915 513 939 q 496 875 513 892 q 456 858 479 858 q 415 875 432 858 q 399 915 399 892 q 415 956 399 939 q 456 972 432 972 q 496 956 479 972 m 218 956 q 226 947 218 956 q 235 915 235 939 q 218 875 235 892 q 178 858 201 858 q 138 875 154 858 q 121 915 121 892 q 138 956 121 939 q 178 972 154 972 q 218 956 201 972 z "},"ý":{"ha":572,"x_min":0,"x_max":579,"o":"m 28 -236 q 93 -223 57 -236 q 173 -171 129 -210 q 239 -74 217 -132 l 274 17 l 82 515 q 0 657 42 625 l 0 660 l 163 660 l 163 657 q 156 513 118 617 l 308 107 l 458 501 q 442 657 503 619 l 442 660 l 579 660 l 579 657 q 532 608 547 633 q 490 513 517 582 l 250 -112 q 158 -258 211 -212 q 31 -312 106 -304 l 28 -236 m 436 1040 l 504 988 l 265 740 l 256 749 l 436 1040 z "},"þ":{"ha":749,"x_min":38,"x_max":693,"o":"m 356 4 q 542 94 471 4 q 613 333 613 183 q 543 553 613 474 q 369 633 474 633 q 251 603 306 633 q 168 533 196 574 l 168 96 q 356 4 236 4 m 199 -312 l 68 -312 l 68 -310 q 99 -147 99 -253 l 99 935 q 38 1021 99 989 l 38 1024 l 168 1082 l 168 563 l 172 563 q 400 681 244 681 q 611 590 529 681 q 693 349 693 499 q 657 169 693 251 q 541 33 621 88 q 349 -21 461 -21 q 168 33 242 -21 l 168 -146 q 173 -243 168 -210 q 199 -310 178 -276 l 199 -312 z "},"ÿ":{"ha":572,"x_min":0,"x_max":579,"o":"m 28 -236 q 93 -223 57 -236 q 173 -171 129 -210 q 239 -74 217 -132 l 274 17 l 82 515 q 0 657 42 625 l 0 660 l 163 660 l 163 657 q 156 513 118 617 l 308 107 l 458 501 q 442 657 503 619 l 442 660 l 579 660 l 579 657 q 532 608 547 633 q 490 513 517 582 l 250 -112 q 158 -258 211 -212 q 31 -312 106 -304 l 28 -236 m 489 956 q 497 947 489 956 q 506 915 506 939 q 489 875 506 892 q 449 858 472 858 q 408 875 425 858 q 392 915 392 892 q 408 956 392 939 q 449 972 425 972 q 489 956 472 972 m 211 956 q 219 947 211 956 q 228 915 228 939 q 211 875 228 892 q 171 858 194 858 q 131 875 147 858 q 114 915 114 892 q 131 956 114 939 q 171 972 147 972 q 211 956 194 972 z "},"Ā":{"ha":868,"x_min":7,"x_max":861,"o":"m 414 936 l 226 411 l 600 411 l 414 936 m 163 0 l 7 0 l 7 3 q 49 50 33 26 q 72 93 64 74 q 101 168 81 113 l 415 1029 l 453 1029 l 771 156 q 813 53 799 78 q 861 3 828 28 l 861 0 l 688 0 l 688 3 q 690 158 726 54 l 610 383 l 215 383 l 136 161 q 163 3 99 58 l 163 0 m 219 1213 l 635 1213 l 635 1164 l 219 1164 l 219 1213 z "},"ā":{"ha":644,"x_min":54,"x_max":631,"o":"m 250 29 q 436 101 364 29 l 436 347 q 288 315 354 338 q 173 246 221 292 q 125 140 125 200 q 156 59 125 89 q 250 29 188 29 m 525 -17 q 460 9 482 -17 q 436 78 438 35 q 217 -21 343 -21 q 98 17 142 -21 q 54 121 54 54 q 91 226 54 179 q 187 301 128 272 q 308 347 246 329 q 436 369 371 364 l 436 497 q 279 639 436 639 q 85 578 174 639 l 78 588 q 319 681 171 681 q 465 635 425 681 q 506 511 506 589 l 506 92 q 560 32 506 32 q 626 65 593 32 l 631 63 q 525 -17 600 -17 m 118 896 l 514 896 l 514 847 l 118 847 l 118 896 z "},"Ă":{"ha":868,"x_min":7,"x_max":861,"o":"m 414 936 l 226 411 l 600 411 l 414 936 m 163 0 l 7 0 l 7 3 q 49 50 33 26 q 72 93 64 74 q 101 168 81 113 l 415 1029 l 453 1029 l 771 156 q 813 53 799 78 q 861 3 828 28 l 861 0 l 688 0 l 688 3 q 690 158 726 54 l 610 383 l 215 383 l 136 161 q 163 3 99 58 l 163 0 m 425 1167 q 608 1289 563 1167 l 619 1289 q 424 1107 590 1107 q 233 1289 263 1107 l 244 1289 q 425 1167 297 1167 z "},"ă":{"ha":644,"x_min":54,"x_max":631,"o":"m 250 29 q 436 101 364 29 l 436 347 q 288 315 354 338 q 173 246 221 292 q 125 140 125 200 q 156 59 125 89 q 250 29 188 29 m 525 -17 q 460 9 482 -17 q 436 78 438 35 q 217 -21 343 -21 q 98 17 142 -21 q 54 121 54 54 q 91 226 54 179 q 187 301 128 272 q 308 347 246 329 q 436 369 371 364 l 436 497 q 279 639 436 639 q 85 578 174 639 l 78 588 q 319 681 171 681 q 465 635 425 681 q 506 511 506 589 l 506 92 q 560 32 506 32 q 626 65 593 32 l 631 63 q 525 -17 600 -17 m 301 853 q 461 963 426 853 l 472 963 q 428 845 468 897 q 300 793 389 793 q 176 846 215 793 q 132 963 136 899 l 143 963 q 301 853 179 853 z "},"Ą":{"ha":868,"x_min":7,"x_max":861,"o":"m 632 -344 q 544 -315 575 -344 q 513 -233 513 -285 q 551 -127 513 -176 q 667 -14 590 -78 q 708 72 708 22 q 690 158 708 110 l 610 383 l 215 383 l 136 161 q 163 3 99 58 l 163 0 l 7 0 l 7 3 q 49 50 33 26 q 72 93 64 74 q 101 168 81 113 l 415 1029 l 453 1029 l 771 156 q 813 53 799 78 q 861 3 828 28 l 861 0 l 715 0 q 576 -214 576 -104 q 665 -300 576 -300 q 804 -224 739 -300 l 815 -232 q 632 -344 743 -344 m 414 936 l 226 411 l 600 411 l 414 936 z "},"ą":{"ha":644,"x_min":54,"x_max":642,"o":"m 463 -344 q 371 -315 403 -344 q 339 -233 339 -286 q 388 -111 339 -174 q 510 -15 438 -49 q 438 79 440 -6 q 217 -21 340 -21 q 98 17 142 -21 q 54 121 54 54 q 91 226 54 179 q 187 301 128 272 q 308 347 246 329 q 436 369 371 364 l 436 497 q 279 639 436 639 q 85 578 174 639 l 78 588 q 319 681 171 681 q 465 635 425 681 q 506 511 506 589 l 506 92 q 560 32 506 32 q 626 65 593 32 l 631 63 q 594 8 619 29 q 574 -5 585 1 q 551 -17 564 -11 q 531 -26 538 -22 q 442 -103 481 -51 q 403 -214 403 -154 q 492 -300 403 -300 q 631 -224 565 -300 l 642 -232 q 463 -344 569 -344 m 256 32 q 356 52 307 32 q 436 101 406 72 l 436 347 q 220 281 308 332 q 132 142 132 229 q 256 32 132 32 z "},"Ć":{"ha":1031,"x_min":56,"x_max":961,"o":"m 933 88 q 780 15 885 50 q 558 -21 675 -21 q 192 130 328 -21 q 56 510 56 281 q 203 888 56 738 q 594 1038 350 1038 q 928 968 774 1038 l 956 772 l 944 769 q 791 953 875 897 q 589 1010 707 1010 q 260 872 372 1010 q 147 510 147 733 q 253 146 147 285 q 564 7 360 7 q 803 81 714 7 q 950 303 892 154 l 961 300 l 933 88 m 714 1332 l 760 1257 l 444 1086 l 439 1096 l 714 1332 z "},"ć":{"ha":664,"x_min":56,"x_max":615,"o":"m 615 154 q 519 26 589 74 q 356 -21 450 -21 q 139 70 222 -21 q 56 311 56 161 q 158 580 56 479 q 404 681 260 681 q 590 635 490 681 l 600 504 l 592 501 q 497 620 543 585 q 381 656 451 656 q 199 574 267 656 q 132 349 132 493 q 196 127 132 211 q 379 43 260 43 q 510 72 447 43 q 608 157 574 101 l 615 154 m 453 1040 l 521 988 l 282 740 l 272 749 l 453 1040 z "},"Ĉ":{"ha":1031,"x_min":56,"x_max":961,"o":"m 933 88 q 780 15 885 50 q 558 -21 675 -21 q 192 130 328 -21 q 56 510 56 281 q 203 888 56 738 q 594 1038 350 1038 q 928 968 774 1038 l 956 772 l 944 769 q 791 953 875 897 q 589 1010 707 1010 q 260 872 372 1010 q 147 510 147 733 q 253 146 147 285 q 564 7 360 7 q 803 81 714 7 q 950 303 892 154 l 961 300 l 933 88 m 565 1224 l 361 1086 l 353 1096 l 563 1313 l 568 1313 l 778 1096 l 769 1086 l 565 1224 z "},"ĉ":{"ha":664,"x_min":56,"x_max":615,"o":"m 615 154 q 519 26 589 74 q 356 -21 450 -21 q 139 70 222 -21 q 56 311 56 161 q 158 580 56 479 q 404 681 260 681 q 590 635 490 681 l 600 504 l 592 501 q 497 620 543 585 q 381 656 451 656 q 199 574 267 656 q 132 349 132 493 q 196 127 132 211 q 379 43 260 43 q 510 72 447 43 q 608 157 574 101 l 615 154 m 354 904 l 175 750 l 165 758 l 351 999 l 357 999 l 549 758 l 539 750 l 354 904 z "},"Ċ":{"ha":1031,"x_min":56,"x_max":961,"o":"m 933 88 q 780 15 885 50 q 558 -21 675 -21 q 192 130 328 -21 q 56 510 56 281 q 203 888 56 738 q 594 1038 350 1038 q 928 968 774 1038 l 956 772 l 944 769 q 791 953 875 897 q 589 1010 707 1010 q 260 872 372 1010 q 147 510 147 733 q 253 146 147 285 q 564 7 360 7 q 803 81 714 7 q 950 303 892 154 l 961 300 l 933 88 m 606 1246 q 614 1238 606 1246 q 622 1206 622 1229 q 606 1165 622 1182 q 565 1149 589 1149 q 525 1165 542 1149 q 508 1206 508 1182 q 525 1246 508 1229 q 565 1263 542 1263 q 606 1246 589 1263 z "},"ċ":{"ha":664,"x_min":56,"x_max":615,"o":"m 615 154 q 519 26 589 74 q 356 -21 450 -21 q 139 70 222 -21 q 56 311 56 161 q 158 580 56 479 q 404 681 260 681 q 590 635 490 681 l 600 504 l 592 501 q 497 620 543 585 q 381 656 451 656 q 199 574 267 656 q 132 349 132 493 q 196 127 132 211 q 379 43 260 43 q 510 72 447 43 q 608 157 574 101 l 615 154 m 397 956 q 406 947 397 956 q 414 915 414 939 q 397 875 414 892 q 357 858 381 858 q 317 875 333 858 q 300 915 300 892 q 317 956 300 939 q 357 972 333 972 q 397 956 381 972 z "},"Č":{"ha":1031,"x_min":56,"x_max":961,"o":"m 933 88 q 780 15 885 50 q 558 -21 675 -21 q 192 130 328 -21 q 56 510 56 281 q 203 888 56 738 q 594 1038 350 1038 q 928 968 774 1038 l 956 772 l 944 769 q 791 953 875 897 q 589 1010 707 1010 q 260 872 372 1010 q 147 510 147 733 q 253 146 147 285 q 564 7 360 7 q 803 81 714 7 q 950 303 892 154 l 961 300 l 933 88 m 563 1086 l 353 1303 l 361 1313 l 565 1175 l 769 1313 l 778 1303 l 568 1086 l 563 1086 z "},"č":{"ha":664,"x_min":56,"x_max":615,"o":"m 615 154 q 519 26 589 74 q 356 -21 450 -21 q 139 70 222 -21 q 56 311 56 161 q 158 580 56 479 q 404 681 260 681 q 590 635 490 681 l 600 504 l 592 501 q 497 620 543 585 q 381 656 451 656 q 199 574 267 656 q 132 349 132 493 q 196 127 132 211 q 379 43 260 43 q 510 72 447 43 q 608 157 574 101 l 615 154 m 165 990 l 175 999 l 354 844 l 539 999 l 549 990 l 357 750 l 351 750 l 165 990 z "},"Ď":{"ha":996,"x_min":72,"x_max":940,"o":"m 72 3 q 117 95 106 57 q 128 203 128 133 l 128 814 q 117 922 128 883 q 72 1014 106 960 l 72 1017 q 266 1019 164 1017 q 463 1022 368 1022 q 814 890 688 1022 q 940 513 940 757 q 810 132 940 264 q 435 0 679 0 l 72 0 l 72 3 m 203 996 l 203 26 l 421 28 q 747 144 646 28 q 849 493 849 260 q 749 871 849 749 q 449 994 650 993 l 203 996 m 447 1086 l 238 1303 l 246 1313 l 450 1175 l 654 1313 l 663 1303 l 453 1086 l 447 1086 z "},"ď":{"ha":754,"x_min":56,"x_max":836,"o":"m 375 26 q 581 147 504 26 l 581 461 q 528 611 581 567 q 400 656 475 656 q 210 564 285 656 q 136 331 136 472 q 203 109 136 192 q 375 26 269 26 m 582 119 q 335 -21 504 -21 q 132 67 208 -21 q 56 306 56 156 q 158 569 56 458 q 419 681 260 681 q 581 643 513 681 l 581 935 q 519 1021 581 989 l 519 1024 l 650 1082 l 650 149 q 662 65 650 86 q 711 28 674 43 l 711 25 l 588 -17 l 588 119 l 582 119 m 749 1076 l 836 1076 l 714 794 l 704 797 l 749 1076 z "},"Đ":{"ha":1010,"x_min":3,"x_max":954,"o":"m 3 522 l 142 522 l 142 814 q 131 922 142 883 q 86 1014 119 960 l 86 1017 q 280 1019 178 1017 q 476 1022 382 1022 q 828 890 701 1022 q 954 513 954 757 q 824 132 954 264 q 449 0 693 0 l 86 0 l 86 3 q 131 95 119 57 q 142 203 142 133 l 142 497 l 3 497 l 3 522 m 217 996 l 217 522 l 528 522 l 528 497 l 217 497 l 217 26 l 435 28 q 761 144 660 28 q 863 493 863 260 q 763 871 863 749 q 463 994 664 993 l 217 996 z "},"đ":{"ha":754,"x_min":56,"x_max":754,"o":"m 582 119 q 335 -21 504 -21 q 132 67 208 -21 q 56 306 56 156 q 158 569 56 458 q 419 681 260 681 q 581 643 513 681 l 581 804 l 310 804 l 310 829 l 581 829 l 581 935 q 519 1021 581 989 l 519 1024 l 650 1082 l 650 829 l 754 829 l 754 804 l 650 804 l 650 149 q 662 65 650 86 q 711 28 674 43 l 711 25 l 588 -17 l 588 119 l 582 119 m 375 26 q 581 147 504 26 l 581 461 q 528 611 581 567 q 400 656 475 656 q 210 564 285 656 q 136 331 136 472 q 203 109 136 192 q 375 26 269 26 z "},"Ē":{"ha":813,"x_min":72,"x_max":792,"o":"m 729 0 l 72 0 l 72 3 q 126 160 126 85 l 126 857 q 72 1014 126 932 l 72 1017 l 660 1017 l 714 815 l 703 811 q 581 967 613 940 q 544 985 560 983 l 203 993 l 203 525 l 426 525 q 459 542 443 525 q 498 598 475 558 q 525 643 521 638 l 536 643 l 536 386 l 525 386 q 508 413 519 394 q 489 442 497 431 q 469 469 481 454 q 447 490 458 483 q 426 497 436 497 l 203 497 l 203 24 l 554 33 q 665 83 615 36 q 781 229 715 131 l 792 225 l 729 0 m 176 1213 l 592 1213 l 592 1164 l 176 1164 l 176 1213 z "},"ē":{"ha":664,"x_min":56,"x_max":619,"o":"m 361 656 q 215 598 274 656 q 139 435 157 540 l 524 443 l 524 451 q 361 656 524 656 m 615 154 q 519 26 589 74 q 354 -21 450 -21 q 138 73 219 -21 q 56 319 56 167 q 146 580 56 479 q 365 681 236 681 q 550 601 481 681 q 611 414 619 521 l 136 414 q 132 350 132 385 q 196 127 132 211 q 379 43 260 43 q 511 72 449 43 q 608 157 574 100 l 615 154 m 142 896 l 538 896 l 538 847 l 142 847 l 142 896 z "},"Ĕ":{"ha":813,"x_min":72,"x_max":792,"o":"m 729 0 l 72 0 l 72 3 q 126 160 126 85 l 126 857 q 72 1014 126 932 l 72 1017 l 660 1017 l 714 815 l 703 811 q 581 967 613 940 q 544 985 560 983 l 203 993 l 203 525 l 426 525 q 459 542 443 525 q 498 598 475 558 q 525 643 521 638 l 536 643 l 536 386 l 525 386 q 508 413 519 394 q 489 442 497 431 q 469 469 481 454 q 447 490 458 483 q 426 497 436 497 l 203 497 l 203 24 l 554 33 q 665 83 615 36 q 781 229 715 131 l 792 225 l 729 0 m 382 1167 q 565 1289 519 1167 l 576 1289 q 381 1107 547 1107 q 190 1289 219 1107 l 201 1289 q 382 1167 254 1167 z "},"ĕ":{"ha":664,"x_min":56,"x_max":619,"o":"m 361 656 q 215 598 274 656 q 139 435 157 540 l 524 443 l 524 451 q 361 656 524 656 m 615 154 q 519 26 589 74 q 354 -21 450 -21 q 138 73 219 -21 q 56 319 56 167 q 146 580 56 479 q 365 681 236 681 q 550 601 481 681 q 611 414 619 521 l 136 414 q 132 350 132 385 q 196 127 132 211 q 379 43 260 43 q 511 72 449 43 q 608 157 574 100 l 615 154 m 325 853 q 485 963 450 853 l 496 963 q 452 845 492 897 q 324 793 413 793 q 199 846 239 793 q 156 963 160 899 l 167 963 q 325 853 203 853 z "},"Ė":{"ha":813,"x_min":72,"x_max":792,"o":"m 729 0 l 72 0 l 72 3 q 126 160 126 85 l 126 857 q 72 1014 126 932 l 72 1017 l 660 1017 l 714 815 l 703 811 q 581 967 613 940 q 544 985 560 983 l 203 993 l 203 525 l 426 525 q 459 542 443 525 q 498 598 475 558 q 525 643 521 638 l 536 643 l 536 386 l 525 386 q 508 413 519 394 q 489 442 497 431 q 469 469 481 454 q 447 490 458 483 q 426 497 436 497 l 203 497 l 203 24 l 554 33 q 665 83 615 36 q 781 229 715 131 l 792 225 l 729 0 m 424 1246 q 432 1238 424 1246 q 440 1206 440 1229 q 424 1165 440 1182 q 383 1149 407 1149 q 343 1165 360 1149 q 326 1206 326 1182 q 343 1246 326 1229 q 383 1263 360 1263 q 424 1246 407 1263 z "},"ė":{"ha":664,"x_min":56,"x_max":619,"o":"m 361 656 q 215 598 274 656 q 139 435 157 540 l 524 443 l 524 451 q 361 656 524 656 m 615 154 q 519 26 589 74 q 354 -21 450 -21 q 138 73 219 -21 q 56 319 56 167 q 146 580 56 479 q 365 681 236 681 q 550 601 481 681 q 611 414 619 521 l 136 414 q 132 350 132 385 q 196 127 132 211 q 379 43 260 43 q 511 72 449 43 q 608 157 574 100 l 615 154 m 379 956 q 388 947 379 956 q 396 915 396 939 q 379 875 396 892 q 339 858 363 858 q 299 875 315 858 q 282 915 282 892 q 299 956 282 939 q 339 972 315 972 q 379 956 363 972 z "},"Ę":{"ha":813,"x_min":72,"x_max":792,"o":"m 729 0 l 619 0 q 518 -104 553 -50 q 482 -214 482 -161 q 571 -300 482 -300 q 710 -224 644 -300 l 721 -232 q 542 -344 649 -344 q 450 -315 482 -344 q 418 -233 418 -286 q 465 -114 418 -167 q 589 0 521 -53 l 72 0 l 72 3 q 126 160 126 85 l 126 857 q 72 1014 126 932 l 72 1017 l 660 1017 l 714 815 l 703 811 q 581 967 613 940 q 544 985 560 983 l 203 993 l 203 525 l 426 525 q 459 542 443 525 q 498 598 475 558 q 525 643 521 638 l 536 643 l 536 386 l 525 386 q 508 413 519 394 q 489 442 497 431 q 469 469 481 454 q 447 490 458 483 q 426 497 436 497 l 203 497 l 203 24 l 554 33 q 665 83 615 36 q 781 229 715 131 l 792 225 l 729 0 z "},"ę":{"ha":664,"x_min":56,"x_max":615,"o":"m 361 656 q 215 598 274 656 q 139 435 157 540 l 518 443 l 518 451 q 361 656 518 656 m 553 -232 q 374 -344 481 -344 q 250 -232 250 -344 q 411 -18 250 -115 q 353 -21 378 -21 q 137 71 218 -21 q 56 315 56 163 q 146 581 56 481 q 367 681 236 681 q 547 603 481 681 q 606 414 614 525 l 136 414 q 132 350 132 385 q 194 126 132 210 q 379 43 256 43 q 510 72 447 43 q 608 157 574 101 l 615 154 q 519 26 590 79 q 436 -28 496 10 q 314 -211 314 -106 q 403 -300 314 -300 q 542 -224 476 -300 l 553 -232 z "},"Ě":{"ha":813,"x_min":72,"x_max":792,"o":"m 729 0 l 72 0 l 72 3 q 126 160 126 85 l 126 857 q 72 1014 126 932 l 72 1017 l 660 1017 l 714 815 l 703 811 q 581 967 613 940 q 544 985 560 983 l 203 993 l 203 525 l 426 525 q 459 542 443 525 q 498 598 475 558 q 525 643 521 638 l 536 643 l 536 386 l 525 386 q 508 413 519 394 q 489 442 497 431 q 469 469 481 454 q 447 490 458 483 q 426 497 436 497 l 203 497 l 203 24 l 554 33 q 665 83 615 36 q 781 229 715 131 l 792 225 l 729 0 m 408 1086 l 199 1303 l 207 1313 l 411 1175 l 615 1313 l 624 1303 l 414 1086 l 408 1086 z "},"ě":{"ha":664,"x_min":56,"x_max":619,"o":"m 361 656 q 215 598 274 656 q 139 435 157 540 l 524 443 l 524 451 q 361 656 524 656 m 615 154 q 519 26 589 74 q 354 -21 450 -21 q 138 73 219 -21 q 56 319 56 167 q 146 580 56 479 q 365 681 236 681 q 550 601 481 681 q 611 414 619 521 l 136 414 q 132 350 132 385 q 196 127 132 211 q 379 43 260 43 q 511 72 449 43 q 608 157 574 100 l 615 154 m 147 990 l 157 999 l 336 844 l 521 999 l 531 990 l 339 750 l 333 750 l 147 990 z "},"Ĝ":{"ha":1114,"x_min":56,"x_max":1067,"o":"m 1011 126 q 987 110 1010 126 q 956 89 964 93 q 922 69 947 85 q 880 46 896 53 q 835 26 864 39 q 782 6 807 13 q 725 -8 757 0 q 658 -18 693 -15 q 588 -21 624 -21 q 201 130 346 -21 q 56 508 56 281 q 208 887 56 736 q 613 1038 360 1038 q 968 971 800 1038 l 997 772 l 986 768 q 840 952 931 894 q 600 1010 750 1010 q 263 869 378 1010 q 147 507 147 729 q 255 144 147 281 q 588 7 363 7 q 844 64 747 7 q 942 228 942 121 q 928 380 942 333 q 878 458 915 426 l 878 461 l 1067 461 l 1067 458 q 1022 386 1033 425 q 1011 265 1011 347 l 1011 126 m 565 1224 l 361 1086 l 353 1096 l 563 1313 l 568 1313 l 778 1096 l 769 1086 l 565 1224 z "},"ĝ":{"ha":663,"x_min":21,"x_max":642,"o":"m 188 303 q 210 273 188 303 q 311 243 232 243 q 434 303 390 243 q 478 449 478 363 q 435 596 478 536 q 310 656 392 656 q 186 595 228 656 q 144 449 144 535 q 188 303 144 364 m 639 -108 q 550 -256 639 -200 q 313 -312 461 -312 q 100 -267 179 -312 q 21 -146 21 -222 q 59 -48 21 -90 q 151 8 97 -6 q 51 107 51 31 q 96 196 51 163 q 204 243 140 229 q 104 326 142 271 q 67 449 67 382 q 138 611 67 542 q 310 681 210 681 q 474 621 406 681 l 639 696 l 642 694 l 642 606 l 636 606 l 488 608 q 556 449 556 540 q 483 286 556 354 q 311 218 411 218 q 222 235 264 218 q 117 133 117 201 q 238 67 117 72 l 397 61 q 580 10 521 56 q 639 -108 639 -36 m 156 -247 q 189 -267 156 -247 q 336 -287 222 -287 q 515 -247 450 -287 q 579 -133 579 -207 q 375 -1 579 -8 l 221 1 q 172 6 193 1 q 115 -40 139 -3 q 90 -128 90 -78 q 156 -247 90 -206 m 308 904 l 129 750 l 119 758 l 306 999 l 311 999 l 503 758 l 493 750 l 308 904 z "},"Ğ":{"ha":1114,"x_min":56,"x_max":1067,"o":"m 1011 126 q 987 110 1010 126 q 956 89 964 93 q 922 69 947 85 q 880 46 896 53 q 835 26 864 39 q 782 6 807 13 q 725 -8 757 0 q 658 -18 693 -15 q 588 -21 624 -21 q 201 130 346 -21 q 56 508 56 281 q 208 887 56 736 q 613 1038 360 1038 q 968 971 800 1038 l 997 772 l 986 768 q 840 952 931 894 q 600 1010 750 1010 q 263 869 378 1010 q 147 507 147 729 q 255 144 147 281 q 588 7 363 7 q 844 64 747 7 q 942 228 942 121 q 928 380 942 333 q 878 458 915 426 l 878 461 l 1067 461 l 1067 458 q 1022 386 1033 425 q 1011 265 1011 347 l 1011 126 m 564 1167 q 747 1289 701 1167 l 758 1289 q 563 1107 729 1107 q 372 1289 401 1107 l 383 1289 q 564 1167 436 1167 z "},"ğ":{"ha":663,"x_min":21,"x_max":642,"o":"m 188 303 q 210 273 188 303 q 311 243 232 243 q 434 303 390 243 q 478 449 478 363 q 435 596 478 536 q 310 656 392 656 q 186 595 228 656 q 144 449 144 535 q 188 303 144 364 m 639 -108 q 550 -256 639 -200 q 313 -312 461 -312 q 100 -267 179 -312 q 21 -146 21 -222 q 59 -48 21 -90 q 151 8 97 -6 q 51 107 51 31 q 96 196 51 163 q 204 243 140 229 q 104 326 142 271 q 67 449 67 382 q 138 611 67 542 q 310 681 210 681 q 474 621 406 681 l 639 696 l 642 694 l 642 606 l 636 606 l 488 608 q 556 449 556 540 q 483 286 556 354 q 311 218 411 218 q 222 235 264 218 q 117 133 117 201 q 238 67 117 72 l 397 61 q 580 10 521 56 q 639 -108 639 -36 m 156 -247 q 189 -267 156 -247 q 336 -287 222 -287 q 515 -247 450 -287 q 579 -133 579 -207 q 375 -1 579 -8 l 221 1 q 172 6 193 1 q 115 -40 139 -3 q 90 -128 90 -78 q 156 -247 90 -206 m 317 853 q 476 963 442 853 l 488 963 q 444 845 483 897 q 315 793 404 793 q 191 846 231 793 q 147 963 151 899 l 158 963 q 317 853 194 853 z "},"Ġ":{"ha":1114,"x_min":56,"x_max":1067,"o":"m 1011 126 q 987 110 1010 126 q 956 89 964 93 q 922 69 947 85 q 880 46 896 53 q 835 26 864 39 q 782 6 807 13 q 725 -8 757 0 q 658 -18 693 -15 q 588 -21 624 -21 q 201 130 346 -21 q 56 508 56 281 q 208 887 56 736 q 613 1038 360 1038 q 968 971 800 1038 l 997 772 l 986 768 q 840 952 931 894 q 600 1010 750 1010 q 263 869 378 1010 q 147 507 147 729 q 255 144 147 281 q 588 7 363 7 q 844 64 747 7 q 942 228 942 121 q 928 380 942 333 q 878 458 915 426 l 878 461 l 1067 461 l 1067 458 q 1022 386 1033 425 q 1011 265 1011 347 l 1011 126 m 606 1246 q 614 1238 606 1246 q 622 1206 622 1229 q 606 1165 622 1182 q 565 1149 589 1149 q 525 1165 542 1149 q 508 1206 508 1182 q 525 1246 508 1229 q 565 1263 542 1263 q 606 1246 589 1263 z "},"ġ":{"ha":663,"x_min":21,"x_max":642,"o":"m 188 303 q 210 273 188 303 q 311 243 232 243 q 434 303 390 243 q 478 449 478 363 q 435 596 478 536 q 310 656 392 656 q 186 595 228 656 q 144 449 144 535 q 188 303 144 364 m 639 -108 q 550 -256 639 -200 q 313 -312 461 -312 q 100 -267 179 -312 q 21 -146 21 -222 q 59 -48 21 -90 q 151 8 97 -6 q 51 107 51 31 q 96 196 51 163 q 204 243 140 229 q 104 326 142 271 q 67 449 67 382 q 138 611 67 542 q 310 681 210 681 q 474 621 406 681 l 639 696 l 642 694 l 642 606 l 636 606 l 488 608 q 556 449 556 540 q 483 286 556 354 q 311 218 411 218 q 222 235 264 218 q 117 133 117 201 q 238 67 117 72 l 397 61 q 580 10 521 56 q 639 -108 639 -36 m 156 -247 q 189 -267 156 -247 q 336 -287 222 -287 q 515 -247 450 -287 q 579 -133 579 -207 q 375 -1 579 -8 l 221 1 q 172 6 193 1 q 115 -40 139 -3 q 90 -128 90 -78 q 156 -247 90 -206 m 351 956 q 360 947 351 956 q 368 915 368 939 q 351 875 368 892 q 311 858 335 858 q 271 875 288 858 q 254 915 254 892 q 271 956 254 939 q 311 972 288 972 q 351 956 335 972 z "},"Ģ":{"ha":1114,"x_min":56,"x_max":1067,"o":"m 1011 126 q 987 110 1010 126 q 956 89 964 93 q 922 69 947 85 q 880 46 896 53 q 835 26 864 39 q 782 6 807 13 q 725 -8 757 0 q 658 -18 693 -15 q 588 -21 624 -21 q 201 130 346 -21 q 56 508 56 281 q 208 887 56 736 q 613 1038 360 1038 q 968 971 800 1038 l 997 772 l 986 768 q 840 952 931 894 q 600 1010 750 1010 q 263 869 378 1010 q 147 507 147 729 q 255 144 147 281 q 588 7 363 7 q 844 64 747 7 q 942 228 942 121 q 928 380 942 333 q 878 458 915 426 l 878 461 l 1067 461 l 1067 458 q 1022 386 1033 425 q 1011 265 1011 347 l 1011 126 m 508 -303 q 557 -253 538 -282 q 576 -201 576 -225 q 531 -119 576 -160 l 531 -117 l 597 -67 q 642 -151 642 -97 q 514 -311 642 -229 l 508 -303 z "},"ģ":{"ha":663,"x_min":21,"x_max":642,"o":"m 188 303 q 210 273 188 303 q 311 243 232 243 q 434 303 390 243 q 478 449 478 363 q 435 596 478 536 q 310 656 392 656 q 186 595 228 656 q 144 449 144 535 q 188 303 144 364 m 639 -108 q 550 -256 639 -200 q 313 -312 461 -312 q 100 -267 179 -312 q 21 -146 21 -222 q 59 -48 21 -90 q 151 8 97 -6 q 51 107 51 31 q 96 196 51 163 q 204 243 140 229 q 104 326 142 271 q 67 449 67 382 q 138 611 67 542 q 310 681 210 681 q 474 621 406 681 l 639 696 l 642 694 l 642 606 l 636 606 l 488 608 q 556 449 556 540 q 483 286 556 354 q 311 218 411 218 q 222 235 264 218 q 117 133 117 201 q 238 67 117 72 l 397 61 q 580 10 521 56 q 639 -108 639 -36 m 156 -247 q 189 -267 156 -247 q 336 -287 222 -287 q 515 -247 450 -287 q 579 -133 579 -207 q 375 -1 579 -8 l 221 1 q 172 6 193 1 q 115 -40 139 -3 q 90 -128 90 -78 q 156 -247 90 -206 m 388 1039 q 339 990 358 1018 q 319 938 319 961 q 365 856 319 896 l 365 853 l 299 803 q 254 888 254 833 q 382 1047 254 965 l 388 1039 z "},"Ĥ":{"ha":989,"x_min":72,"x_max":917,"o":"m 72 3 q 117 81 106 49 q 128 172 128 114 l 128 844 q 117 935 128 903 q 72 1014 106 968 l 72 1017 l 258 1017 l 258 1014 q 214 935 225 968 q 203 844 203 903 l 203 539 l 786 539 l 786 844 q 775 935 786 903 q 731 1014 764 968 l 731 1017 l 917 1017 l 917 1014 q 872 935 883 968 q 861 844 861 903 l 861 172 q 872 81 861 114 q 917 3 883 49 l 917 0 l 731 0 l 731 3 q 775 81 764 49 q 786 172 786 114 l 786 511 l 203 511 l 203 172 q 214 81 203 114 q 258 3 225 49 l 258 0 l 72 0 l 72 3 m 494 1224 l 290 1086 l 282 1096 l 492 1313 l 497 1313 l 707 1096 l 699 1086 l 494 1224 z "},"ĥ":{"ha":718,"x_min":44,"x_max":650,"o":"m 75 0 l 75 3 q 106 165 106 60 l 106 917 q 44 1021 106 981 l 44 1024 l 175 1082 l 175 560 q 425 681 278 681 q 570 627 521 681 q 619 478 619 574 l 619 167 q 624 68 619 101 q 650 3 629 35 l 650 0 l 519 0 l 519 3 q 550 165 550 60 l 550 463 q 394 626 550 626 q 175 535 265 626 l 175 165 q 180 69 175 103 q 206 3 185 36 l 206 0 l 75 0 m 383 1265 l 179 1128 l 171 1138 l 381 1354 l 386 1354 l 596 1138 l 588 1128 l 383 1265 z "},"Ħ":{"ha":1017,"x_min":3,"x_max":1014,"o":"m 86 3 q 131 81 119 49 q 142 172 142 114 l 142 761 l 3 761 l 3 786 l 142 786 l 142 844 q 131 935 142 903 q 86 1014 119 968 l 86 1017 l 272 1017 l 272 1014 q 228 935 239 968 q 217 844 217 903 l 217 786 l 800 786 l 800 844 q 789 935 800 903 q 744 1014 778 968 l 744 1017 l 931 1017 l 931 1014 q 886 935 897 968 q 875 844 875 903 l 875 786 l 1014 786 l 1014 761 l 875 761 l 875 172 q 886 81 875 114 q 931 3 897 49 l 931 0 l 744 0 l 744 3 q 789 81 778 49 q 800 172 800 114 l 800 511 l 217 511 l 217 172 q 228 81 217 114 q 272 3 239 49 l 272 0 l 86 0 l 86 3 m 800 539 l 800 761 l 217 761 l 217 539 l 800 539 z "},"ħ":{"ha":718,"x_min":0,"x_max":646,"o":"m 71 0 l 71 3 q 101 165 101 60 l 101 804 l 0 804 l 0 829 l 101 829 l 101 917 q 40 1021 101 981 l 40 1024 l 171 1082 l 171 829 l 444 829 l 444 804 l 171 804 l 171 560 q 421 681 274 681 q 566 627 517 681 q 615 478 615 574 l 615 167 q 620 68 615 101 q 646 3 625 35 l 646 0 l 515 0 l 515 3 q 546 165 546 60 l 546 463 q 390 626 546 626 q 171 535 261 626 l 171 165 q 176 69 171 103 q 201 3 181 36 l 201 0 l 71 0 z "},"Ĩ":{"ha":331,"x_min":-64,"x_max":394,"o":"m 74 3 q 117 79 107 47 q 128 172 128 111 l 128 844 q 117 935 128 903 q 72 1014 106 968 l 72 1017 l 258 1017 l 258 1014 q 214 935 225 968 q 203 844 203 903 l 203 172 q 214 81 203 114 q 260 3 225 49 l 258 0 l 72 0 l 74 3 m 56 1253 q 179 1215 101 1253 q 296 1176 257 1176 q 352 1197 333 1176 q 383 1267 371 1218 l 394 1265 q 275 1106 382 1106 q 151 1144 229 1106 q 35 1182 74 1182 q -22 1161 -3 1182 q -53 1092 -40 1140 l -64 1093 q 56 1253 -51 1253 z "},"ĩ":{"ha":274,"x_min":-72,"x_max":331,"o":"m 75 3 q 106 165 106 60 l 106 510 q 44 613 106 572 l 44 615 l 175 688 l 175 167 q 180 69 175 103 q 206 3 185 36 l 206 0 l 75 0 l 75 3 m 39 947 q 135 917 75 947 q 235 886 194 886 q 319 961 300 886 l 331 960 q 219 822 319 822 q 124 853 183 822 q 24 883 64 883 q -61 808 -42 883 l -72 810 q 39 947 -61 947 z "},"Ī":{"ha":331,"x_min":-42,"x_max":374,"o":"m 74 3 q 117 79 107 47 q 128 172 128 111 l 128 844 q 117 935 128 903 q 72 1014 106 968 l 72 1017 l 258 1017 l 258 1014 q 214 935 225 968 q 203 844 203 903 l 203 172 q 214 81 203 114 q 260 3 225 49 l 258 0 l 72 0 l 74 3 m -42 1213 l 374 1213 l 374 1164 l -42 1164 l -42 1213 z "},"ī":{"ha":274,"x_min":-14,"x_max":257,"o":"m -14 896 l 257 896 l 257 847 l -14 847 l -14 896 m 75 3 q 106 165 106 60 l 106 510 q 44 613 106 572 l 44 615 l 175 688 l 175 167 q 180 69 175 103 q 206 3 185 36 l 206 0 l 75 0 l 75 3 z "},"Ĭ":{"ha":331,"x_min":-28,"x_max":358,"o":"m 74 3 q 117 79 107 47 q 128 172 128 111 l 128 844 q 117 935 128 903 q 72 1014 106 968 l 72 1017 l 258 1017 l 258 1014 q 214 935 225 968 q 203 844 203 903 l 203 172 q 214 81 203 114 q 260 3 225 49 l 258 0 l 72 0 l 74 3 m 164 1167 q 347 1289 301 1167 l 358 1289 q 163 1107 329 1107 q -28 1289 1 1107 l -17 1289 q 164 1167 36 1167 z "},"ĭ":{"ha":274,"x_min":-39,"x_max":301,"o":"m 75 3 q 106 165 106 60 l 106 510 q 44 613 106 572 l 44 615 l 175 688 l 175 167 q 180 69 175 103 q 206 3 185 36 l 206 0 l 75 0 l 75 3 m 131 853 q 290 963 256 853 l 301 963 q 258 845 297 897 q 129 793 218 793 q 5 846 44 793 q -39 963 -35 899 l -28 963 q 131 853 8 853 z "},"Į":{"ha":331,"x_min":19,"x_max":322,"o":"m 74 3 q 117 79 107 47 q 128 172 128 111 l 128 844 q 117 935 128 903 q 72 1014 106 968 l 72 1017 l 258 1017 l 258 1014 q 214 935 225 968 q 203 844 203 903 l 203 172 q 214 81 203 114 q 260 3 225 49 l 258 0 l 221 0 q 119 -104 154 -50 q 83 -214 83 -161 q 172 -300 83 -300 q 311 -224 246 -300 l 322 -232 q 143 -344 250 -344 q 51 -315 83 -344 q 19 -233 19 -286 q 67 -114 19 -167 q 190 0 122 -53 l 72 0 l 74 3 z "},"į":{"ha":274,"x_min":-21,"x_max":282,"o":"m 75 3 q 106 165 106 60 l 106 510 q 44 613 106 572 l 44 615 l 175 688 l 175 167 q 180 69 175 103 q 206 3 185 36 l 206 0 l 181 0 q 79 -104 114 -50 q 43 -214 43 -161 q 132 -300 43 -300 q 271 -224 206 -300 l 282 -232 q 103 -344 210 -344 q 11 -315 43 -344 q -21 -233 -21 -286 q 26 -114 -21 -167 q 150 0 82 -53 l 75 0 l 75 3 m 176 956 q 185 947 176 956 q 193 915 193 939 q 176 875 193 892 q 136 858 160 858 q 96 875 113 858 q 79 915 79 892 q 96 956 79 939 q 136 972 113 972 q 176 956 160 972 z "},"İ":{"ha":331,"x_min":72,"x_max":260,"o":"m 74 3 q 117 79 107 47 q 128 172 128 111 l 128 844 q 117 935 128 903 q 72 1014 106 968 l 72 1017 l 258 1017 l 258 1014 q 214 935 225 968 q 203 844 203 903 l 203 172 q 214 81 203 114 q 260 3 225 49 l 258 0 l 72 0 l 74 3 m 206 1246 q 214 1238 206 1246 q 222 1206 222 1229 q 206 1165 222 1182 q 165 1149 189 1149 q 125 1165 142 1149 q 108 1206 108 1182 q 125 1246 108 1229 q 165 1263 142 1263 q 206 1246 189 1263 z "},"ı":{"ha":274,"x_min":44,"x_max":206,"o":"m 75 3 q 106 165 106 60 l 106 510 q 44 613 106 572 l 44 615 l 175 688 l 175 167 q 180 69 175 103 q 206 3 185 36 l 206 0 l 75 0 l 75 3 z "},"Ĳ":{"ha":836,"x_min":72,"x_max":778,"o":"m 74 3 q 117 79 107 47 q 128 172 128 111 l 128 844 q 117 935 128 903 q 72 1014 106 968 l 72 1017 l 258 1017 l 258 1014 q 214 935 225 968 q 203 844 203 903 l 203 172 q 214 81 203 114 q 260 3 225 49 l 258 0 l 72 0 l 74 3 m 722 164 q 676 27 722 75 q 544 -21 631 -21 q 408 10 474 -21 l 383 183 l 394 188 q 568 7 482 7 q 647 142 647 7 l 647 844 q 636 935 647 903 q 592 1014 625 968 l 592 1017 l 778 1017 l 778 1014 q 733 935 744 968 q 722 844 722 903 l 722 164 z "},"ĳ":{"ha":542,"x_min":44,"x_max":471,"o":"m 176 956 q 185 947 176 956 q 193 915 193 939 q 176 875 193 892 q 136 858 160 858 q 96 875 113 858 q 79 915 79 892 q 96 956 79 939 q 136 972 113 972 q 176 956 160 972 m 75 3 q 106 165 106 60 l 106 510 q 44 613 106 572 l 44 615 l 175 688 l 175 167 q 180 69 175 103 q 206 3 185 36 l 206 0 l 75 0 l 75 3 m 454 956 q 463 947 454 956 q 471 915 471 939 q 454 875 471 892 q 414 858 438 858 q 374 875 390 858 q 357 915 357 892 q 374 956 357 939 q 414 972 390 972 q 454 956 438 972 m 293 -292 q 363 -225 342 -265 q 383 -97 383 -185 l 383 510 q 322 613 383 572 l 322 615 l 453 688 l 450 -78 q 413 -238 450 -187 q 296 -299 376 -289 l 293 -292 z "},"Ĵ":{"ha":493,"x_min":40,"x_max":554,"o":"m 379 164 q 333 27 379 75 q 201 -21 288 -21 q 65 10 131 -21 l 40 183 l 51 188 q 225 7 139 7 q 304 142 304 7 l 304 844 q 293 935 304 903 q 249 1014 282 968 l 249 1017 l 435 1017 l 435 1014 q 390 935 401 968 q 379 844 379 903 l 379 164 m 342 1224 l 138 1086 l 129 1096 l 339 1313 l 344 1313 l 554 1096 l 546 1086 l 342 1224 z "},"ĵ":{"ha":264,"x_min":-49,"x_max":335,"o":"m 19 -331 q 89 -264 68 -304 q 110 -136 110 -224 l 110 510 q 49 613 110 572 l 49 615 l 179 688 l 176 -117 q 140 -277 176 -226 q 22 -337 103 -328 l 19 -331 m 140 904 l -39 750 l -49 758 l 138 999 l 143 999 l 335 758 l 325 750 l 140 904 z "},"Ķ":{"ha":839,"x_min":72,"x_max":825,"o":"m 74 3 q 117 79 107 47 q 128 172 128 111 l 128 844 q 117 935 128 903 q 72 1014 106 968 l 72 1017 l 258 1017 l 258 1014 q 214 935 225 968 q 203 844 203 903 l 203 172 q 214 81 203 114 q 260 3 225 49 l 258 0 l 72 0 l 74 3 m 686 0 l 253 529 l 568 863 q 571 1014 644 943 l 571 1017 l 800 1017 l 800 1014 q 715 964 753 992 q 662 921 676 936 q 610 865 647 906 l 322 561 l 647 164 q 746 54 714 83 q 824 3 778 25 l 825 0 l 686 0 m 379 -303 q 428 -253 408 -282 q 447 -201 447 -225 q 401 -119 447 -160 l 401 -117 l 468 -67 q 513 -151 513 -97 q 385 -311 513 -229 l 379 -303 z "},"ķ":{"ha":607,"x_min":44,"x_max":593,"o":"m 75 3 q 106 165 106 60 l 106 935 q 44 1021 106 989 l 44 1024 l 175 1082 l 175 167 q 181 70 175 104 q 206 3 186 36 l 206 0 l 75 0 l 75 3 m 468 0 l 210 346 l 407 569 q 394 657 453 625 l 394 660 l 556 660 l 556 657 q 488 619 508 636 q 431 558 467 601 l 274 381 l 463 128 q 531 49 504 75 q 593 3 558 22 l 593 0 l 468 0 m 240 -303 q 289 -253 269 -282 q 308 -201 308 -225 q 263 -119 308 -160 l 263 -117 l 329 -67 q 374 -151 374 -97 q 246 -311 374 -229 l 240 -303 z "},"Ĺ":{"ha":751,"x_min":39,"x_max":731,"o":"m 72 0 l 72 3 q 117 81 106 49 q 128 172 128 114 l 128 844 q 117 935 128 903 q 72 1014 106 968 l 72 1017 l 258 1017 l 258 1014 q 214 935 225 968 q 203 844 203 903 l 203 24 l 492 33 q 610 82 558 36 q 719 229 661 128 l 731 225 l 667 0 l 72 0 m 314 1332 l 360 1257 l 44 1086 l 39 1096 l 314 1332 z "},"ĺ":{"ha":274,"x_min":-7,"x_max":314,"o":"m 75 3 q 106 165 106 60 l 106 935 q 44 1021 106 989 l 44 1024 l 175 1082 l 175 167 q 181 70 175 104 q 206 3 186 36 l 206 0 l 75 0 l 75 3 m 268 1332 l 314 1257 l -1 1086 l -7 1096 l 268 1332 z "},"Ļ":{"ha":751,"x_min":72,"x_max":731,"o":"m 72 0 l 72 3 q 117 81 106 49 q 128 172 128 114 l 128 844 q 117 935 128 903 q 72 1014 106 968 l 72 1017 l 258 1017 l 258 1014 q 214 935 225 968 q 203 844 203 903 l 203 24 l 492 33 q 610 82 558 36 q 719 229 661 128 l 731 225 l 667 0 l 72 0 m 339 -303 q 388 -253 368 -282 q 407 -201 407 -225 q 361 -119 407 -160 l 361 -117 l 428 -67 q 472 -151 472 -97 q 344 -311 472 -229 l 339 -303 z "},"ļ":{"ha":274,"x_min":44,"x_max":206,"o":"m 75 3 q 106 165 106 60 l 106 935 q 44 1021 106 989 l 44 1024 l 175 1082 l 175 167 q 181 70 175 104 q 206 3 186 36 l 206 0 l 75 0 l 75 3 m 58 -303 q 107 -253 88 -282 q 126 -201 126 -225 q 81 -119 126 -160 l 81 -117 l 147 -67 q 192 -151 192 -97 q 64 -311 192 -229 l 58 -303 z "},"Ľ":{"ha":751,"x_min":72,"x_max":731,"o":"m 72 0 l 72 3 q 117 81 106 49 q 128 172 128 114 l 128 844 q 117 935 128 903 q 72 1014 106 968 l 72 1017 l 258 1017 l 258 1014 q 214 935 225 968 q 203 844 203 903 l 203 24 l 492 33 q 610 82 558 36 q 719 229 661 128 l 731 225 l 667 0 l 72 0 m 342 1017 l 429 1017 l 307 735 l 297 738 l 342 1017 z "},"ľ":{"ha":274,"x_min":44,"x_max":361,"o":"m 75 3 q 106 165 106 60 l 106 935 q 44 1021 106 989 l 44 1024 l 175 1082 l 175 167 q 181 70 175 104 q 206 3 186 36 l 206 0 l 75 0 l 75 3 m 274 1076 l 361 1076 l 239 794 l 229 797 l 274 1076 z "},"Ŀ":{"ha":751,"x_min":72,"x_max":731,"o":"m 72 0 l 72 3 q 117 81 106 49 q 128 172 128 114 l 128 844 q 117 935 128 903 q 72 1014 106 968 l 72 1017 l 258 1017 l 258 1014 q 214 935 225 968 q 203 844 203 903 l 203 24 l 492 33 q 610 82 558 36 q 719 229 661 128 l 731 225 l 667 0 l 72 0 m 596 440 q 550 459 569 440 q 531 506 531 478 q 550 552 531 533 q 596 571 569 571 q 642 552 624 571 q 661 506 661 533 q 642 459 661 478 q 596 440 624 440 z "},"ŀ":{"ha":418,"x_min":44,"x_max":410,"o":"m 75 3 q 106 165 106 60 l 106 935 q 44 1021 106 989 l 44 1024 l 175 1082 l 175 167 q 181 70 175 104 q 206 3 186 36 l 206 0 l 75 0 l 75 3 m 344 426 q 299 445 318 426 q 279 492 279 464 q 299 538 279 519 q 344 557 318 557 q 391 538 372 557 q 410 492 410 519 q 391 445 410 464 q 344 426 372 426 z "},"Ł":{"ha":765,"x_min":25,"x_max":744,"o":"m 86 0 l 86 3 q 131 81 119 49 q 142 172 142 114 l 142 368 l 25 304 l 25 338 l 142 401 l 142 844 q 131 935 142 903 q 86 1014 119 968 l 86 1017 l 272 1017 l 272 1014 q 228 935 239 968 q 217 844 217 903 l 217 442 l 567 635 l 567 601 l 217 408 l 217 24 l 506 33 q 624 82 572 36 q 733 229 675 128 l 744 225 l 681 0 l 86 0 z "},"ł":{"ha":308,"x_min":28,"x_max":278,"o":"m 89 3 q 119 165 119 60 l 119 456 l 28 360 l 28 399 l 119 494 l 119 935 q 58 1021 119 989 l 58 1024 l 189 1082 l 189 567 l 278 660 l 278 621 l 189 528 l 189 167 q 194 70 189 104 q 219 3 200 36 l 219 0 l 89 0 l 89 3 z "},"Ń":{"ha":994,"x_min":17,"x_max":939,"o":"m 154 878 l 160 192 q 178 89 160 126 q 257 3 197 51 l 257 0 l 58 0 l 58 3 q 115 88 101 50 q 128 192 128 126 l 128 908 q 17 1014 75 983 l 17 1017 l 140 1017 l 842 136 l 838 825 q 822 928 838 890 q 754 1014 806 967 l 754 1017 l 939 1017 l 939 1014 q 883 928 896 965 q 869 825 869 892 l 869 0 l 857 -4 l 154 878 m 656 1332 l 701 1257 l 386 1086 l 381 1096 l 656 1332 z "},"ń":{"ha":718,"x_min":44,"x_max":650,"o":"m 206 0 l 75 0 l 75 3 q 106 165 106 60 l 106 508 q 44 613 106 572 l 44 615 l 169 688 l 169 561 l 175 560 q 425 681 278 681 q 570 627 521 681 q 619 478 619 574 l 619 167 q 624 68 619 101 q 650 3 629 35 l 650 0 l 519 0 l 519 3 q 550 165 550 60 l 550 463 q 394 626 550 626 q 175 535 258 626 l 175 167 q 180 69 175 103 q 206 3 185 36 l 206 0 m 465 1040 l 533 988 l 294 740 l 285 749 l 465 1040 z "},"Ņ":{"ha":994,"x_min":17,"x_max":939,"o":"m 154 878 l 160 192 q 178 89 160 126 q 257 3 197 51 l 257 0 l 58 0 l 58 3 q 115 88 101 50 q 128 192 128 126 l 128 908 q 17 1014 75 983 l 17 1017 l 140 1017 l 842 136 l 838 825 q 822 928 838 890 q 754 1014 806 967 l 754 1017 l 939 1017 l 939 1014 q 883 928 896 965 q 869 825 869 892 l 869 0 l 857 -4 l 154 878 m 422 -303 q 471 -253 451 -282 q 490 -201 490 -225 q 444 -119 490 -160 l 444 -117 l 511 -67 q 556 -151 556 -97 q 428 -311 556 -229 l 422 -303 z "},"ņ":{"ha":718,"x_min":44,"x_max":650,"o":"m 206 0 l 75 0 l 75 3 q 106 165 106 60 l 106 508 q 44 613 106 572 l 44 615 l 169 688 l 169 561 l 175 560 q 425 681 278 681 q 570 627 521 681 q 619 478 619 574 l 619 167 q 624 68 619 101 q 650 3 629 35 l 650 0 l 519 0 l 519 3 q 550 165 550 60 l 550 463 q 394 626 550 626 q 175 535 258 626 l 175 167 q 180 69 175 103 q 206 3 185 36 l 206 0 m 292 -303 q 340 -253 321 -282 q 360 -201 360 -225 q 314 -119 360 -160 l 314 -117 l 381 -67 q 425 -151 425 -97 q 297 -311 425 -229 l 292 -303 z "},"Ň":{"ha":994,"x_min":17,"x_max":939,"o":"m 154 878 l 160 192 q 178 89 160 126 q 257 3 197 51 l 257 0 l 58 0 l 58 3 q 115 88 101 50 q 128 192 128 126 l 128 908 q 17 1014 75 983 l 17 1017 l 140 1017 l 842 136 l 838 825 q 822 928 838 890 q 754 1014 806 967 l 754 1017 l 939 1017 l 939 1014 q 883 928 896 965 q 869 825 869 892 l 869 0 l 857 -4 l 154 878 m 504 1086 l 294 1303 l 303 1313 l 507 1175 l 711 1313 l 719 1303 l 510 1086 l 504 1086 z "},"ň":{"ha":718,"x_min":44,"x_max":650,"o":"m 206 0 l 75 0 l 75 3 q 106 165 106 60 l 106 508 q 44 613 106 572 l 44 615 l 169 688 l 169 561 l 175 560 q 425 681 278 681 q 570 627 521 681 q 619 478 619 574 l 619 167 q 624 68 619 101 q 650 3 629 35 l 650 0 l 519 0 l 519 3 q 550 165 550 60 l 550 463 q 394 626 550 626 q 175 535 258 626 l 175 167 q 180 69 175 103 q 206 3 185 36 l 206 0 m 178 990 l 188 999 l 367 844 l 551 999 l 561 990 l 369 750 l 364 750 l 178 990 z "},"ŉ":{"ha":718,"x_min":-17,"x_max":650,"o":"m 206 0 l 75 0 l 75 3 q 106 165 106 60 l 106 508 q 44 613 106 572 l 44 615 l 169 688 l 169 561 l 175 560 q 425 681 278 681 q 570 627 521 681 q 619 478 619 574 l 619 167 q 624 68 619 101 q 650 3 629 35 l 650 0 l 519 0 l 519 3 q 550 165 550 60 l 550 463 q 394 626 550 626 q 175 535 258 626 l 175 167 q 180 69 175 103 q 206 3 185 36 l 206 0 m -17 764 q 56 906 56 847 q 3 989 56 942 l 3 992 l 74 1049 q 122 965 122 1013 q -8 756 122 865 l -17 764 z "},"Ŋ":{"ha":994,"x_min":17,"x_max":939,"o":"m 688 -312 q 538 -282 613 -312 l 513 -108 l 524 -104 q 619 -241 576 -197 q 713 -285 663 -285 q 807 -230 772 -285 q 842 -74 842 -175 l 842 15 l 154 878 l 160 192 q 178 89 160 126 q 257 3 197 51 l 257 0 l 58 0 l 58 3 q 115 88 101 50 q 128 192 128 126 l 128 908 q 17 1014 75 983 l 17 1017 l 140 1017 l 840 138 l 838 825 q 822 928 838 890 q 754 1014 806 967 l 754 1017 l 939 1017 l 939 1014 q 883 928 896 965 q 869 825 869 892 l 869 -58 q 827 -249 869 -185 q 688 -312 785 -312 z "},"ŋ":{"ha":690,"x_min":44,"x_max":619,"o":"m 460 -292 q 529 -225 508 -265 q 550 -97 550 -185 l 550 463 q 394 626 550 626 q 175 535 258 626 l 175 167 q 180 69 175 103 q 206 3 185 36 l 206 0 l 75 0 l 75 3 q 106 165 106 60 l 106 508 q 44 613 106 572 l 44 615 l 169 688 l 169 561 l 175 560 q 425 681 278 681 q 570 627 521 681 q 619 478 619 574 l 617 -78 q 579 -238 615 -187 q 463 -299 543 -289 l 460 -292 z "},"Ō":{"ha":1126,"x_min":56,"x_max":1071,"o":"m 925 131 q 852 55 925 131 q 563 -21 779 -21 q 201 131 346 -21 q 56 507 56 282 q 201 885 56 732 q 563 1038 346 1038 q 925 885 779 1038 q 1071 507 1071 732 q 925 131 1071 282 m 260 148 q 317 77 260 148 q 563 7 374 7 q 865 147 751 7 q 979 507 979 288 q 865 867 979 725 q 563 1010 751 1010 q 260 868 374 1010 q 147 507 147 726 q 260 148 147 289 m 356 1213 l 771 1213 l 771 1164 l 356 1164 l 356 1213 z "},"ō":{"ha":781,"x_min":49,"x_max":732,"o":"m 631 81 q 581 30 631 81 q 390 -21 531 -21 q 149 81 250 -21 q 49 329 49 183 q 149 578 49 475 q 390 681 250 681 q 631 578 531 681 q 732 329 732 475 q 631 81 732 183 m 201 96 q 234 50 201 96 q 390 4 267 4 q 580 96 514 4 q 646 329 646 188 q 578 563 646 471 q 390 656 511 656 q 202 563 269 656 q 135 329 135 471 q 201 96 135 188 m 193 896 l 589 896 l 589 847 l 193 847 l 193 896 z "},"Ŏ":{"ha":1126,"x_min":56,"x_max":1071,"o":"m 925 131 q 852 55 925 131 q 563 -21 779 -21 q 201 131 346 -21 q 56 507 56 282 q 201 885 56 732 q 563 1038 346 1038 q 925 885 779 1038 q 1071 507 1071 732 q 925 131 1071 282 m 260 148 q 317 77 260 148 q 563 7 374 7 q 865 147 751 7 q 979 507 979 288 q 865 867 979 725 q 563 1010 751 1010 q 260 868 374 1010 q 147 507 147 726 q 260 148 147 289 m 561 1167 q 744 1289 699 1167 l 756 1289 q 560 1107 726 1107 q 369 1289 399 1107 l 381 1289 q 561 1167 433 1167 z "},"ŏ":{"ha":781,"x_min":49,"x_max":732,"o":"m 631 81 q 581 30 631 81 q 390 -21 531 -21 q 149 81 250 -21 q 49 329 49 183 q 149 578 49 475 q 390 681 250 681 q 631 578 531 681 q 732 329 732 475 q 631 81 732 183 m 201 96 q 234 50 201 96 q 390 4 267 4 q 580 96 514 4 q 646 329 646 188 q 578 563 646 471 q 390 656 511 656 q 202 563 269 656 q 135 329 135 471 q 201 96 135 188 m 390 853 q 550 963 515 853 l 561 963 q 517 845 557 897 q 389 793 478 793 q 265 846 304 793 q 221 963 225 899 l 232 963 q 390 853 268 853 z "},"Ő":{"ha":1126,"x_min":56,"x_max":1071,"o":"m 925 131 q 852 55 925 131 q 563 -21 779 -21 q 201 131 346 -21 q 56 507 56 282 q 201 885 56 732 q 563 1038 346 1038 q 925 885 779 1038 q 1071 507 1071 732 q 925 131 1071 282 m 260 148 q 317 77 260 148 q 563 7 374 7 q 865 147 751 7 q 979 507 979 288 q 865 867 979 725 q 563 1010 751 1010 q 260 868 374 1010 q 147 507 147 726 q 260 148 147 289 m 833 1318 l 889 1246 l 646 1086 l 639 1096 l 833 1318 m 565 1318 l 621 1246 l 378 1086 l 371 1096 l 565 1318 z "},"ő":{"ha":781,"x_min":49,"x_max":732,"o":"m 631 81 q 581 30 631 81 q 390 -21 531 -21 q 149 81 250 -21 q 49 329 49 183 q 149 578 49 475 q 390 681 250 681 q 631 578 531 681 q 732 329 732 475 q 631 81 732 183 m 201 96 q 234 50 201 96 q 390 4 267 4 q 580 96 514 4 q 646 329 646 188 q 578 563 646 471 q 390 656 511 656 q 202 563 269 656 q 135 329 135 471 q 201 96 135 188 m 611 1013 l 665 963 l 464 751 l 454 761 l 611 1013 m 414 1013 l 468 963 l 267 751 l 257 761 l 414 1013 z "},"Œ":{"ha":1424,"x_min":56,"x_max":1403,"o":"m 699 25 q 738 160 738 93 l 738 857 q 694 992 738 919 l 575 989 q 256 866 364 983 q 147 504 147 749 q 257 151 147 267 q 603 28 367 35 l 699 25 m 1340 0 l 589 0 q 197 134 339 0 q 56 513 56 268 q 192 886 56 756 q 561 1017 328 1017 l 1271 1017 l 1325 815 l 1314 811 q 1192 967 1224 940 q 1156 985 1171 983 l 814 993 l 814 525 l 1038 525 q 1070 542 1054 525 q 1109 598 1086 558 q 1136 643 1132 638 l 1147 643 l 1147 386 l 1136 386 q 1119 413 1131 394 q 1100 442 1108 431 q 1081 469 1092 454 q 1058 490 1069 483 q 1038 497 1047 497 l 814 497 l 814 24 l 1165 33 q 1276 83 1226 36 q 1392 229 1326 131 l 1403 225 l 1340 0 z "},"œ":{"ha":1264,"x_min":49,"x_max":1215,"o":"m 961 656 q 815 598 874 656 q 739 435 757 540 l 1118 443 l 1118 451 q 961 656 1118 656 m 200 96 q 234 50 200 96 q 390 4 268 4 q 581 96 513 4 q 649 329 649 188 q 581 563 649 471 q 390 656 513 656 q 200 563 268 656 q 132 329 132 471 q 200 96 132 188 m 1215 154 q 1119 26 1189 74 q 953 -21 1050 -21 q 788 26 857 -21 q 685 161 718 74 q 563 28 642 76 q 390 -21 485 -21 q 149 81 250 -21 q 49 329 49 183 q 149 578 49 475 q 390 681 250 681 q 568 628 488 681 q 690 488 649 576 q 803 629 728 578 q 967 681 878 681 q 1147 603 1081 681 q 1206 414 1214 525 l 736 414 q 732 350 732 385 q 794 126 732 210 q 979 43 856 43 q 1110 72 1047 43 q 1208 157 1174 101 l 1215 154 z "},"Ŕ":{"ha":858,"x_min":72,"x_max":844,"o":"m 72 0 l 72 3 q 117 81 106 49 q 128 172 128 114 l 128 844 q 117 935 128 903 q 72 1014 106 968 l 72 1017 l 429 1017 q 644 953 575 1017 q 714 778 714 890 q 666 596 714 674 q 522 492 618 518 l 693 171 q 764 60 731 97 q 844 3 797 22 l 844 0 l 699 0 l 444 479 l 203 479 l 203 172 q 214 81 203 114 q 258 3 225 49 l 258 0 l 72 0 m 415 989 l 335 989 q 203 988 254 989 l 203 507 l 417 507 q 582 583 529 507 q 635 776 635 658 q 585 934 635 879 q 415 989 536 989 m 535 1332 l 581 1257 l 265 1086 l 260 1096 l 535 1332 z "},"ŕ":{"ha":429,"x_min":44,"x_max":422,"o":"m 75 3 q 106 165 106 60 l 106 508 q 44 613 106 572 l 44 615 l 169 688 l 169 519 l 176 518 q 224 569 189 531 q 278 626 258 608 q 332 663 297 644 q 401 681 367 681 l 401 569 l 399 569 q 297 590 364 590 q 175 486 265 590 l 175 167 q 180 69 175 103 q 206 3 185 36 l 206 0 l 75 0 l 75 3 m 354 1040 l 422 988 l 183 740 l 174 749 l 354 1040 z "},"Ŗ":{"ha":858,"x_min":72,"x_max":844,"o":"m 72 0 l 72 3 q 117 81 106 49 q 128 172 128 114 l 128 844 q 117 935 128 903 q 72 1014 106 968 l 72 1017 l 429 1017 q 644 953 575 1017 q 714 778 714 890 q 666 596 714 674 q 522 492 618 518 l 693 171 q 764 60 731 97 q 844 3 797 22 l 844 0 l 699 0 l 444 479 l 203 479 l 203 172 q 214 81 203 114 q 258 3 225 49 l 258 0 l 72 0 m 415 989 l 335 989 q 203 988 254 989 l 203 507 l 417 507 q 582 583 529 507 q 635 776 635 658 q 585 934 635 879 q 415 989 536 989 m 371 -303 q 419 -253 400 -282 q 439 -201 439 -225 q 393 -119 439 -160 l 393 -117 l 460 -67 q 504 -151 504 -97 q 376 -311 504 -229 l 371 -303 z "},"ŗ":{"ha":429,"x_min":44,"x_max":401,"o":"m 75 3 q 106 165 106 60 l 106 508 q 44 613 106 572 l 44 615 l 169 688 l 169 519 l 176 518 q 224 569 189 531 q 278 626 258 608 q 332 663 297 644 q 401 681 367 681 l 401 569 l 399 569 q 297 590 364 590 q 175 486 265 590 l 175 167 q 180 69 175 103 q 206 3 185 36 l 206 0 l 75 0 l 75 3 m 58 -303 q 107 -253 88 -282 q 126 -201 126 -225 q 81 -119 126 -160 l 81 -117 l 147 -67 q 192 -151 192 -97 q 64 -311 192 -229 l 58 -303 z "},"Ř":{"ha":858,"x_min":72,"x_max":844,"o":"m 72 0 l 72 3 q 117 81 106 49 q 128 172 128 114 l 128 844 q 117 935 128 903 q 72 1014 106 968 l 72 1017 l 429 1017 q 644 953 575 1017 q 714 778 714 890 q 666 596 714 674 q 522 492 618 518 l 693 171 q 764 60 731 97 q 844 3 797 22 l 844 0 l 699 0 l 444 479 l 203 479 l 203 172 q 214 81 203 114 q 258 3 225 49 l 258 0 l 72 0 m 415 989 l 335 989 q 203 988 254 989 l 203 507 l 417 507 q 582 583 529 507 q 635 776 635 658 q 585 934 635 879 q 415 989 536 989 m 383 1086 l 174 1303 l 182 1313 l 386 1175 l 590 1313 l 599 1303 l 389 1086 l 383 1086 z "},"ř":{"ha":429,"x_min":44,"x_max":450,"o":"m 75 3 q 106 165 106 60 l 106 508 q 44 613 106 572 l 44 615 l 169 688 l 169 519 l 176 518 q 224 569 189 531 q 278 626 258 608 q 332 663 297 644 q 401 681 367 681 l 401 569 l 399 569 q 297 590 364 590 q 175 486 265 590 l 175 167 q 180 69 175 103 q 206 3 185 36 l 206 0 l 75 0 l 75 3 m 67 990 l 76 999 l 256 844 l 440 999 l 450 990 l 258 750 l 253 750 l 67 990 z "},"Ś":{"ha":740,"x_min":49,"x_max":692,"o":"m 622 803 l 611 799 q 347 1010 540 1010 q 183 956 238 1010 q 129 824 129 901 q 147 736 129 774 q 210 667 164 699 q 284 622 257 636 q 382 579 311 608 q 404 569 397 572 q 491 531 460 546 q 566 486 522 515 q 633 427 610 457 q 674 353 657 397 q 692 254 692 308 q 593 47 692 114 q 343 -21 494 -21 q 76 32 203 -21 l 49 229 l 60 233 q 180 60 107 114 q 371 7 253 7 q 556 65 493 7 q 618 226 618 124 q 602 315 618 275 q 567 378 586 354 q 503 430 547 403 q 435 469 460 457 q 353 506 410 481 q 282 537 304 526 q 219 569 260 547 q 158 610 178 590 q 114 658 138 629 q 81 721 90 686 q 71 799 71 756 q 151 976 71 914 q 369 1038 232 1038 q 594 996 489 1038 l 622 803 m 514 1332 l 560 1257 l 244 1086 l 239 1096 l 514 1332 z "},"ś":{"ha":521,"x_min":44,"x_max":486,"o":"m 449 532 l 438 529 q 359 628 401 600 q 261 656 317 656 q 153 622 194 656 q 113 533 113 589 q 124 478 113 501 q 167 437 136 456 q 217 409 197 418 q 289 381 238 400 q 361 349 333 363 q 422 310 389 335 q 470 250 454 285 q 486 169 486 215 q 424 30 486 81 q 242 -21 361 -21 q 58 19 142 -21 l 44 161 l 56 164 q 139 42 90 81 q 261 4 188 4 q 385 44 342 4 q 429 146 429 85 q 384 243 429 208 q 254 308 339 278 q 183 338 211 324 q 122 374 154 351 q 72 431 89 397 q 56 507 56 464 q 122 639 56 597 q 285 681 189 681 q 435 656 374 681 l 449 532 m 379 1040 l 447 988 l 208 740 l 199 749 l 379 1040 z "},"Ŝ":{"ha":740,"x_min":49,"x_max":692,"o":"m 622 803 l 611 799 q 347 1010 540 1010 q 183 956 238 1010 q 129 824 129 901 q 147 736 129 774 q 210 667 164 699 q 284 622 257 636 q 382 579 311 608 q 404 569 397 572 q 491 531 460 546 q 566 486 522 515 q 633 427 610 457 q 674 353 657 397 q 692 254 692 308 q 593 47 692 114 q 343 -21 494 -21 q 76 32 203 -21 l 49 229 l 60 233 q 180 60 107 114 q 371 7 253 7 q 556 65 493 7 q 618 226 618 124 q 602 315 618 275 q 567 378 586 354 q 503 430 547 403 q 435 469 460 457 q 353 506 410 481 q 282 537 304 526 q 219 569 260 547 q 158 610 178 590 q 114 658 138 629 q 81 721 90 686 q 71 799 71 756 q 151 976 71 914 q 369 1038 232 1038 q 594 996 489 1038 l 622 803 m 365 1224 l 161 1086 l 153 1096 l 363 1313 l 368 1313 l 578 1096 l 569 1086 l 365 1224 z "},"ŝ":{"ha":521,"x_min":44,"x_max":486,"o":"m 449 532 l 438 529 q 359 628 401 600 q 261 656 317 656 q 153 622 194 656 q 113 533 113 589 q 124 478 113 501 q 167 437 136 456 q 217 409 197 418 q 289 381 238 400 q 361 349 333 363 q 422 310 389 335 q 470 250 454 285 q 486 169 486 215 q 424 30 486 81 q 242 -21 361 -21 q 58 19 142 -21 l 44 161 l 56 164 q 139 42 90 81 q 261 4 188 4 q 385 44 342 4 q 429 146 429 85 q 384 243 429 208 q 254 308 339 278 q 183 338 211 324 q 122 374 154 351 q 72 431 89 397 q 56 507 56 464 q 122 639 56 597 q 285 681 189 681 q 435 656 374 681 l 449 532 m 253 904 l 74 750 l 64 758 l 250 999 l 256 999 l 447 758 l 438 750 l 253 904 z "},"Ş":{"ha":740,"x_min":49,"x_max":692,"o":"m 251 -343 q 362 -288 326 -315 q 397 -217 397 -261 q 278 -126 397 -140 l 276 -124 q 293 -94 282 -112 q 307 -72 304 -76 l 332 -31 l 338 -21 q 201 -6 258 -18 q 76 32 133 8 l 49 229 l 60 233 q 180 60 107 114 q 371 7 253 7 q 556 65 493 7 q 618 226 618 124 q 602 315 618 275 q 567 378 586 354 q 503 430 547 403 q 435 469 460 457 q 353 506 410 481 q 282 537 304 526 q 219 569 260 547 q 158 610 178 590 q 114 658 138 629 q 81 721 90 686 q 71 799 71 756 q 151 976 71 914 q 369 1038 232 1038 q 594 996 489 1038 l 622 803 l 611 799 q 347 1010 540 1010 q 183 956 238 1010 q 129 824 129 901 q 147 736 129 774 q 210 667 164 699 q 284 622 257 636 q 382 579 311 608 q 404 569 397 572 q 491 531 460 546 q 566 486 522 515 q 633 427 610 457 q 674 353 657 397 q 692 254 692 308 q 633 83 692 149 q 474 -6 574 17 q 378 -19 421 -18 l 342 -79 q 457 -199 457 -106 q 254 -354 457 -315 l 251 -343 z "},"ş":{"ha":521,"x_min":44,"x_max":486,"o":"m 153 -343 q 263 -288 228 -315 q 299 -217 299 -261 q 179 -126 299 -140 l 178 -124 q 194 -94 183 -112 q 208 -72 206 -76 l 233 -31 l 239 -21 q 131 -7 172 -21 q 58 19 81 7 l 44 161 l 56 164 q 139 42 90 81 q 261 4 188 4 q 385 44 342 4 q 429 146 429 85 q 384 243 429 208 q 254 308 339 278 q 183 338 211 324 q 122 374 154 351 q 72 431 89 397 q 56 507 56 464 q 122 639 56 597 q 285 681 189 681 q 435 656 374 681 l 449 532 l 438 529 q 359 628 401 600 q 261 656 317 656 q 153 622 194 656 q 113 533 113 589 q 124 478 113 501 q 167 437 136 456 q 217 409 197 418 q 289 381 238 400 q 361 349 333 363 q 422 310 389 335 q 470 250 454 285 q 486 169 486 215 q 424 31 486 83 q 281 -19 371 -14 l 243 -79 q 358 -199 358 -106 q 156 -354 358 -315 l 153 -343 z "},"Š":{"ha":740,"x_min":49,"x_max":692,"o":"m 622 803 l 611 799 q 347 1010 540 1010 q 183 956 238 1010 q 129 824 129 901 q 147 736 129 774 q 210 667 164 699 q 284 622 257 636 q 382 579 311 608 q 404 569 397 572 q 491 531 460 546 q 566 486 522 515 q 633 427 610 457 q 674 353 657 397 q 692 254 692 308 q 593 47 692 114 q 343 -21 494 -21 q 76 32 203 -21 l 49 229 l 60 233 q 180 60 107 114 q 371 7 253 7 q 556 65 493 7 q 618 226 618 124 q 602 315 618 275 q 567 378 586 354 q 503 430 547 403 q 435 469 460 457 q 353 506 410 481 q 282 537 304 526 q 219 569 260 547 q 158 610 178 590 q 114 658 138 629 q 81 721 90 686 q 71 799 71 756 q 151 976 71 914 q 369 1038 232 1038 q 594 996 489 1038 l 622 803 m 363 1086 l 153 1303 l 161 1313 l 365 1175 l 569 1313 l 578 1303 l 368 1086 l 363 1086 z "},"š":{"ha":521,"x_min":44,"x_max":486,"o":"m 449 532 l 438 529 q 359 628 401 600 q 261 656 317 656 q 153 622 194 656 q 113 533 113 589 q 124 478 113 501 q 167 437 136 456 q 217 409 197 418 q 289 381 238 400 q 361 349 333 363 q 422 310 389 335 q 470 250 454 285 q 486 169 486 215 q 424 30 486 81 q 242 -21 361 -21 q 58 19 142 -21 l 44 161 l 56 164 q 139 42 90 81 q 261 4 188 4 q 385 44 342 4 q 429 146 429 85 q 384 243 429 208 q 254 308 339 278 q 183 338 211 324 q 122 374 154 351 q 72 431 89 397 q 56 507 56 464 q 122 639 56 597 q 285 681 189 681 q 435 656 374 681 l 449 532 m 78 990 l 88 999 l 267 844 l 451 999 l 461 990 l 269 750 l 264 750 l 78 990 z "},"Ţ":{"ha":881,"x_min":21,"x_max":860,"o":"m 533 0 l 347 0 l 347 3 q 392 79 382 46 q 403 172 403 113 l 403 992 l 190 986 q 32 775 150 986 l 21 779 l 75 1017 l 806 1017 l 860 779 l 849 775 q 817 828 839 792 q 782 886 796 864 q 751 935 768 908 q 718 974 733 961 q 690 986 703 986 l 478 992 l 478 172 q 489 81 478 114 q 533 3 500 49 l 533 0 m 356 -303 q 404 -253 385 -282 q 424 -201 424 -225 q 378 -119 424 -160 l 378 -117 l 444 -67 q 489 -151 489 -97 q 361 -311 489 -229 l 356 -303 z "},"ţ":{"ha":443,"x_min":43,"x_max":408,"o":"m 257 -21 q 158 15 199 -21 q 118 132 118 50 l 118 635 l 43 635 l 43 638 l 185 761 l 188 761 l 188 660 l 393 660 l 393 635 l 188 635 l 188 129 q 289 22 188 22 q 406 51 351 22 l 408 46 q 257 -21 342 -21 m 160 -303 q 208 -253 189 -282 q 228 -201 228 -225 q 182 -119 228 -160 l 182 -117 l 249 -67 q 293 -151 293 -97 q 165 -311 293 -229 l 160 -303 z "},"Ť":{"ha":881,"x_min":21,"x_max":860,"o":"m 533 0 l 347 0 l 347 3 q 392 79 382 46 q 403 172 403 113 l 403 992 l 190 986 q 32 775 150 986 l 21 779 l 75 1017 l 806 1017 l 860 779 l 849 775 q 817 828 839 792 q 782 886 796 864 q 751 935 768 908 q 718 974 733 961 q 690 986 703 986 l 478 992 l 478 172 q 489 81 478 114 q 533 3 500 49 l 533 0 m 438 1086 l 228 1303 l 236 1313 l 440 1175 l 644 1313 l 653 1303 l 443 1086 l 438 1086 z "},"ť":{"ha":443,"x_min":43,"x_max":425,"o":"m 257 -21 q 158 15 199 -21 q 118 132 118 50 l 118 635 l 43 635 l 43 638 l 185 761 l 188 761 l 188 660 l 393 660 l 393 635 l 188 635 l 188 129 q 289 22 188 22 q 406 51 351 22 l 408 46 q 257 -21 342 -21 m 338 1076 l 425 1076 l 303 794 l 293 797 l 338 1076 z "},"Ŧ":{"ha":881,"x_min":21,"x_max":860,"o":"m 533 0 l 347 0 l 347 3 q 392 79 382 46 q 403 172 403 113 l 403 496 l 167 496 l 167 524 l 403 524 l 403 992 l 190 986 q 32 775 150 986 l 21 779 l 75 1017 l 806 1017 l 860 779 l 849 775 q 817 828 839 792 q 782 886 796 864 q 751 935 768 908 q 718 974 733 961 q 690 986 703 986 l 478 992 l 478 524 l 714 524 l 714 496 l 478 496 l 478 172 q 489 81 478 114 q 533 3 500 49 l 533 0 z "},"ŧ":{"ha":443,"x_min":43,"x_max":422,"o":"m 271 -21 q 172 15 213 -21 q 132 132 132 50 l 132 431 l 43 431 l 43 453 l 132 453 l 132 635 l 57 635 l 57 638 l 199 761 l 201 761 l 201 660 l 407 660 l 407 635 l 201 635 l 201 453 l 393 453 l 393 431 l 201 431 l 201 129 q 303 22 201 22 q 419 51 365 22 l 422 46 q 271 -21 356 -21 z "},"Ũ":{"ha":950,"x_min":56,"x_max":925,"o":"m 490 -21 q 217 66 324 -21 q 111 331 111 153 l 111 840 q 101 935 111 901 q 56 1014 90 968 l 56 1017 l 242 1017 l 242 1014 q 186 840 186 940 l 186 335 q 274 88 186 167 q 503 10 361 10 q 739 103 668 10 q 810 347 810 197 l 810 822 q 790 926 810 889 q 710 1014 771 964 l 710 1017 l 925 1017 l 925 1014 q 856 926 872 964 q 839 822 839 889 l 839 349 q 821 207 839 271 q 764 90 803 143 q 655 8 725 38 q 490 -21 585 -21 m 390 1253 q 514 1215 436 1253 q 631 1176 592 1176 q 687 1197 668 1176 q 718 1267 706 1218 l 729 1265 q 610 1106 717 1106 q 486 1144 564 1106 q 369 1182 408 1182 q 313 1161 332 1182 q 282 1092 294 1140 l 271 1093 q 390 1253 283 1253 z "},"ũ":{"ha":681,"x_min":28,"x_max":628,"o":"m 503 103 q 271 -21 406 -21 q 134 31 182 -21 q 86 174 86 82 l 86 568 q 28 657 86 626 l 28 660 l 156 660 l 156 196 q 300 33 156 33 q 496 121 411 33 l 496 568 q 435 657 496 629 l 435 660 l 565 660 l 565 154 q 578 69 565 92 q 628 31 592 46 l 628 28 l 503 -17 l 503 103 m 226 947 q 322 917 263 947 q 422 886 382 886 q 507 961 489 886 l 518 960 q 407 822 507 822 q 311 853 371 822 q 211 883 251 883 q 126 808 144 883 l 115 810 q 226 947 126 947 z "},"Ū":{"ha":950,"x_min":56,"x_max":925,"o":"m 490 -21 q 217 66 324 -21 q 111 331 111 153 l 111 840 q 101 935 111 901 q 56 1014 90 968 l 56 1017 l 242 1017 l 242 1014 q 186 840 186 940 l 186 335 q 274 88 186 167 q 503 10 361 10 q 739 103 668 10 q 810 347 810 197 l 810 822 q 790 926 810 889 q 710 1014 771 964 l 710 1017 l 925 1017 l 925 1014 q 856 926 872 964 q 839 822 839 889 l 839 349 q 821 207 839 271 q 764 90 803 143 q 655 8 725 38 q 490 -21 585 -21 m 293 1213 l 708 1213 l 708 1164 l 293 1164 l 293 1213 z "},"ū":{"ha":681,"x_min":28,"x_max":628,"o":"m 503 103 q 271 -21 406 -21 q 134 31 182 -21 q 86 174 86 82 l 86 568 q 28 657 86 626 l 28 660 l 156 660 l 156 196 q 300 33 156 33 q 496 121 411 33 l 496 568 q 435 657 496 629 l 435 660 l 565 660 l 565 154 q 578 69 565 92 q 628 31 592 46 l 628 28 l 503 -17 l 503 103 m 119 896 l 515 896 l 515 847 l 119 847 l 119 896 z "},"Ŭ":{"ha":950,"x_min":56,"x_max":925,"o":"m 490 -21 q 217 66 324 -21 q 111 331 111 153 l 111 840 q 101 935 111 901 q 56 1014 90 968 l 56 1017 l 242 1017 l 242 1014 q 186 840 186 940 l 186 335 q 274 88 186 167 q 503 10 361 10 q 739 103 668 10 q 810 347 810 197 l 810 822 q 790 926 810 889 q 710 1014 771 964 l 710 1017 l 925 1017 l 925 1014 q 856 926 872 964 q 839 822 839 889 l 839 349 q 821 207 839 271 q 764 90 803 143 q 655 8 725 38 q 490 -21 585 -21 m 499 1167 q 682 1289 636 1167 l 693 1289 q 497 1107 664 1107 q 307 1289 336 1107 l 318 1289 q 499 1167 371 1167 z "},"ŭ":{"ha":681,"x_min":28,"x_max":628,"o":"m 503 103 q 271 -21 406 -21 q 134 31 182 -21 q 86 174 86 82 l 86 568 q 28 657 86 626 l 28 660 l 156 660 l 156 196 q 300 33 156 33 q 496 121 411 33 l 496 568 q 435 657 496 629 l 435 660 l 565 660 l 565 154 q 578 69 565 92 q 628 31 592 46 l 628 28 l 503 -17 l 503 103 m 317 853 q 476 963 442 853 l 488 963 q 444 845 483 897 q 315 793 404 793 q 191 846 231 793 q 147 963 151 899 l 158 963 q 317 853 194 853 z "},"Ů":{"ha":950,"x_min":56,"x_max":925,"o":"m 490 -21 q 217 66 324 -21 q 111 331 111 153 l 111 840 q 101 935 111 901 q 56 1014 90 968 l 56 1017 l 242 1017 l 242 1014 q 186 840 186 940 l 186 335 q 274 88 186 167 q 503 10 361 10 q 739 103 668 10 q 810 347 810 197 l 810 822 q 790 926 810 889 q 710 1014 771 964 l 710 1017 l 925 1017 l 925 1014 q 856 926 872 964 q 839 822 839 889 l 839 349 q 821 207 839 271 q 764 90 803 143 q 655 8 725 38 q 490 -21 585 -21 m 416 1118 q 400 1134 416 1118 q 383 1201 383 1150 q 416 1286 383 1253 q 500 1319 449 1319 q 584 1286 551 1319 q 617 1201 617 1253 q 584 1118 617 1150 q 500 1086 551 1086 q 416 1118 449 1086 m 422 1201 q 442 1134 422 1158 q 500 1110 463 1110 q 558 1134 538 1110 q 578 1201 578 1158 q 500 1296 578 1296 q 422 1201 422 1296 z "},"ů":{"ha":681,"x_min":28,"x_max":628,"o":"m 503 103 q 271 -21 406 -21 q 134 31 182 -21 q 86 174 86 82 l 86 568 q 28 657 86 626 l 28 660 l 156 660 l 156 196 q 300 33 156 33 q 496 121 411 33 l 496 568 q 435 657 496 629 l 435 660 l 565 660 l 565 154 q 578 69 565 92 q 628 31 592 46 l 628 28 l 503 -17 l 503 103 m 244 825 q 227 841 244 825 q 211 908 211 857 q 244 993 211 960 q 328 1026 276 1026 q 412 993 379 1026 q 444 908 444 960 q 412 825 444 857 q 328 793 379 793 q 244 825 276 793 m 250 908 q 270 841 250 865 q 328 817 290 817 q 385 841 365 817 q 406 908 406 865 q 328 1003 406 1003 q 250 908 250 1003 z "},"Ű":{"ha":950,"x_min":56,"x_max":925,"o":"m 490 -21 q 217 66 324 -21 q 111 331 111 153 l 111 840 q 101 935 111 901 q 56 1014 90 968 l 56 1017 l 242 1017 l 242 1014 q 186 840 186 940 l 186 335 q 274 88 186 167 q 503 10 361 10 q 739 103 668 10 q 810 347 810 197 l 810 822 q 790 926 810 889 q 710 1014 771 964 l 710 1017 l 925 1017 l 925 1014 q 856 926 872 964 q 839 822 839 889 l 839 349 q 821 207 839 271 q 764 90 803 143 q 655 8 725 38 q 490 -21 585 -21 m 771 1318 l 826 1246 l 583 1086 l 576 1096 l 771 1318 m 503 1318 l 558 1246 l 315 1086 l 308 1096 l 503 1318 z "},"ű":{"ha":681,"x_min":28,"x_max":628,"o":"m 503 103 q 271 -21 406 -21 q 134 31 182 -21 q 86 174 86 82 l 86 568 q 28 657 86 626 l 28 660 l 156 660 l 156 196 q 300 33 156 33 q 496 121 411 33 l 496 568 q 435 657 496 629 l 435 660 l 565 660 l 565 154 q 578 69 565 92 q 628 31 592 46 l 628 28 l 503 -17 l 503 103 m 542 1013 l 596 963 l 394 751 l 385 761 l 542 1013 m 344 1013 l 399 963 l 197 751 l 188 761 l 344 1013 z "},"Ų":{"ha":950,"x_min":56,"x_max":925,"o":"m 525 -344 q 433 -315 465 -344 q 401 -233 401 -286 q 558 -17 401 -126 q 490 -21 538 -21 q 217 66 324 -21 q 111 331 111 153 l 111 840 q 101 935 111 901 q 56 1014 90 968 l 56 1017 l 242 1017 l 242 1014 q 186 840 186 940 l 186 335 q 274 88 186 167 q 503 10 361 10 q 739 103 668 10 q 810 347 810 197 l 810 822 q 790 926 810 889 q 710 1014 771 964 l 710 1017 l 925 1017 l 925 1014 q 856 926 872 964 q 839 822 839 889 l 839 349 q 632 0 839 76 q 517 -83 564 -24 q 465 -214 465 -149 q 554 -300 465 -300 q 693 -224 628 -300 l 704 -232 q 525 -344 632 -344 z "},"ų":{"ha":681,"x_min":28,"x_max":628,"o":"m 447 -344 q 356 -315 388 -344 q 324 -233 324 -286 q 503 1 324 -117 l 503 103 q 271 -21 406 -21 q 134 31 182 -21 q 86 174 86 82 l 86 568 q 28 657 86 626 l 28 660 l 156 660 l 156 196 q 300 33 156 33 q 496 121 411 33 l 496 568 q 435 657 496 629 l 435 660 l 565 660 l 565 154 q 578 69 565 92 q 628 31 592 46 l 628 28 q 508 -22 546 1 q 388 -210 388 -100 q 476 -300 388 -300 q 615 -224 550 -300 l 626 -232 q 447 -344 554 -344 z "},"Ŵ":{"ha":1318,"x_min":14,"x_max":1304,"o":"m 357 -12 l 96 861 q 59 964 72 939 q 14 1014 46 989 l 14 1017 l 207 1017 l 207 1014 q 197 1001 206 1013 q 185 983 189 989 q 174 963 181 978 q 167 934 168 947 q 167 901 165 921 q 176 858 169 881 l 399 111 l 635 772 l 604 861 q 562 962 578 935 q 513 1014 546 989 l 513 1017 l 717 1017 l 717 1014 l 696 993 q 683 858 653 950 l 942 104 l 1151 813 q 1119 1014 1183 932 l 1119 1017 l 1304 1017 l 1304 1014 q 1234 940 1257 979 q 1185 813 1211 900 l 939 -12 l 901 -12 l 651 724 l 394 -12 l 357 -12 m 632 1224 l 428 1086 l 419 1096 l 629 1313 l 635 1313 l 844 1096 l 836 1086 l 632 1224 z "},"ŵ":{"ha":883,"x_min":14,"x_max":876,"o":"m 256 -8 l 90 517 q 14 657 56 624 l 14 660 l 169 660 l 169 657 q 154 610 157 643 q 164 524 151 576 l 282 115 l 429 515 l 429 517 q 354 657 389 635 l 354 660 l 503 660 l 503 657 q 508 507 472 619 l 636 117 l 758 500 q 739 657 797 621 l 739 660 l 876 660 l 876 657 q 828 606 844 633 q 792 513 811 578 l 621 -8 l 613 -8 l 443 478 l 264 -8 l 256 -8 m 453 904 l 274 750 l 264 758 l 450 999 l 456 999 l 647 758 l 638 750 l 453 904 z "},"Ŷ":{"ha":792,"x_min":0,"x_max":792,"o":"m 299 3 q 343 68 332 38 q 354 147 354 99 l 354 475 l 119 879 q 0 1014 60 981 l 0 1017 l 215 1017 l 215 1014 q 203 888 149 983 l 419 513 l 607 826 q 644 914 638 876 q 639 972 650 951 q 603 1014 628 993 l 603 1017 l 792 1017 l 792 1014 q 764 996 776 1004 q 739 974 751 988 q 720 953 726 960 q 700 926 714 947 q 683 900 686 906 q 661 865 679 894 q 639 826 643 835 l 429 478 l 429 147 q 440 69 429 97 q 485 3 450 40 l 485 0 l 299 0 l 299 3 m 413 1224 l 208 1086 l 200 1096 l 410 1313 l 415 1313 l 625 1096 l 617 1086 l 413 1224 z "},"ŷ":{"ha":572,"x_min":0,"x_max":579,"o":"m 28 -236 q 93 -223 57 -236 q 173 -171 129 -210 q 239 -74 217 -132 l 274 17 l 82 515 q 0 657 42 625 l 0 660 l 163 660 l 163 657 q 156 513 118 617 l 308 107 l 458 501 q 442 657 503 619 l 442 660 l 579 660 l 579 657 q 532 608 547 633 q 490 513 517 582 l 250 -112 q 158 -258 211 -212 q 31 -312 106 -304 l 28 -236 m 307 904 l 128 750 l 118 758 l 304 999 l 310 999 l 501 758 l 492 750 l 307 904 z "},"Ÿ":{"ha":792,"x_min":0,"x_max":792,"o":"m 299 3 q 343 68 332 38 q 354 147 354 99 l 354 475 l 119 879 q 0 1014 60 981 l 0 1017 l 215 1017 l 215 1014 q 203 888 149 983 l 419 513 l 607 826 q 644 914 638 876 q 639 972 650 951 q 603 1014 628 993 l 603 1017 l 792 1017 l 792 1014 q 764 996 776 1004 q 739 974 751 988 q 720 953 726 960 q 700 926 714 947 q 683 900 686 906 q 661 865 679 894 q 639 826 643 835 l 429 478 l 429 147 q 440 69 429 97 q 485 3 450 40 l 485 0 l 299 0 l 299 3 m 633 1246 q 642 1238 633 1246 q 650 1206 650 1229 q 633 1165 650 1182 q 593 1149 617 1149 q 553 1165 569 1149 q 536 1206 536 1182 q 553 1246 536 1229 q 593 1263 569 1263 q 633 1246 617 1263 m 272 1246 q 281 1238 272 1246 q 289 1206 289 1229 q 272 1165 289 1182 q 232 1149 256 1149 q 192 1165 208 1149 q 175 1206 175 1182 q 192 1246 175 1229 q 232 1263 208 1263 q 272 1246 256 1263 z "},"Ź":{"ha":844,"x_min":42,"x_max":803,"o":"m 42 0 l 42 15 l 688 994 l 322 983 q 197 929 251 981 q 85 774 142 878 l 74 778 l 139 1017 l 783 1017 l 783 1001 l 139 21 l 554 33 q 792 251 685 39 l 803 247 l 735 0 l 42 0 m 607 1332 l 653 1257 l 338 1086 l 332 1096 l 607 1332 z "},"ź":{"ha":572,"x_min":28,"x_max":531,"o":"m 28 0 l 28 10 l 442 636 l 231 631 q 113 563 171 631 l 75 517 l 68 519 l 114 660 l 529 660 l 529 649 l 117 24 l 350 28 q 440 56 407 28 q 524 156 472 83 l 531 153 l 482 0 l 28 0 m 401 1040 l 469 988 l 231 740 l 221 749 l 401 1040 z "},"Ż":{"ha":844,"x_min":42,"x_max":803,"o":"m 42 0 l 42 15 l 688 994 l 322 983 q 197 929 251 981 q 85 774 142 878 l 74 778 l 139 1017 l 783 1017 l 783 1001 l 139 21 l 554 33 q 792 251 685 39 l 803 247 l 735 0 l 42 0 m 499 1246 q 507 1238 499 1246 q 515 1206 515 1229 q 499 1165 515 1182 q 458 1149 482 1149 q 418 1165 435 1149 q 401 1206 401 1182 q 418 1246 401 1229 q 458 1263 435 1263 q 499 1246 482 1263 z "},"ż":{"ha":572,"x_min":28,"x_max":531,"o":"m 28 0 l 28 10 l 442 636 l 231 631 q 113 563 171 631 l 75 517 l 68 519 l 114 660 l 529 660 l 529 649 l 117 24 l 350 28 q 440 56 407 28 q 524 156 472 83 l 531 153 l 482 0 l 28 0 m 346 956 q 354 947 346 956 q 363 915 363 939 q 346 875 363 892 q 306 858 329 858 q 265 875 282 858 q 249 915 249 892 q 265 956 249 939 q 306 972 282 972 q 346 956 329 972 z "},"Ž":{"ha":844,"x_min":42,"x_max":803,"o":"m 42 0 l 42 15 l 688 994 l 322 983 q 197 929 251 981 q 85 774 142 878 l 74 778 l 139 1017 l 783 1017 l 783 1001 l 139 21 l 554 33 q 792 251 685 39 l 803 247 l 735 0 l 42 0 m 456 1086 l 246 1303 l 254 1313 l 458 1175 l 663 1313 l 671 1303 l 461 1086 l 456 1086 z "},"ž":{"ha":572,"x_min":28,"x_max":531,"o":"m 28 0 l 28 10 l 442 636 l 231 631 q 113 563 171 631 l 75 517 l 68 519 l 114 660 l 529 660 l 529 649 l 117 24 l 350 28 q 440 56 407 28 q 524 156 472 83 l 531 153 l 482 0 l 28 0 m 114 990 l 124 999 l 303 844 l 488 999 l 497 990 l 306 750 l 300 750 l 114 990 z "},"ƒ":{"ha":694,"x_min":-83,"x_max":676,"o":"m 29 -264 q -64 -244 -31 -264 l -83 -104 l -72 -101 q -35 -172 -49 -149 q 2 -215 -21 -194 q 49 -236 25 -236 q 124 -176 92 -236 q 185 13 156 -117 l 293 510 l 178 510 l 185 538 l 299 538 l 336 707 q 574 1038 407 1038 q 667 1018 633 1038 l 676 850 l 665 847 q 653 876 661 857 q 642 904 646 894 q 631 929 638 914 q 619 952 624 944 q 608 971 615 960 q 596 988 601 982 q 583 999 590 993 q 569 1008 576 1006 q 553 1010 561 1010 q 480 951 511 1010 q 419 765 449 893 l 369 538 l 519 538 l 514 510 l 364 510 l 267 67 q 174 -180 231 -96 q 29 -264 117 -264 z "},"Ǻ":{"ha":868,"x_min":7,"x_max":861,"o":"m 414 936 l 226 411 l 600 411 l 414 936 m 163 0 l 7 0 l 7 3 q 49 50 33 26 q 72 93 64 74 q 101 168 81 113 l 415 1029 l 453 1029 l 771 156 q 813 53 799 78 q 861 3 828 28 l 861 0 l 688 0 l 688 3 q 690 158 726 54 l 610 383 l 215 383 l 136 161 q 163 3 99 58 l 163 0 m 342 1118 q 326 1134 342 1118 q 310 1201 310 1150 q 342 1286 310 1253 q 426 1319 375 1319 q 510 1286 478 1319 q 543 1201 543 1253 q 510 1118 543 1150 q 426 1086 478 1086 q 342 1118 375 1086 m 349 1201 q 369 1134 349 1158 q 426 1110 389 1110 q 484 1134 464 1110 q 504 1201 504 1158 q 426 1296 504 1296 q 349 1201 349 1296 m 575 1610 l 621 1535 l 306 1364 l 300 1374 l 575 1610 z "},"ǻ":{"ha":644,"x_min":54,"x_max":631,"o":"m 250 29 q 436 101 364 29 l 436 347 q 288 315 354 338 q 173 246 221 292 q 125 140 125 200 q 156 59 125 89 q 250 29 188 29 m 525 -17 q 460 9 482 -17 q 436 78 438 35 q 217 -21 343 -21 q 98 17 142 -21 q 54 121 54 54 q 91 226 54 179 q 187 301 128 272 q 308 347 246 329 q 436 369 371 364 l 436 497 q 279 639 436 639 q 85 578 174 639 l 78 588 q 319 681 171 681 q 465 635 425 681 q 506 511 506 589 l 506 92 q 560 32 506 32 q 626 65 593 32 l 631 63 q 525 -17 600 -17 m 231 825 q 215 841 231 825 q 199 908 199 857 q 231 993 199 960 q 315 1026 264 1026 q 399 993 367 1026 q 432 908 432 960 q 399 825 432 857 q 315 793 367 793 q 231 825 264 793 m 238 908 q 258 841 238 865 q 315 817 278 817 q 373 841 353 817 q 393 908 393 865 q 315 1003 393 1003 q 238 908 238 1003 m 464 1332 l 510 1257 l 194 1086 l 189 1096 l 464 1332 z "},"Ǽ":{"ha":1317,"x_min":7,"x_max":1296,"o":"m 631 857 q 614 944 631 907 l 315 411 l 631 411 l 631 857 m 171 0 l 7 0 l 7 3 q 79 72 54 42 q 144 172 104 101 l 597 972 q 549 1014 578 997 l 549 1017 l 1164 1017 l 1218 815 l 1207 811 q 1085 967 1117 940 q 1049 985 1064 983 l 707 993 l 707 525 l 931 525 q 963 542 947 525 q 1002 598 979 558 q 1029 643 1025 638 l 1040 643 l 1040 386 l 1029 386 q 1013 413 1024 394 q 993 442 1001 431 q 974 469 985 454 q 951 490 963 483 q 931 497 940 497 l 707 497 l 707 24 l 1058 33 q 1169 83 1119 36 q 1285 229 1219 131 l 1296 225 l 1233 0 l 576 0 l 576 3 q 631 160 631 85 l 631 383 l 300 383 l 176 163 q 171 3 117 56 l 171 0 m 979 1332 l 1025 1257 l 710 1086 l 704 1096 l 979 1332 z "},"ǽ":{"ha":1019,"x_min":43,"x_max":971,"o":"m 714 -21 q 460 140 538 -21 q 207 -21 368 -21 q 88 17 132 -21 q 43 121 43 54 q 80 226 43 179 q 176 301 117 272 q 297 347 235 329 q 425 369 360 364 l 425 497 q 268 639 425 639 q 74 578 163 639 l 67 588 q 308 681 160 681 q 439 644 399 681 q 489 547 479 608 q 721 681 567 681 q 902 603 835 681 q 961 414 969 525 l 506 414 q 501 350 501 385 q 562 127 501 211 q 739 43 622 43 q 869 72 806 43 q 964 157 932 101 l 971 154 q 877 26 946 74 q 714 -21 808 -21 m 719 656 q 581 598 636 656 q 508 435 525 540 l 874 443 l 874 451 q 719 656 874 656 m 240 32 q 450 167 372 32 q 425 317 425 231 l 425 347 q 209 281 297 332 q 121 140 121 229 q 151 61 121 90 q 240 32 181 32 m 618 1040 l 686 988 l 447 740 l 438 749 l 618 1040 z "},"Ǿ":{"ha":1126,"x_min":56,"x_max":1071,"o":"m 147 507 q 286 118 147 260 l 815 919 q 563 1010 710 1010 q 260 868 374 1010 q 147 507 147 726 m 563 7 q 865 147 751 7 q 979 507 979 288 q 838 899 979 757 l 308 97 q 563 7 417 7 m 563 -21 q 285 61 404 -21 l 218 -40 l 182 -40 l 260 78 q 110 261 164 150 q 56 507 56 372 q 201 885 56 732 q 563 1038 346 1038 q 839 956 721 1038 l 907 1058 l 943 1058 l 864 939 q 1016 753 961 865 q 1071 507 1071 642 q 925 131 1071 282 q 563 -21 779 -21 m 711 1332 l 757 1257 l 442 1086 l 436 1096 l 711 1332 z "},"ǿ":{"ha":781,"x_min":49,"x_max":732,"o":"m 390 -21 q 203 36 285 -21 l 114 -93 l 79 -93 l 181 53 q 49 329 49 158 q 149 578 49 475 q 390 681 250 681 q 575 624 493 681 l 667 756 l 701 756 l 599 607 q 732 329 732 501 q 631 81 732 183 q 390 -21 531 -21 m 390 4 q 580 96 514 4 q 646 329 646 188 q 572 569 646 479 l 225 68 q 390 4 293 4 m 135 329 q 206 90 135 178 l 553 592 q 390 656 489 656 q 202 563 269 656 q 135 329 135 471 m 514 1040 l 582 988 l 343 740 l 333 749 l 514 1040 z "},"Ș":{"ha":740,"x_min":49,"x_max":692,"o":"m 622 803 l 611 799 q 347 1010 540 1010 q 183 956 238 1010 q 129 824 129 901 q 147 736 129 774 q 210 667 164 699 q 284 622 257 636 q 382 579 311 608 q 404 569 397 572 q 491 531 460 546 q 566 486 522 515 q 633 427 610 457 q 674 353 657 397 q 692 254 692 308 q 593 47 692 114 q 343 -21 494 -21 q 76 32 203 -21 l 49 229 l 60 233 q 180 60 107 114 q 371 7 253 7 q 556 65 493 7 q 618 226 618 124 q 602 315 618 275 q 567 378 586 354 q 503 430 547 403 q 435 469 460 457 q 353 506 410 481 q 282 537 304 526 q 219 569 260 547 q 158 610 178 590 q 114 658 138 629 q 81 721 90 686 q 71 799 71 756 q 151 976 71 914 q 369 1038 232 1038 q 594 996 489 1038 l 622 803 m 308 -303 q 357 -253 338 -282 q 376 -201 376 -225 q 331 -119 376 -160 l 331 -117 l 397 -67 q 442 -151 442 -97 q 314 -311 442 -229 l 308 -303 z "},"ș":{"ha":521,"x_min":44,"x_max":486,"o":"m 449 532 l 438 529 q 359 628 401 600 q 261 656 317 656 q 153 622 194 656 q 113 533 113 589 q 124 478 113 501 q 167 437 136 456 q 217 409 197 418 q 289 381 238 400 q 361 349 333 363 q 422 310 389 335 q 470 250 454 285 q 486 169 486 215 q 424 30 486 81 q 242 -21 361 -21 q 58 19 142 -21 l 44 161 l 56 164 q 139 42 90 81 q 261 4 188 4 q 385 44 342 4 q 429 146 429 85 q 384 243 429 208 q 254 308 339 278 q 183 338 211 324 q 122 374 154 351 q 72 431 89 397 q 56 507 56 464 q 122 639 56 597 q 285 681 189 681 q 435 656 374 681 l 449 532 m 189 -303 q 238 -253 218 -282 q 257 -201 257 -225 q 211 -119 257 -160 l 211 -117 l 278 -67 q 322 -151 322 -97 q 194 -311 322 -229 l 189 -303 z "},"Ț":{"ha":881,"x_min":21,"x_max":860,"o":"m 533 0 l 347 0 l 347 3 q 392 79 382 46 q 403 172 403 113 l 403 992 l 190 986 q 32 775 150 986 l 21 779 l 75 1017 l 806 1017 l 860 779 l 849 775 q 817 828 839 792 q 782 886 796 864 q 751 935 768 908 q 718 974 733 961 q 690 986 703 986 l 478 992 l 478 172 q 489 81 478 114 q 533 3 500 49 l 533 0 m 356 -303 q 404 -253 385 -282 q 424 -201 424 -225 q 378 -119 424 -160 l 378 -117 l 444 -67 q 489 -151 489 -97 q 361 -311 489 -229 l 356 -303 z "},"ț":{"ha":443,"x_min":43,"x_max":408,"o":"m 257 -21 q 158 15 199 -21 q 118 132 118 50 l 118 635 l 43 635 l 43 638 l 185 761 l 188 761 l 188 660 l 393 660 l 393 635 l 188 635 l 188 129 q 289 22 188 22 q 406 51 351 22 l 408 46 q 257 -21 342 -21 m 160 -303 q 208 -253 189 -282 q 228 -201 228 -225 q 182 -119 228 -160 l 182 -117 l 249 -67 q 293 -151 293 -97 q 165 -311 293 -229 l 160 -303 z "},"ȷ":{"ha":301,"x_min":19,"x_max":179,"o":"m 19 -331 q 89 -264 68 -304 q 110 -136 110 -224 l 110 510 q 49 613 110 572 l 49 615 l 179 688 l 176 -117 q 140 -277 176 -226 q 22 -337 103 -328 l 19 -331 z "},"ˆ":{"ha":625,"x_min":124,"x_max":507,"o":"m 313 904 l 133 750 l 124 758 l 310 999 l 315 999 l 507 758 l 497 750 l 313 904 z "},"ˇ":{"ha":625,"x_min":124,"x_max":507,"o":"m 124 990 l 133 999 l 313 844 l 497 999 l 507 990 l 315 750 l 310 750 l 124 990 z "},"˘":{"ha":625,"x_min":142,"x_max":482,"o":"m 311 853 q 471 963 436 853 l 482 963 q 438 845 478 897 q 310 793 399 793 q 185 846 225 793 q 142 963 146 899 l 153 963 q 311 853 189 853 z "},"˙":{"ha":625,"x_min":256,"x_max":369,"o":"m 353 956 q 361 947 353 956 q 369 915 369 939 q 353 875 369 892 q 313 858 336 858 q 272 875 289 858 q 256 915 256 892 q 272 956 256 939 q 313 972 289 972 q 353 956 336 972 z "},"˚":{"ha":417,"x_min":92,"x_max":325,"o":"m 124 825 q 108 841 124 825 q 92 908 92 857 q 124 993 92 960 q 208 1026 157 1026 q 292 993 260 1026 q 325 908 325 960 q 292 825 325 857 q 208 793 260 793 q 124 825 157 793 m 131 908 q 151 841 131 865 q 208 817 171 817 q 266 841 246 817 q 286 908 286 865 q 208 1003 286 1003 q 131 908 131 1003 z "},"˛":{"ha":417,"x_min":60,"x_max":363,"o":"m 264 1 q 124 -214 124 -104 q 213 -300 124 -300 q 351 -224 286 -300 l 363 -232 q 183 -344 290 -344 q 92 -315 124 -344 q 60 -233 60 -286 q 101 -122 60 -174 q 233 1 143 -71 l 264 1 z "},"˜":{"ha":625,"x_min":111,"x_max":514,"o":"m 222 947 q 318 917 258 947 q 418 886 378 886 q 503 961 483 886 l 514 960 q 403 822 503 822 q 307 853 367 822 q 207 883 247 883 q 122 808 142 883 l 111 810 q 222 947 122 947 z "},"˝":{"ha":624,"x_min":110,"x_max":518,"o":"m 464 1013 l 518 963 l 317 751 l 307 761 l 464 1013 m 267 1013 l 321 963 l 119 751 l 110 761 l 267 1013 z "},"Ẁ":{"ha":1318,"x_min":14,"x_max":1304,"o":"m 357 -12 l 96 861 q 59 964 72 939 q 14 1014 46 989 l 14 1017 l 207 1017 l 207 1014 q 197 1001 206 1013 q 185 983 189 989 q 174 963 181 978 q 167 934 168 947 q 167 901 165 921 q 176 858 169 881 l 399 111 l 635 772 l 604 861 q 562 962 578 935 q 513 1014 546 989 l 513 1017 l 717 1017 l 717 1014 l 696 993 q 683 858 653 950 l 942 104 l 1151 813 q 1119 1014 1183 932 l 1119 1017 l 1304 1017 l 1304 1014 q 1234 940 1257 979 q 1185 813 1211 900 l 939 -12 l 901 -12 l 651 724 l 394 -12 l 357 -12 m 735 1086 l 414 1257 l 465 1332 l 740 1096 l 735 1086 z "},"ẁ":{"ha":883,"x_min":14,"x_max":876,"o":"m 256 -8 l 90 517 q 14 657 56 624 l 14 660 l 169 660 l 169 657 q 154 610 157 643 q 164 524 151 576 l 282 115 l 429 515 l 429 517 q 354 657 389 635 l 354 660 l 503 660 l 503 657 q 508 507 472 619 l 636 117 l 758 500 q 739 657 797 621 l 739 660 l 876 660 l 876 657 q 828 606 844 633 q 792 513 811 578 l 621 -8 l 613 -8 l 443 478 l 264 -8 l 256 -8 m 507 740 l 268 988 l 336 1040 l 517 749 l 507 740 z "},"Ẃ":{"ha":1318,"x_min":14,"x_max":1304,"o":"m 357 -12 l 96 861 q 59 964 72 939 q 14 1014 46 989 l 14 1017 l 207 1017 l 207 1014 q 197 1001 206 1013 q 185 983 189 989 q 174 963 181 978 q 167 934 168 947 q 167 901 165 921 q 176 858 169 881 l 399 111 l 635 772 l 604 861 q 562 962 578 935 q 513 1014 546 989 l 513 1017 l 717 1017 l 717 1014 l 696 993 q 683 858 653 950 l 942 104 l 1151 813 q 1119 1014 1183 932 l 1119 1017 l 1304 1017 l 1304 1014 q 1234 940 1257 979 q 1185 813 1211 900 l 939 -12 l 901 -12 l 651 724 l 394 -12 l 357 -12 m 767 1332 l 813 1257 l 497 1086 l 492 1096 l 767 1332 z "},"ẃ":{"ha":883,"x_min":14,"x_max":876,"o":"m 256 -8 l 90 517 q 14 657 56 624 l 14 660 l 169 660 l 169 657 q 154 610 157 643 q 164 524 151 576 l 282 115 l 429 515 l 429 517 q 354 657 389 635 l 354 660 l 503 660 l 503 657 q 508 507 472 619 l 636 117 l 758 500 q 739 657 797 621 l 739 660 l 876 660 l 876 657 q 828 606 844 633 q 792 513 811 578 l 621 -8 l 613 -8 l 443 478 l 264 -8 l 256 -8 m 551 1040 l 619 988 l 381 740 l 371 749 l 551 1040 z "},"Ẅ":{"ha":1318,"x_min":14,"x_max":1304,"o":"m 357 -12 l 96 861 q 59 964 72 939 q 14 1014 46 989 l 14 1017 l 207 1017 l 207 1014 q 197 1001 206 1013 q 185 983 189 989 q 174 963 181 978 q 167 934 168 947 q 167 901 165 921 q 176 858 169 881 l 399 111 l 635 772 l 604 861 q 562 962 578 935 q 513 1014 546 989 l 513 1017 l 717 1017 l 717 1014 l 696 993 q 683 858 653 950 l 942 104 l 1151 813 q 1119 1014 1183 932 l 1119 1017 l 1304 1017 l 1304 1014 q 1234 940 1257 979 q 1185 813 1211 900 l 939 -12 l 901 -12 l 651 724 l 394 -12 l 357 -12 m 839 1246 q 847 1238 839 1246 q 856 1206 856 1229 q 839 1165 856 1182 q 799 1149 822 1149 q 758 1165 775 1149 q 742 1206 742 1182 q 758 1246 742 1229 q 799 1263 775 1263 q 839 1246 822 1263 m 478 1246 q 486 1238 478 1246 q 494 1206 494 1229 q 478 1165 494 1182 q 438 1149 461 1149 q 397 1165 414 1149 q 381 1206 381 1182 q 397 1246 381 1229 q 438 1263 414 1263 q 478 1246 461 1263 z "},"ẅ":{"ha":883,"x_min":14,"x_max":876,"o":"m 256 -8 l 90 517 q 14 657 56 624 l 14 660 l 169 660 l 169 657 q 154 610 157 643 q 164 524 151 576 l 282 115 l 429 515 l 429 517 q 354 657 389 635 l 354 660 l 503 660 l 503 657 q 508 507 472 619 l 636 117 l 758 500 q 739 657 797 621 l 739 660 l 876 660 l 876 657 q 828 606 844 633 q 792 513 811 578 l 621 -8 l 613 -8 l 443 478 l 264 -8 l 256 -8 m 635 956 q 643 947 635 956 q 651 915 651 939 q 635 875 651 892 q 594 858 618 858 q 554 875 571 858 q 538 915 538 892 q 554 956 538 939 q 594 972 571 972 q 635 956 618 972 m 357 956 q 365 947 357 956 q 374 915 374 939 q 357 875 374 892 q 317 858 340 858 q 276 875 293 858 q 260 915 260 892 q 276 956 260 939 q 317 972 293 972 q 357 956 340 972 z "},"Ỳ":{"ha":792,"x_min":0,"x_max":792,"o":"m 299 3 q 343 68 332 38 q 354 147 354 99 l 354 475 l 119 879 q 0 1014 60 981 l 0 1017 l 215 1017 l 215 1014 q 203 888 149 983 l 419 513 l 607 826 q 644 914 638 876 q 639 972 650 951 q 603 1014 628 993 l 603 1017 l 792 1017 l 792 1014 q 764 996 776 1004 q 739 974 751 988 q 720 953 726 960 q 700 926 714 947 q 683 900 686 906 q 661 865 679 894 q 639 826 643 835 l 429 478 l 429 147 q 440 69 429 97 q 485 3 450 40 l 485 0 l 299 0 l 299 3 m 529 1086 l 208 1257 l 260 1332 l 535 1096 l 529 1086 z "},"ỳ":{"ha":572,"x_min":0,"x_max":579,"o":"m 28 -236 q 93 -223 57 -236 q 173 -171 129 -210 q 239 -74 217 -132 l 274 17 l 82 515 q 0 657 42 625 l 0 660 l 163 660 l 163 657 q 156 513 118 617 l 308 107 l 458 501 q 442 657 503 619 l 442 660 l 579 660 l 579 657 q 532 608 547 633 q 490 513 517 582 l 250 -112 q 158 -258 211 -212 q 31 -312 106 -304 l 28 -236 m 361 740 l 122 988 l 190 1040 l 371 749 l 361 740 z "},"–":{"ha":681,"x_min":42,"x_max":639,"o":"m 42 376 l 42 401 l 639 401 l 639 376 l 42 376 z "},"—":{"ha":1028,"x_min":42,"x_max":986,"o":"m 42 376 l 42 401 l 986 401 l 986 376 l 42 376 z "},"‘":{"ha":289,"x_min":83,"x_max":222,"o":"m 222 1040 q 150 899 150 957 q 203 815 150 863 l 203 813 l 132 756 q 83 839 83 792 q 214 1049 83 939 l 222 1040 z "},"’":{"ha":289,"x_min":67,"x_max":206,"o":"m 67 764 q 139 906 139 847 q 86 989 139 942 l 86 992 l 157 1049 q 206 965 206 1013 q 75 756 206 865 l 67 764 z "},"‚":{"ha":289,"x_min":67,"x_max":206,"o":"m 67 -111 q 139 31 139 -28 q 86 114 139 67 l 86 117 l 157 174 q 206 90 206 138 q 75 -119 206 -10 l 67 -111 z "},"“":{"ha":469,"x_min":83,"x_max":403,"o":"m 222 1040 q 150 899 150 957 q 203 815 150 863 l 203 813 l 132 756 q 83 839 83 792 q 214 1049 83 939 l 222 1040 m 403 1040 q 331 899 331 957 q 383 815 331 863 l 383 813 l 313 756 q 264 839 264 792 q 394 1049 264 939 l 403 1040 z "},"”":{"ha":483,"x_min":67,"x_max":400,"o":"m 261 764 q 333 906 333 847 q 281 989 333 942 l 281 992 l 351 1049 q 400 965 400 1013 q 269 756 400 865 l 261 764 m 67 764 q 139 906 139 847 q 86 989 139 942 l 86 992 l 157 1049 q 206 965 206 1013 q 75 756 206 865 l 67 764 z "},"„":{"ha":483,"x_min":67,"x_max":400,"o":"m 67 -111 q 139 31 139 -28 q 86 114 139 67 l 86 117 l 157 174 q 206 90 206 138 q 75 -119 206 -10 l 67 -111 m 261 -111 q 333 31 333 -28 q 281 114 333 67 l 281 117 l 351 174 q 400 90 400 138 q 269 -119 400 -10 l 261 -111 z "},"†":{"ha":578,"x_min":56,"x_max":522,"o":"m 301 0 l 276 0 l 251 364 l 282 719 l 56 688 l 56 768 l 281 736 l 244 1017 l 333 1017 l 297 736 l 522 768 l 522 688 l 296 719 l 326 364 l 301 0 z "},"‡":{"ha":578,"x_min":56,"x_max":522,"o":"m 297 281 l 333 0 l 244 0 l 281 281 l 56 249 l 56 329 l 281 297 l 256 508 l 281 719 l 56 688 l 56 768 l 281 736 l 244 1017 l 333 1017 l 297 736 l 522 768 l 522 688 l 297 719 l 322 508 l 297 297 l 522 329 l 522 249 l 297 281 z "},"•":{"ha":331,"x_min":63,"x_max":268,"o":"m 238 324 q 222 309 238 324 q 165 293 207 293 q 93 324 124 293 q 63 396 63 356 q 92 471 63 440 q 165 501 122 501 q 238 471 207 501 q 268 396 268 440 q 238 324 268 356 z "},"…":{"ha":969,"x_min":72,"x_max":897,"o":"m 138 -4 q 92 15 111 -4 q 72 61 72 33 q 92 108 72 89 q 138 126 111 126 q 184 108 165 126 q 203 61 203 89 q 184 15 203 33 q 138 -4 165 -4 m 485 -4 q 439 15 458 -4 q 419 61 419 33 q 439 108 419 89 q 485 126 458 126 q 531 108 513 126 q 550 61 550 89 q 531 15 550 33 q 485 -4 513 -4 m 832 -4 q 786 15 806 -4 q 767 61 767 33 q 786 108 767 89 q 832 126 806 126 q 878 108 860 126 q 897 61 897 89 q 878 15 897 33 q 832 -4 860 -4 z "},"‰":{"ha":1586,"x_min":42,"x_max":1544,"o":"m 257 481 q 104 561 167 481 q 42 760 42 642 q 104 957 42 876 q 257 1038 167 1038 q 412 957 349 1038 q 475 760 475 876 q 412 561 475 642 q 257 481 349 481 m 257 501 q 396 760 396 501 q 257 1017 396 1017 q 121 760 121 1017 q 257 501 121 501 m 810 -11 q 657 69 719 -11 q 594 268 594 150 q 657 465 594 385 q 810 546 719 546 q 965 465 901 546 q 1028 268 1028 385 q 965 69 1028 150 q 810 -11 901 -11 m 1326 -11 q 1174 69 1236 -11 q 1111 268 1111 150 q 1174 465 1111 385 q 1326 546 1236 546 q 1481 465 1418 546 q 1544 268 1544 385 q 1481 69 1544 150 q 1326 -11 1418 -11 m 810 10 q 949 268 949 10 q 810 525 949 525 q 674 268 674 525 q 810 10 674 10 m 1326 10 q 1465 268 1465 10 q 1326 525 1465 525 q 1190 268 1190 525 q 1326 10 1190 10 m 172 19 l 896 1032 l 919 1017 l 194 1 l 172 19 z "},"‹":{"ha":349,"x_min":69,"x_max":272,"o":"m 261 72 l 69 315 l 69 343 l 261 586 l 272 578 l 146 329 l 272 81 l 261 72 z "},"›":{"ha":349,"x_min":76,"x_max":279,"o":"m 76 81 l 203 329 l 76 578 l 88 586 l 279 343 l 279 315 l 88 72 l 76 81 z "},"⁄":{"ha":386,"x_min":-181,"x_max":567,"o":"m -181 19 l 543 1032 l 567 1017 l -158 1 l -181 19 z "},"€":{"ha":968,"x_min":7,"x_max":899,"o":"m 871 88 q 744 14 828 49 q 565 -21 660 -21 q 277 97 389 -21 q 139 404 165 214 l 7 404 l 7 429 l 136 429 q 132 510 132 469 q 136 588 132 550 l 7 588 l 7 613 l 139 613 q 291 919 168 801 q 601 1038 414 1038 q 865 968 733 1038 l 893 772 l 882 769 q 760 953 828 897 q 596 1010 692 1010 q 343 902 436 1010 q 229 613 250 794 l 578 613 l 578 588 l 226 588 q 224 510 224 535 q 226 429 224 482 l 578 429 l 578 404 l 229 404 q 336 114 250 221 q 571 7 422 7 q 767 81 692 7 q 888 303 842 156 l 899 300 l 871 88 z "},"™":{"ha":1040,"x_min":49,"x_max":992,"o":"m 310 560 l 199 560 l 199 563 q 224 636 224 594 l 224 1000 l 156 997 q 137 990 147 997 q 116 970 126 983 q 97 945 106 957 q 75 915 88 933 q 56 888 63 897 l 49 890 l 76 1017 l 432 1017 l 460 890 l 453 888 q 433 915 447 894 q 411 946 419 935 q 391 971 403 957 q 369 991 379 985 q 353 997 360 997 l 285 1000 l 285 636 q 310 563 285 594 l 310 560 m 599 560 l 497 560 l 497 563 q 524 601 518 586 q 531 647 531 617 l 531 942 q 524 984 531 971 q 493 1014 517 997 l 493 1017 l 588 1017 l 743 658 l 903 1017 l 992 1017 l 992 1014 q 961 984 968 999 q 954 939 954 969 l 954 639 q 979 563 954 596 l 979 560 l 868 560 l 868 563 q 893 639 893 596 l 893 946 l 726 572 l 717 572 l 553 947 l 553 647 q 561 603 553 618 q 599 563 569 588 l 599 560 z "},"⅓":{"ha":928,"x_min":38,"x_max":899,"o":"m 65 492 l 65 493 q 97 542 89 521 q 104 601 104 564 l 104 919 l 38 919 l 38 925 q 165 1033 107 965 l 172 1033 l 172 601 q 180 542 172 563 q 213 493 188 521 l 213 492 l 65 492 m 60 19 l 783 1032 l 807 1017 l 82 1 l 60 19 m 704 -11 q 567 21 618 -11 l 549 136 l 556 138 q 628 40 596 71 q 711 10 661 10 q 801 54 771 10 q 831 167 831 99 q 704 310 831 310 q 608 279 653 310 l 599 292 l 803 474 l 578 474 l 597 533 l 893 533 l 893 526 l 668 326 q 721 333 696 333 q 847 290 796 333 q 899 167 899 246 q 845 38 899 86 q 704 -11 792 -11 z "},"⅔":{"ha":1013,"x_min":19,"x_max":983,"o":"m 19 492 l 19 501 q 235 719 175 632 q 294 890 294 806 q 267 983 294 950 q 188 1017 239 1017 q 115 986 143 1017 q 53 889 86 956 l 46 892 l 63 1014 q 189 1038 126 1038 q 320 999 278 1038 q 363 893 363 960 q 300 736 363 815 q 103 550 238 657 l 249 550 q 323 574 294 550 q 381 649 351 597 l 388 646 l 343 492 l 19 492 m 151 19 l 875 1032 l 899 1017 l 174 1 l 151 19 m 789 -11 q 651 21 703 -11 l 633 136 l 640 138 q 713 40 681 71 q 796 10 746 10 q 885 54 856 10 q 915 167 915 99 q 789 310 915 310 q 693 279 738 310 l 683 292 l 888 474 l 663 474 l 682 533 l 978 533 l 978 526 l 753 326 q 806 333 781 333 q 932 290 881 333 q 983 167 983 246 q 930 38 983 86 q 789 -11 876 -11 z "},"⅛":{"ha":860,"x_min":38,"x_max":835,"o":"m 65 492 l 65 493 q 97 542 89 521 q 104 601 104 564 l 104 919 l 38 919 l 38 925 q 165 1033 107 965 l 172 1033 l 172 601 q 180 542 172 563 q 213 493 188 521 l 213 492 l 65 492 m 46 19 l 769 1032 l 793 1017 l 68 1 l 46 19 m 658 -11 q 538 26 588 -11 q 489 125 489 63 q 615 269 489 232 q 515 401 515 322 q 556 506 515 467 q 664 546 597 546 q 767 512 725 546 q 808 421 808 478 q 703 296 808 329 q 835 140 835 236 q 785 31 835 72 q 658 -11 735 -11 m 660 10 q 749 38 715 10 q 783 114 783 65 q 750 192 783 161 q 633 261 717 222 q 539 125 539 215 q 571 40 539 69 q 660 10 603 10 m 564 435 q 592 362 564 390 q 688 304 621 333 q 758 421 758 347 q 733 498 758 471 q 663 525 707 525 q 591 500 618 525 q 564 435 564 475 z "},"⅜":{"ha":944,"x_min":38,"x_max":919,"o":"m 193 481 q 56 513 107 481 l 38 628 l 44 629 q 117 532 85 563 q 200 501 150 501 q 290 546 260 501 q 319 658 319 590 q 193 801 319 801 q 97 771 142 801 l 88 783 l 292 965 l 67 965 l 86 1025 l 382 1025 l 382 1018 l 157 818 q 210 825 185 825 q 336 781 285 825 q 388 658 388 738 q 334 529 388 578 q 193 481 281 481 m 131 19 l 854 1032 l 878 1017 l 153 1 l 131 19 m 743 -11 q 623 26 672 -11 q 574 125 574 63 q 700 269 574 232 q 600 401 600 322 q 641 506 600 467 q 749 546 682 546 q 851 512 810 546 q 893 421 893 478 q 788 296 893 329 q 919 140 919 236 q 869 31 919 72 q 743 -11 819 -11 m 744 10 q 834 38 800 10 q 868 114 868 65 q 835 192 868 161 q 718 261 801 222 q 624 125 624 215 q 656 40 624 69 q 744 10 688 10 m 649 435 q 677 362 649 390 q 772 304 706 333 q 843 421 843 347 q 817 498 843 471 q 747 525 792 525 q 676 500 703 525 q 649 435 649 475 z "},"⅝":{"ha":940,"x_min":33,"x_max":915,"o":"m 178 481 q 50 513 99 481 l 33 624 l 40 625 q 109 531 78 561 q 186 501 140 501 q 273 540 240 501 q 306 653 306 578 q 269 774 306 732 q 168 817 233 817 q 76 782 111 817 l 67 789 l 107 1026 l 364 1026 l 353 968 l 119 968 l 93 811 q 188 839 132 839 q 319 792 265 839 q 372 658 372 744 q 319 527 372 574 q 178 481 265 481 m 126 19 l 850 1032 l 874 1017 l 149 1 l 126 19 m 739 -11 q 619 26 668 -11 q 569 125 569 63 q 696 269 569 232 q 596 401 596 322 q 637 506 596 467 q 744 546 678 546 q 847 512 806 546 q 889 421 889 478 q 783 296 889 329 q 915 140 915 236 q 865 31 915 72 q 739 -11 815 -11 m 740 10 q 830 38 796 10 q 864 114 864 65 q 831 192 864 161 q 714 261 797 222 q 619 125 619 215 q 651 40 619 69 q 740 10 683 10 m 644 435 q 673 362 644 390 q 768 304 701 333 q 839 421 839 347 q 813 498 839 471 q 743 525 788 525 q 672 500 699 525 q 644 435 644 475 z "},"⅞":{"ha":861,"x_min":47,"x_max":836,"o":"m 99 492 q 329 968 174 764 l 56 968 l 67 1026 l 388 1026 l 388 1019 q 172 492 219 760 l 99 492 m 47 19 l 771 1032 l 794 1017 l 69 1 l 47 19 m 660 -11 q 540 26 589 -11 q 490 125 490 63 q 617 269 490 232 q 517 401 517 322 q 558 506 517 467 q 665 546 599 546 q 768 512 726 546 q 810 421 810 478 q 704 296 810 329 q 836 140 836 236 q 786 31 836 72 q 660 -11 736 -11 m 661 10 q 751 38 717 10 q 785 114 785 65 q 751 192 785 161 q 635 261 718 222 q 540 125 540 215 q 572 40 540 69 q 661 10 604 10 m 565 435 q 594 362 565 390 q 689 304 622 333 q 760 421 760 347 q 734 498 760 471 q 664 525 708 525 q 592 500 619 525 q 565 435 565 475 z "},"−":{"ha":739,"x_min":63,"x_max":676,"o":"m 63 414 l 63 442 l 676 442 l 676 414 l 63 414 z "},"Ⓟ":{"ha":1171,"x_min":56,"x_max":1115,"o":"m 210 135 q 133 212 210 135 q 56 510 56 289 q 210 884 56 731 q 585 1038 364 1038 q 960 884 806 1038 q 1115 510 1115 731 q 960 135 1115 289 q 585 -19 806 -19 q 210 135 364 -19 m 235 864 q 163 791 235 864 q 90 510 90 718 q 235 155 90 301 q 585 8 379 8 q 935 155 790 8 q 1079 510 1079 301 q 935 864 1079 718 q 585 1010 790 1010 q 235 864 379 1010 m 428 215 q 453 255 447 239 q 458 304 458 271 l 458 681 q 453 730 458 714 q 428 769 447 746 l 428 772 l 608 772 q 779 617 779 772 q 731 488 779 533 q 596 442 683 442 l 507 442 l 507 304 q 512 255 507 271 q 536 215 517 239 l 536 213 l 428 213 l 428 215 m 596 749 l 565 749 q 507 747 533 749 l 507 467 l 596 467 q 695 508 663 467 q 728 617 728 549 q 596 749 728 749 z "},"":{"ha":1122,"x_min":51,"x_max":1067,"o":"m 729 -21 q 519 61 593 -21 l 486 0 l 472 0 l 472 874 q 435 1005 472 956 q 342 1054 399 1054 q 208 858 208 1054 l 208 660 l 372 660 l 372 635 l 208 635 l 208 193 q 240 3 208 60 l 240 0 l 106 0 l 106 3 q 139 193 139 56 l 139 635 l 51 635 l 51 660 l 139 660 l 139 797 q 195 1008 139 933 q 358 1082 251 1082 q 478 1053 424 1082 l 542 1082 l 542 563 l 546 563 q 774 681 618 681 q 985 590 903 681 q 1067 349 1067 499 q 978 88 1067 196 q 729 -21 890 -21 m 746 4 q 918 94 850 4 q 986 335 986 185 q 916 554 986 475 q 736 633 846 633 q 622 603 676 632 q 542 533 568 574 l 542 235 q 600 63 542 121 q 746 4 658 4 z "},"":{"ha":1456,"x_min":51,"x_max":1400,"o":"m 1063 -21 q 853 61 926 -21 l 819 0 l 806 0 l 806 874 q 769 1005 806 956 q 675 1054 732 1054 q 542 858 542 1054 l 542 660 l 706 660 l 706 635 l 542 635 l 542 193 q 574 3 542 60 l 574 0 l 439 0 l 439 3 q 472 193 472 56 l 472 635 l 208 635 l 208 193 q 240 3 208 60 l 240 0 l 106 0 l 106 3 q 139 193 139 56 l 139 635 l 51 635 l 51 660 l 139 660 l 139 769 q 192 979 139 904 q 340 1054 244 1054 q 422 1035 397 1054 l 439 924 l 431 921 q 364 1004 388 982 q 308 1026 340 1026 q 236 976 264 1026 q 208 831 208 925 l 208 660 l 472 660 l 472 797 q 528 1008 472 933 q 692 1082 585 1082 q 811 1053 757 1082 l 875 1082 l 875 563 l 879 563 q 1107 681 951 681 q 1318 590 1236 681 q 1400 349 1400 499 q 1312 88 1400 196 q 1063 -21 1224 -21 m 1079 4 q 1251 94 1183 4 q 1319 335 1319 185 q 1249 554 1319 475 q 1069 633 1179 633 q 956 603 1010 632 q 875 533 901 574 l 875 235 q 933 63 875 121 q 1079 4 992 4 z "},"":{"ha":1418,"x_min":51,"x_max":1350,"o":"m 106 3 q 139 193 139 56 l 139 635 l 51 635 l 51 660 l 139 660 l 139 769 q 192 979 139 904 q 340 1054 244 1054 q 422 1035 397 1054 l 439 924 l 431 921 q 364 1004 388 982 q 308 1026 340 1026 q 236 976 264 1026 q 208 831 208 925 l 208 660 l 472 660 l 472 797 q 528 1008 472 933 q 692 1082 585 1082 q 811 1053 757 1082 l 875 1082 l 875 560 q 1125 681 978 681 q 1270 627 1221 681 q 1319 478 1319 574 l 1319 167 q 1324 68 1319 101 q 1350 3 1329 35 l 1350 0 l 1219 0 l 1219 3 q 1250 165 1250 60 l 1250 463 q 1094 626 1250 626 q 875 535 965 626 l 875 165 q 880 69 875 103 q 906 3 885 36 l 906 0 l 775 0 l 775 3 q 806 165 806 60 l 806 874 q 769 1005 806 956 q 675 1054 732 1054 q 542 858 542 1054 l 542 660 l 706 660 l 706 635 l 542 635 l 542 193 q 574 3 542 60 l 574 0 l 439 0 l 439 3 q 472 193 472 56 l 472 635 l 208 635 l 208 193 q 240 3 208 60 l 240 0 l 106 0 l 106 3 z "},"":{"ha":963,"x_min":51,"x_max":875,"o":"m 872 -78 q 835 -238 872 -187 q 718 -299 799 -289 l 715 -292 q 785 -225 764 -265 q 806 -97 806 -185 l 806 532 q 756 635 806 606 l 542 635 l 542 193 q 574 3 542 60 l 574 0 l 439 0 l 439 3 q 472 193 472 56 l 472 635 l 208 635 l 208 193 q 240 3 208 60 l 240 0 l 106 0 l 106 3 q 139 193 139 56 l 139 635 l 51 635 l 51 660 l 139 660 l 139 769 q 192 979 139 904 q 340 1054 244 1054 q 422 1035 397 1054 l 439 924 l 431 921 q 364 1004 388 982 q 308 1026 340 1026 q 236 976 264 1026 q 208 831 208 925 l 208 660 l 472 660 l 472 797 q 524 1007 472 932 q 672 1082 576 1082 q 783 1044 753 1082 l 814 896 l 806 893 q 719 1019 750 985 q 649 1054 688 1054 q 570 1004 599 1054 q 542 858 542 954 l 542 660 l 756 660 q 875 688 826 660 l 872 -78 z "},"":{"ha":1307,"x_min":51,"x_max":1293,"o":"m 1168 0 l 910 346 l 1107 569 q 1094 657 1153 625 l 1094 660 l 1256 660 l 1256 657 q 1188 619 1208 636 q 1131 558 1167 601 l 974 381 l 1163 128 q 1231 49 1204 75 q 1293 3 1258 22 l 1293 0 l 1168 0 m 106 3 q 139 193 139 56 l 139 635 l 51 635 l 51 660 l 139 660 l 139 769 q 192 979 139 904 q 340 1054 244 1054 q 422 1035 397 1054 l 439 924 l 431 921 q 364 1004 388 982 q 308 1026 340 1026 q 236 976 264 1026 q 208 831 208 925 l 208 660 l 472 660 l 472 797 q 688 1082 472 1082 q 811 1053 757 1082 l 875 1082 l 875 165 q 880 69 875 103 q 906 3 885 36 l 906 0 l 775 0 l 775 3 q 806 165 806 60 l 806 874 q 767 1005 806 956 q 669 1054 729 1054 q 542 858 542 1054 l 542 660 l 706 660 l 706 635 l 542 635 l 542 193 q 574 3 542 60 l 574 0 l 439 0 l 439 3 q 472 193 472 56 l 472 635 l 208 635 l 208 193 q 240 3 208 60 l 240 0 l 106 0 l 106 3 z "},"":{"ha":1085,"x_min":51,"x_max":1017,"o":"m 106 0 l 106 3 q 139 193 139 56 l 139 635 l 51 635 l 51 660 l 139 660 l 139 797 q 195 1008 139 933 q 358 1082 251 1082 q 476 1053 422 1082 l 542 1082 l 542 560 q 792 681 644 681 q 937 627 888 681 q 986 478 986 574 l 986 167 q 991 68 986 101 q 1017 3 996 35 l 1017 0 l 886 0 l 886 3 q 917 165 917 60 l 917 463 q 761 626 917 626 q 542 535 632 626 l 542 165 q 547 69 542 103 q 572 3 551 36 l 572 0 l 442 0 l 442 3 q 472 165 472 60 l 472 874 q 435 1005 472 956 q 342 1054 399 1054 q 208 858 208 1054 l 208 660 l 372 660 l 372 635 l 208 635 l 208 193 q 240 3 208 60 l 240 0 l 106 0 z "},"":{"ha":631,"x_min":51,"x_max":542,"o":"m 539 -78 q 502 -238 539 -187 q 385 -299 465 -289 l 382 -292 q 451 -225 431 -265 q 472 -97 472 -185 l 472 532 q 422 635 472 606 l 208 635 l 208 193 q 240 3 208 60 l 240 0 l 106 0 l 106 3 q 139 193 139 56 l 139 635 l 51 635 l 51 660 l 139 660 l 139 797 q 191 1007 139 932 q 339 1082 243 1082 q 450 1044 419 1082 l 481 896 l 472 893 q 385 1019 417 985 q 315 1054 354 1054 q 237 1004 265 1054 q 208 858 208 954 l 208 660 l 422 660 q 542 688 493 660 l 539 -78 z "},"":{"ha":974,"x_min":51,"x_max":960,"o":"m 106 0 l 106 3 q 139 193 139 56 l 139 635 l 51 635 l 51 660 l 139 660 l 139 797 q 354 1082 139 1082 q 476 1053 422 1082 l 542 1082 l 542 165 q 547 69 542 103 q 572 3 551 36 l 572 0 l 442 0 l 442 3 q 472 165 472 60 l 472 874 q 434 1005 472 956 q 336 1054 396 1054 q 208 858 208 1054 l 208 660 l 372 660 l 372 635 l 208 635 l 208 193 q 240 3 208 60 l 240 0 l 106 0 m 835 0 l 576 346 l 774 569 q 761 657 819 625 l 761 660 l 922 660 l 922 657 q 854 619 875 636 q 797 558 833 601 l 640 381 l 829 128 q 898 49 871 75 q 960 3 925 22 l 960 0 l 835 0 z "},"":{"ha":790,"x_min":51,"x_max":756,"o":"m 756 46 q 604 -21 689 -21 q 506 15 546 -21 q 465 132 465 50 l 465 635 l 208 635 l 208 193 q 240 3 208 60 l 240 0 l 106 0 l 106 3 q 139 193 139 56 l 139 635 l 51 635 l 51 660 l 139 660 l 139 797 q 192 1007 139 932 q 340 1082 244 1082 q 422 1063 397 1082 l 439 951 l 431 949 q 364 1032 388 1010 q 308 1054 340 1054 q 236 1003 264 1054 q 208 858 208 953 l 208 660 l 415 660 l 532 761 l 535 761 l 535 660 l 740 660 l 740 635 l 535 635 l 535 129 q 636 22 535 22 q 753 51 699 22 l 756 46 z "},"":{"ha":1124,"x_min":51,"x_max":1089,"o":"m 1089 46 q 938 -21 1022 -21 q 839 15 879 -21 q 799 132 799 50 l 799 635 l 542 635 l 542 193 q 574 3 542 60 l 574 0 l 439 0 l 439 3 q 472 193 472 56 l 472 635 l 208 635 l 208 193 q 240 3 208 60 l 240 0 l 106 0 l 106 3 q 139 193 139 56 l 139 635 l 51 635 l 51 660 l 139 660 l 139 769 q 192 979 139 904 q 340 1054 244 1054 q 422 1035 397 1054 l 439 924 l 431 921 q 364 1004 388 982 q 308 1026 340 1026 q 236 976 264 1026 q 208 831 208 925 l 208 660 l 472 660 l 472 797 q 525 1007 472 932 q 674 1082 578 1082 q 756 1063 731 1082 l 772 951 l 764 949 q 697 1032 721 1010 q 642 1054 674 1054 q 569 1003 597 1054 q 542 858 542 953 l 542 660 l 749 660 l 865 761 l 868 761 l 868 660 l 1074 660 l 1074 635 l 868 635 l 868 129 q 969 22 868 22 q 1086 51 1032 22 l 1089 46 z "},"ﬀ":{"ha":738,"x_min":51,"x_max":772,"o":"m 106 3 q 139 193 139 56 l 139 635 l 51 635 l 51 660 l 139 660 l 139 769 q 192 979 139 904 q 340 1054 244 1054 q 422 1035 397 1054 l 439 924 l 431 921 q 364 1004 388 982 q 308 1026 340 1026 q 236 976 264 1026 q 208 831 208 925 l 208 660 l 472 660 l 472 797 q 525 1007 472 932 q 674 1082 578 1082 q 756 1063 731 1082 l 772 951 l 764 949 q 697 1032 721 1010 q 642 1054 674 1054 q 569 1003 597 1054 q 542 858 542 953 l 542 660 l 706 660 l 706 635 l 542 635 l 542 193 q 574 3 542 60 l 574 0 l 439 0 l 439 3 q 472 193 472 56 l 472 635 l 208 635 l 208 193 q 240 3 208 60 l 240 0 l 106 0 l 106 3 z "},"ﬁ":{"ha":640,"x_min":51,"x_max":572,"o":"m 106 0 l 106 3 q 139 193 139 56 l 139 635 l 51 635 l 51 660 l 139 660 l 139 797 q 191 1007 139 932 q 339 1082 243 1082 q 450 1044 419 1082 l 481 896 l 472 893 q 385 1019 417 985 q 315 1054 354 1054 q 237 1004 265 1054 q 208 858 208 954 l 208 660 l 422 660 q 542 688 493 660 l 542 167 q 547 69 542 103 q 572 3 551 36 l 572 0 l 442 0 l 442 3 q 472 165 472 60 l 472 532 q 411 635 472 606 l 208 635 l 208 193 q 240 3 208 60 l 240 0 l 106 0 z "},"ﬂ":{"ha":640,"x_min":51,"x_max":572,"o":"m 240 0 l 106 0 l 106 3 q 139 193 139 56 l 139 635 l 51 635 l 51 660 l 139 660 l 139 797 q 354 1082 139 1082 q 476 1053 422 1082 l 542 1082 l 542 165 q 547 69 542 103 q 572 3 551 36 l 572 0 l 442 0 l 442 3 q 472 165 472 60 l 472 874 q 434 1005 472 956 q 336 1054 396 1054 q 208 858 208 1054 l 208 660 l 372 660 l 372 635 l 208 635 l 208 193 q 240 3 208 60 l 240 0 z "},"ﬃ":{"ha":974,"x_min":51,"x_max":906,"o":"m 106 0 l 106 3 q 139 193 139 56 l 139 635 l 51 635 l 51 660 l 139 660 l 139 769 q 192 979 139 904 q 340 1054 244 1054 q 422 1035 397 1054 l 439 924 l 431 921 q 364 1004 388 982 q 308 1026 340 1026 q 236 976 264 1026 q 208 831 208 925 l 208 660 l 472 660 l 472 797 q 524 1007 472 932 q 672 1082 576 1082 q 783 1044 753 1082 l 814 896 l 806 893 q 719 1019 750 985 q 649 1054 688 1054 q 570 1004 599 1054 q 542 858 542 954 l 542 660 l 756 660 q 875 688 826 660 l 875 167 q 880 69 875 103 q 906 3 885 36 l 906 0 l 775 0 l 775 3 q 806 165 806 60 l 806 532 q 744 635 806 606 l 542 635 l 542 193 q 574 3 542 60 l 574 0 l 439 0 l 439 3 q 472 193 472 56 l 472 635 l 208 635 l 208 193 q 240 3 208 60 l 240 0 l 106 0 z "},"ﬄ":{"ha":974,"x_min":51,"x_max":906,"o":"m 106 3 q 139 193 139 56 l 139 635 l 51 635 l 51 660 l 139 660 l 139 769 q 192 979 139 904 q 340 1054 244 1054 q 422 1035 397 1054 l 439 924 l 431 921 q 364 1004 388 982 q 308 1026 340 1026 q 236 976 264 1026 q 208 831 208 925 l 208 660 l 472 660 l 472 797 q 528 1008 472 933 q 692 1082 585 1082 q 810 1053 756 1082 l 875 1082 l 875 165 q 880 69 875 103 q 906 3 885 36 l 906 0 l 775 0 l 775 3 q 806 165 806 60 l 806 874 q 769 1005 806 956 q 675 1054 732 1054 q 542 858 542 1054 l 542 660 l 706 660 l 706 635 l 542 635 l 542 193 q 574 3 542 60 l 574 0 l 439 0 l 439 3 q 472 193 472 56 l 472 635 l 208 635 l 208 193 q 240 3 208 60 l 240 0 l 106 0 l 106 3 z "}}}
